%TF.GenerationSoftware,KiCad,Pcbnew,(6.0.11)*%
%TF.CreationDate,2023-01-30T02:30:36-08:00*%
%TF.ProjectId,hardmpu-wt,68617264-6d70-4752-9d77-742e6b696361,rev?*%
%TF.SameCoordinates,PX525bfc0PY8670810*%
%TF.FileFunction,Legend,Bot*%
%TF.FilePolarity,Positive*%
%FSLAX46Y46*%
G04 Gerber Fmt 4.6, Leading zero omitted, Abs format (unit mm)*
G04 Created by KiCad (PCBNEW (6.0.11)) date 2023-01-30 02:30:36*
%MOMM*%
%LPD*%
G01*
G04 APERTURE LIST*
%ADD10C,0.350000*%
%ADD11C,0.150000*%
G04 APERTURE END LIST*
D10*
X17461333Y84693239D02*
X17461333Y86693239D01*
X17461333Y85740858D02*
X16318476Y85740858D01*
X16318476Y84693239D02*
X16318476Y86693239D01*
X14508952Y84693239D02*
X14508952Y85740858D01*
X14604190Y85931334D01*
X14794666Y86026572D01*
X15175619Y86026572D01*
X15366095Y85931334D01*
X14508952Y84788477D02*
X14699428Y84693239D01*
X15175619Y84693239D01*
X15366095Y84788477D01*
X15461333Y84978953D01*
X15461333Y85169429D01*
X15366095Y85359905D01*
X15175619Y85455143D01*
X14699428Y85455143D01*
X14508952Y85550381D01*
X13556571Y84693239D02*
X13556571Y86026572D01*
X13556571Y85645620D02*
X13461333Y85836096D01*
X13366095Y85931334D01*
X13175619Y86026572D01*
X12985142Y86026572D01*
X11461333Y84693239D02*
X11461333Y86693239D01*
X11461333Y84788477D02*
X11651809Y84693239D01*
X12032761Y84693239D01*
X12223238Y84788477D01*
X12318476Y84883715D01*
X12413714Y85074191D01*
X12413714Y85645620D01*
X12318476Y85836096D01*
X12223238Y85931334D01*
X12032761Y86026572D01*
X11651809Y86026572D01*
X11461333Y85931334D01*
X10508952Y84693239D02*
X10508952Y86693239D01*
X9842285Y85264667D01*
X9175619Y86693239D01*
X9175619Y84693239D01*
X8223238Y84693239D02*
X8223238Y86693239D01*
X7461333Y86693239D01*
X7270857Y86598000D01*
X7175619Y86502762D01*
X7080380Y86312286D01*
X7080380Y86026572D01*
X7175619Y85836096D01*
X7270857Y85740858D01*
X7461333Y85645620D01*
X8223238Y85645620D01*
X6223238Y86693239D02*
X6223238Y85074191D01*
X6128000Y84883715D01*
X6032761Y84788477D01*
X5842285Y84693239D01*
X5461333Y84693239D01*
X5270857Y84788477D01*
X5175619Y84883715D01*
X5080380Y85074191D01*
X5080380Y86693239D01*
X4128000Y85455143D02*
X2604190Y85455143D01*
X1842285Y86693239D02*
X1366095Y84693239D01*
X985142Y86121810D01*
X604190Y84693239D01*
X128000Y86693239D01*
X-348191Y86693239D02*
X-1491048Y86693239D01*
X-919620Y84693239D02*
X-919620Y86693239D01*
D11*
X98977380Y39677620D02*
X99786904Y39677620D01*
X99882142Y39630000D01*
X99929761Y39582381D01*
X99977380Y39487143D01*
X99977380Y39296667D01*
X99929761Y39201429D01*
X99882142Y39153810D01*
X99786904Y39106191D01*
X98977380Y39106191D01*
X99929761Y38677620D02*
X99977380Y38582381D01*
X99977380Y38391905D01*
X99929761Y38296667D01*
X99834523Y38249048D01*
X99786904Y38249048D01*
X99691666Y38296667D01*
X99644047Y38391905D01*
X99644047Y38534762D01*
X99596428Y38630000D01*
X99501190Y38677620D01*
X99453571Y38677620D01*
X99358333Y38630000D01*
X99310714Y38534762D01*
X99310714Y38391905D01*
X99358333Y38296667D01*
X99929761Y37439524D02*
X99977380Y37534762D01*
X99977380Y37725239D01*
X99929761Y37820477D01*
X99834523Y37868096D01*
X99453571Y37868096D01*
X99358333Y37820477D01*
X99310714Y37725239D01*
X99310714Y37534762D01*
X99358333Y37439524D01*
X99453571Y37391905D01*
X99548809Y37391905D01*
X99644047Y37868096D01*
X99929761Y36249048D02*
X99977380Y36153810D01*
X99977380Y35963334D01*
X99929761Y35868096D01*
X99834523Y35820477D01*
X99786904Y35820477D01*
X99691666Y35868096D01*
X99644047Y35963334D01*
X99644047Y36106191D01*
X99596428Y36201429D01*
X99501190Y36249048D01*
X99453571Y36249048D01*
X99358333Y36201429D01*
X99310714Y36106191D01*
X99310714Y35963334D01*
X99358333Y35868096D01*
X99310714Y35534762D02*
X99310714Y35153810D01*
X98977380Y35391905D02*
X99834523Y35391905D01*
X99929761Y35344286D01*
X99977380Y35249048D01*
X99977380Y35153810D01*
X99977380Y34391905D02*
X99453571Y34391905D01*
X99358333Y34439524D01*
X99310714Y34534762D01*
X99310714Y34725239D01*
X99358333Y34820477D01*
X99929761Y34391905D02*
X99977380Y34487143D01*
X99977380Y34725239D01*
X99929761Y34820477D01*
X99834523Y34868096D01*
X99739285Y34868096D01*
X99644047Y34820477D01*
X99596428Y34725239D01*
X99596428Y34487143D01*
X99548809Y34391905D01*
X99310714Y33915715D02*
X99977380Y33915715D01*
X99405952Y33915715D02*
X99358333Y33868096D01*
X99310714Y33772858D01*
X99310714Y33630000D01*
X99358333Y33534762D01*
X99453571Y33487143D01*
X99977380Y33487143D01*
X99977380Y32582381D02*
X98977380Y32582381D01*
X99929761Y32582381D02*
X99977380Y32677620D01*
X99977380Y32868096D01*
X99929761Y32963334D01*
X99882142Y33010953D01*
X99786904Y33058572D01*
X99501190Y33058572D01*
X99405952Y33010953D01*
X99358333Y32963334D01*
X99310714Y32868096D01*
X99310714Y32677620D01*
X99358333Y32582381D01*
X99977380Y31677620D02*
X99453571Y31677620D01*
X99358333Y31725239D01*
X99310714Y31820477D01*
X99310714Y32010953D01*
X99358333Y32106191D01*
X99929761Y31677620D02*
X99977380Y31772858D01*
X99977380Y32010953D01*
X99929761Y32106191D01*
X99834523Y32153810D01*
X99739285Y32153810D01*
X99644047Y32106191D01*
X99596428Y32010953D01*
X99596428Y31772858D01*
X99548809Y31677620D01*
X99977380Y31201429D02*
X99310714Y31201429D01*
X99501190Y31201429D02*
X99405952Y31153810D01*
X99358333Y31106191D01*
X99310714Y31010953D01*
X99310714Y30915715D01*
X99977380Y30153810D02*
X98977380Y30153810D01*
X99929761Y30153810D02*
X99977380Y30249048D01*
X99977380Y30439524D01*
X99929761Y30534762D01*
X99882142Y30582381D01*
X99786904Y30630000D01*
X99501190Y30630000D01*
X99405952Y30582381D01*
X99358333Y30534762D01*
X99310714Y30439524D01*
X99310714Y30249048D01*
X99358333Y30153810D01*
X98977380Y28963334D02*
X99167857Y28963334D01*
X98977380Y28582381D02*
X99167857Y28582381D01*
X99929761Y28201429D02*
X99977380Y28058572D01*
X99977380Y27820477D01*
X99929761Y27725239D01*
X99882142Y27677620D01*
X99786904Y27630000D01*
X99691666Y27630000D01*
X99596428Y27677620D01*
X99548809Y27725239D01*
X99501190Y27820477D01*
X99453571Y28010953D01*
X99405952Y28106191D01*
X99358333Y28153810D01*
X99263095Y28201429D01*
X99167857Y28201429D01*
X99072619Y28153810D01*
X99025000Y28106191D01*
X98977380Y28010953D01*
X98977380Y27772858D01*
X99025000Y27630000D01*
X99977380Y27058572D02*
X99929761Y27153810D01*
X99882142Y27201429D01*
X99786904Y27249048D01*
X99501190Y27249048D01*
X99405952Y27201429D01*
X99358333Y27153810D01*
X99310714Y27058572D01*
X99310714Y26915715D01*
X99358333Y26820477D01*
X99405952Y26772858D01*
X99501190Y26725239D01*
X99786904Y26725239D01*
X99882142Y26772858D01*
X99929761Y26820477D01*
X99977380Y26915715D01*
X99977380Y27058572D01*
X99310714Y25868096D02*
X99977380Y25868096D01*
X99310714Y26296667D02*
X99834523Y26296667D01*
X99929761Y26249048D01*
X99977380Y26153810D01*
X99977380Y26010953D01*
X99929761Y25915715D01*
X99882142Y25868096D01*
X99310714Y25391905D02*
X99977380Y25391905D01*
X99405952Y25391905D02*
X99358333Y25344286D01*
X99310714Y25249048D01*
X99310714Y25106191D01*
X99358333Y25010953D01*
X99453571Y24963334D01*
X99977380Y24963334D01*
X99977380Y24058572D02*
X98977380Y24058572D01*
X99929761Y24058572D02*
X99977380Y24153810D01*
X99977380Y24344286D01*
X99929761Y24439524D01*
X99882142Y24487143D01*
X99786904Y24534762D01*
X99501190Y24534762D01*
X99405952Y24487143D01*
X99358333Y24439524D01*
X99310714Y24344286D01*
X99310714Y24153810D01*
X99358333Y24058572D01*
X99453571Y22487143D02*
X99501190Y22344286D01*
X99548809Y22296667D01*
X99644047Y22249048D01*
X99786904Y22249048D01*
X99882142Y22296667D01*
X99929761Y22344286D01*
X99977380Y22439524D01*
X99977380Y22820477D01*
X98977380Y22820477D01*
X98977380Y22487143D01*
X99025000Y22391905D01*
X99072619Y22344286D01*
X99167857Y22296667D01*
X99263095Y22296667D01*
X99358333Y22344286D01*
X99405952Y22391905D01*
X99453571Y22487143D01*
X99453571Y22820477D01*
X99977380Y21677620D02*
X99929761Y21772858D01*
X99834523Y21820477D01*
X98977380Y21820477D01*
X99977380Y20868096D02*
X99453571Y20868096D01*
X99358333Y20915715D01*
X99310714Y21010953D01*
X99310714Y21201429D01*
X99358333Y21296667D01*
X99929761Y20868096D02*
X99977380Y20963334D01*
X99977380Y21201429D01*
X99929761Y21296667D01*
X99834523Y21344286D01*
X99739285Y21344286D01*
X99644047Y21296667D01*
X99596428Y21201429D01*
X99596428Y20963334D01*
X99548809Y20868096D01*
X99929761Y20439524D02*
X99977380Y20344286D01*
X99977380Y20153810D01*
X99929761Y20058572D01*
X99834523Y20010953D01*
X99786904Y20010953D01*
X99691666Y20058572D01*
X99644047Y20153810D01*
X99644047Y20296667D01*
X99596428Y20391905D01*
X99501190Y20439524D01*
X99453571Y20439524D01*
X99358333Y20391905D01*
X99310714Y20296667D01*
X99310714Y20153810D01*
X99358333Y20058572D01*
X99310714Y19725239D02*
X99310714Y19344286D01*
X98977380Y19582381D02*
X99834523Y19582381D01*
X99929761Y19534762D01*
X99977380Y19439524D01*
X99977380Y19344286D01*
X99929761Y18630000D02*
X99977380Y18725239D01*
X99977380Y18915715D01*
X99929761Y19010953D01*
X99834523Y19058572D01*
X99453571Y19058572D01*
X99358333Y19010953D01*
X99310714Y18915715D01*
X99310714Y18725239D01*
X99358333Y18630000D01*
X99453571Y18582381D01*
X99548809Y18582381D01*
X99644047Y19058572D01*
X99977380Y18153810D02*
X99310714Y18153810D01*
X99501190Y18153810D02*
X99405952Y18106191D01*
X99358333Y18058572D01*
X99310714Y17963334D01*
X99310714Y17868096D01*
X99977380Y16772858D02*
X98977380Y16772858D01*
X99691666Y16439524D01*
X98977380Y16106191D01*
X99977380Y16106191D01*
X99977380Y15630000D02*
X98977380Y15630000D01*
X99977380Y15153810D02*
X98977380Y15153810D01*
X98977380Y14915715D01*
X99025000Y14772858D01*
X99120238Y14677620D01*
X99215476Y14630000D01*
X99405952Y14582381D01*
X99548809Y14582381D01*
X99739285Y14630000D01*
X99834523Y14677620D01*
X99929761Y14772858D01*
X99977380Y14915715D01*
X99977380Y15153810D01*
X99977380Y14153810D02*
X98977380Y14153810D01*
X98977380Y13725239D02*
X99167857Y13725239D01*
X98977380Y13344286D02*
X99167857Y13344286D01*
X99929761Y11725239D02*
X99977380Y11820477D01*
X99977380Y12010953D01*
X99929761Y12106191D01*
X99882142Y12153810D01*
X99786904Y12201429D01*
X99501190Y12201429D01*
X99405952Y12153810D01*
X99358333Y12106191D01*
X99310714Y12010953D01*
X99310714Y11820477D01*
X99358333Y11725239D01*
X99977380Y10868096D02*
X99453571Y10868096D01*
X99358333Y10915715D01*
X99310714Y11010953D01*
X99310714Y11201429D01*
X99358333Y11296667D01*
X99929761Y10868096D02*
X99977380Y10963334D01*
X99977380Y11201429D01*
X99929761Y11296667D01*
X99834523Y11344286D01*
X99739285Y11344286D01*
X99644047Y11296667D01*
X99596428Y11201429D01*
X99596428Y10963334D01*
X99548809Y10868096D01*
X99977380Y10391905D02*
X98977380Y10391905D01*
X99358333Y10391905D02*
X99310714Y10296667D01*
X99310714Y10106191D01*
X99358333Y10010953D01*
X99405952Y9963334D01*
X99501190Y9915715D01*
X99786904Y9915715D01*
X99882142Y9963334D01*
X99929761Y10010953D01*
X99977380Y10106191D01*
X99977380Y10296667D01*
X99929761Y10391905D01*
X99977380Y9344286D02*
X99929761Y9439524D01*
X99834523Y9487143D01*
X98977380Y9487143D01*
X99929761Y8582381D02*
X99977380Y8677620D01*
X99977380Y8868096D01*
X99929761Y8963334D01*
X99834523Y9010953D01*
X99453571Y9010953D01*
X99358333Y8963334D01*
X99310714Y8868096D01*
X99310714Y8677620D01*
X99358333Y8582381D01*
X99453571Y8534762D01*
X99548809Y8534762D01*
X99644047Y9010953D01*
X100920714Y39415715D02*
X101587380Y39225239D01*
X101111190Y39034762D01*
X101587380Y38844286D01*
X100920714Y38653810D01*
X101587380Y38272858D02*
X100920714Y38272858D01*
X100587380Y38272858D02*
X100635000Y38320477D01*
X100682619Y38272858D01*
X100635000Y38225239D01*
X100587380Y38272858D01*
X100682619Y38272858D01*
X100920714Y37939524D02*
X100920714Y37558572D01*
X100587380Y37796667D02*
X101444523Y37796667D01*
X101539761Y37749048D01*
X101587380Y37653810D01*
X101587380Y37558572D01*
X101587380Y37225239D02*
X100587380Y37225239D01*
X101587380Y36796667D02*
X101063571Y36796667D01*
X100968333Y36844286D01*
X100920714Y36939524D01*
X100920714Y37082381D01*
X100968333Y37177620D01*
X101015952Y37225239D01*
X101587380Y35558572D02*
X100920714Y35558572D01*
X100587380Y35558572D02*
X100635000Y35606191D01*
X100682619Y35558572D01*
X100635000Y35510953D01*
X100587380Y35558572D01*
X100682619Y35558572D01*
X100920714Y35082381D02*
X101587380Y35082381D01*
X101015952Y35082381D02*
X100968333Y35034762D01*
X100920714Y34939524D01*
X100920714Y34796667D01*
X100968333Y34701429D01*
X101063571Y34653810D01*
X101587380Y34653810D01*
X100920714Y34320477D02*
X100920714Y33939524D01*
X100587380Y34177620D02*
X101444523Y34177620D01*
X101539761Y34130000D01*
X101587380Y34034762D01*
X101587380Y33939524D01*
X101539761Y33225239D02*
X101587380Y33320477D01*
X101587380Y33510953D01*
X101539761Y33606191D01*
X101444523Y33653810D01*
X101063571Y33653810D01*
X100968333Y33606191D01*
X100920714Y33510953D01*
X100920714Y33320477D01*
X100968333Y33225239D01*
X101063571Y33177620D01*
X101158809Y33177620D01*
X101254047Y33653810D01*
X100920714Y32320477D02*
X101730238Y32320477D01*
X101825476Y32368096D01*
X101873095Y32415715D01*
X101920714Y32510953D01*
X101920714Y32653810D01*
X101873095Y32749048D01*
X101539761Y32320477D02*
X101587380Y32415715D01*
X101587380Y32606191D01*
X101539761Y32701429D01*
X101492142Y32749048D01*
X101396904Y32796667D01*
X101111190Y32796667D01*
X101015952Y32749048D01*
X100968333Y32701429D01*
X100920714Y32606191D01*
X100920714Y32415715D01*
X100968333Y32320477D01*
X101587380Y31844286D02*
X100920714Y31844286D01*
X101111190Y31844286D02*
X101015952Y31796667D01*
X100968333Y31749048D01*
X100920714Y31653810D01*
X100920714Y31558572D01*
X101587380Y30796667D02*
X101063571Y30796667D01*
X100968333Y30844286D01*
X100920714Y30939524D01*
X100920714Y31130000D01*
X100968333Y31225239D01*
X101539761Y30796667D02*
X101587380Y30891905D01*
X101587380Y31130000D01*
X101539761Y31225239D01*
X101444523Y31272858D01*
X101349285Y31272858D01*
X101254047Y31225239D01*
X101206428Y31130000D01*
X101206428Y30891905D01*
X101158809Y30796667D01*
X100920714Y30463334D02*
X100920714Y30082381D01*
X100587380Y30320477D02*
X101444523Y30320477D01*
X101539761Y30272858D01*
X101587380Y30177620D01*
X101587380Y30082381D01*
X101539761Y29368096D02*
X101587380Y29463334D01*
X101587380Y29653810D01*
X101539761Y29749048D01*
X101444523Y29796667D01*
X101063571Y29796667D01*
X100968333Y29749048D01*
X100920714Y29653810D01*
X100920714Y29463334D01*
X100968333Y29368096D01*
X101063571Y29320477D01*
X101158809Y29320477D01*
X101254047Y29796667D01*
X101587380Y28463334D02*
X100587380Y28463334D01*
X101539761Y28463334D02*
X101587380Y28558572D01*
X101587380Y28749048D01*
X101539761Y28844286D01*
X101492142Y28891905D01*
X101396904Y28939524D01*
X101111190Y28939524D01*
X101015952Y28891905D01*
X100968333Y28844286D01*
X100920714Y28749048D01*
X100920714Y28558572D01*
X100968333Y28463334D01*
X101587380Y27225239D02*
X100587380Y27225239D01*
X100968333Y27225239D02*
X100920714Y27130000D01*
X100920714Y26939524D01*
X100968333Y26844286D01*
X101015952Y26796667D01*
X101111190Y26749048D01*
X101396904Y26749048D01*
X101492142Y26796667D01*
X101539761Y26844286D01*
X101587380Y26939524D01*
X101587380Y27130000D01*
X101539761Y27225239D01*
X100920714Y25891905D02*
X101587380Y25891905D01*
X100920714Y26320477D02*
X101444523Y26320477D01*
X101539761Y26272858D01*
X101587380Y26177620D01*
X101587380Y26034762D01*
X101539761Y25939524D01*
X101492142Y25891905D01*
X100920714Y25558572D02*
X100920714Y25177620D01*
X101587380Y25415715D02*
X100730238Y25415715D01*
X100635000Y25368096D01*
X100587380Y25272858D01*
X100587380Y25177620D01*
X100920714Y24987143D02*
X100920714Y24606191D01*
X101587380Y24844286D02*
X100730238Y24844286D01*
X100635000Y24796667D01*
X100587380Y24701429D01*
X100587380Y24606191D01*
X101539761Y23891905D02*
X101587380Y23987143D01*
X101587380Y24177620D01*
X101539761Y24272858D01*
X101444523Y24320477D01*
X101063571Y24320477D01*
X100968333Y24272858D01*
X100920714Y24177620D01*
X100920714Y23987143D01*
X100968333Y23891905D01*
X101063571Y23844286D01*
X101158809Y23844286D01*
X101254047Y24320477D01*
X101587380Y23415715D02*
X100920714Y23415715D01*
X101111190Y23415715D02*
X101015952Y23368096D01*
X100968333Y23320477D01*
X100920714Y23225239D01*
X100920714Y23130000D01*
X101587380Y21606191D02*
X101063571Y21606191D01*
X100968333Y21653810D01*
X100920714Y21749048D01*
X100920714Y21939524D01*
X100968333Y22034762D01*
X101539761Y21606191D02*
X101587380Y21701429D01*
X101587380Y21939524D01*
X101539761Y22034762D01*
X101444523Y22082381D01*
X101349285Y22082381D01*
X101254047Y22034762D01*
X101206428Y21939524D01*
X101206428Y21701429D01*
X101158809Y21606191D01*
X100920714Y21130000D02*
X101587380Y21130000D01*
X101015952Y21130000D02*
X100968333Y21082381D01*
X100920714Y20987143D01*
X100920714Y20844286D01*
X100968333Y20749048D01*
X101063571Y20701429D01*
X101587380Y20701429D01*
X101587380Y19796667D02*
X100587380Y19796667D01*
X101539761Y19796667D02*
X101587380Y19891905D01*
X101587380Y20082381D01*
X101539761Y20177620D01*
X101492142Y20225239D01*
X101396904Y20272858D01*
X101111190Y20272858D01*
X101015952Y20225239D01*
X100968333Y20177620D01*
X100920714Y20082381D01*
X100920714Y19891905D01*
X100968333Y19796667D01*
X101587380Y18415715D02*
X101539761Y18510953D01*
X101492142Y18558572D01*
X101396904Y18606191D01*
X101111190Y18606191D01*
X101015952Y18558572D01*
X100968333Y18510953D01*
X100920714Y18415715D01*
X100920714Y18272858D01*
X100968333Y18177620D01*
X101015952Y18130001D01*
X101111190Y18082381D01*
X101396904Y18082381D01*
X101492142Y18130001D01*
X101539761Y18177620D01*
X101587380Y18272858D01*
X101587380Y18415715D01*
X100920714Y17653810D02*
X101920714Y17653810D01*
X100968333Y17653810D02*
X100920714Y17558572D01*
X100920714Y17368096D01*
X100968333Y17272858D01*
X101015952Y17225239D01*
X101111190Y17177620D01*
X101396904Y17177620D01*
X101492142Y17225239D01*
X101539761Y17272858D01*
X101587380Y17368096D01*
X101587380Y17558572D01*
X101539761Y17653810D01*
X100920714Y16891905D02*
X100920714Y16510953D01*
X100587380Y16749048D02*
X101444523Y16749048D01*
X101539761Y16701429D01*
X101587380Y16606191D01*
X101587380Y16510953D01*
X101587380Y16034762D02*
X101539761Y16130001D01*
X101492142Y16177620D01*
X101396904Y16225239D01*
X101111190Y16225239D01*
X101015952Y16177620D01*
X100968333Y16130001D01*
X100920714Y16034762D01*
X100920714Y15891905D01*
X100968333Y15796667D01*
X101015952Y15749048D01*
X101111190Y15701429D01*
X101396904Y15701429D01*
X101492142Y15749048D01*
X101539761Y15796667D01*
X101587380Y15891905D01*
X101587380Y16034762D01*
X101206428Y15272858D02*
X101206428Y14510953D01*
X101539761Y13606191D02*
X101587380Y13701429D01*
X101587380Y13891905D01*
X101539761Y13987143D01*
X101492142Y14034762D01*
X101396904Y14082381D01*
X101111190Y14082381D01*
X101015952Y14034762D01*
X100968333Y13987143D01*
X100920714Y13891905D01*
X100920714Y13701429D01*
X100968333Y13606191D01*
X101587380Y13034762D02*
X101539761Y13130001D01*
X101492142Y13177620D01*
X101396904Y13225239D01*
X101111190Y13225239D01*
X101015952Y13177620D01*
X100968333Y13130001D01*
X100920714Y13034762D01*
X100920714Y12891905D01*
X100968333Y12796667D01*
X101015952Y12749048D01*
X101111190Y12701429D01*
X101396904Y12701429D01*
X101492142Y12749048D01*
X101539761Y12796667D01*
X101587380Y12891905D01*
X101587380Y13034762D01*
X100920714Y11844286D02*
X101587380Y11844286D01*
X100920714Y12272858D02*
X101444523Y12272858D01*
X101539761Y12225239D01*
X101587380Y12130001D01*
X101587380Y11987143D01*
X101539761Y11891905D01*
X101492142Y11844286D01*
X100920714Y11368096D02*
X101920714Y11368096D01*
X100968333Y11368096D02*
X100920714Y11272858D01*
X100920714Y11082381D01*
X100968333Y10987143D01*
X101015952Y10939524D01*
X101111190Y10891905D01*
X101396904Y10891905D01*
X101492142Y10939524D01*
X101539761Y10987143D01*
X101587380Y11082381D01*
X101587380Y11272858D01*
X101539761Y11368096D01*
X101587380Y10320477D02*
X101539761Y10415715D01*
X101444523Y10463334D01*
X100587380Y10463334D01*
X101539761Y9558572D02*
X101587380Y9653810D01*
X101587380Y9844286D01*
X101539761Y9939524D01*
X101444523Y9987143D01*
X101063571Y9987143D01*
X100968333Y9939524D01*
X100920714Y9844286D01*
X100920714Y9653810D01*
X100968333Y9558572D01*
X101063571Y9510953D01*
X101158809Y9510953D01*
X101254047Y9987143D01*
X101587380Y9082381D02*
X100920714Y9082381D01*
X101111190Y9082381D02*
X101015952Y9034762D01*
X100968333Y8987143D01*
X100920714Y8891905D01*
X100920714Y8796667D01*
X95432142Y64047620D02*
X95432142Y63238096D01*
X95384523Y63142858D01*
X95336904Y63095239D01*
X95241666Y63047620D01*
X95051190Y63047620D01*
X94955952Y63095239D01*
X94908333Y63142858D01*
X94860714Y63238096D01*
X94860714Y64047620D01*
X94432142Y63095239D02*
X94336904Y63047620D01*
X94146428Y63047620D01*
X94051190Y63095239D01*
X94003571Y63190477D01*
X94003571Y63238096D01*
X94051190Y63333334D01*
X94146428Y63380953D01*
X94289285Y63380953D01*
X94384523Y63428572D01*
X94432142Y63523810D01*
X94432142Y63571429D01*
X94384523Y63666667D01*
X94289285Y63714286D01*
X94146428Y63714286D01*
X94051190Y63666667D01*
X93194047Y63095239D02*
X93289285Y63047620D01*
X93479761Y63047620D01*
X93575000Y63095239D01*
X93622619Y63190477D01*
X93622619Y63571429D01*
X93575000Y63666667D01*
X93479761Y63714286D01*
X93289285Y63714286D01*
X93194047Y63666667D01*
X93146428Y63571429D01*
X93146428Y63476191D01*
X93622619Y63380953D01*
X92717857Y63047620D02*
X92717857Y63714286D01*
X92717857Y63523810D02*
X92670238Y63619048D01*
X92622619Y63666667D01*
X92527380Y63714286D01*
X92432142Y63714286D01*
X91336904Y63047620D02*
X91336904Y64047620D01*
X90955952Y64047620D01*
X90860714Y64000000D01*
X90813095Y63952381D01*
X90765476Y63857143D01*
X90765476Y63714286D01*
X90813095Y63619048D01*
X90860714Y63571429D01*
X90955952Y63523810D01*
X91336904Y63523810D01*
X90194047Y63047620D02*
X90289285Y63095239D01*
X90336904Y63142858D01*
X90384523Y63238096D01*
X90384523Y63523810D01*
X90336904Y63619048D01*
X90289285Y63666667D01*
X90194047Y63714286D01*
X90051190Y63714286D01*
X89955952Y63666667D01*
X89908333Y63619048D01*
X89860714Y63523810D01*
X89860714Y63238096D01*
X89908333Y63142858D01*
X89955952Y63095239D01*
X90051190Y63047620D01*
X90194047Y63047620D01*
X89432142Y63047620D02*
X89432142Y63714286D01*
X89432142Y63523810D02*
X89384523Y63619048D01*
X89336904Y63666667D01*
X89241666Y63714286D01*
X89146428Y63714286D01*
X88955952Y63714286D02*
X88575000Y63714286D01*
X88813095Y64047620D02*
X88813095Y63190477D01*
X88765476Y63095239D01*
X88670238Y63047620D01*
X88575000Y63047620D01*
X97123095Y50347620D02*
X97123095Y51347620D01*
X96742142Y51347620D01*
X96646904Y51300000D01*
X96599285Y51252381D01*
X96551666Y51157143D01*
X96551666Y51014286D01*
X96599285Y50919048D01*
X96646904Y50871429D01*
X96742142Y50823810D01*
X97123095Y50823810D01*
X96123095Y50347620D02*
X96123095Y51347620D01*
X95885000Y51347620D01*
X95742142Y51300000D01*
X95646904Y51204762D01*
X95599285Y51109524D01*
X95551666Y50919048D01*
X95551666Y50776191D01*
X95599285Y50585715D01*
X95646904Y50490477D01*
X95742142Y50395239D01*
X95885000Y50347620D01*
X96123095Y50347620D01*
X94646904Y51347620D02*
X95123095Y51347620D01*
X95170714Y50871429D01*
X95123095Y50919048D01*
X95027857Y50966667D01*
X94789761Y50966667D01*
X94694523Y50919048D01*
X94646904Y50871429D01*
X94599285Y50776191D01*
X94599285Y50538096D01*
X94646904Y50442858D01*
X94694523Y50395239D01*
X94789761Y50347620D01*
X95027857Y50347620D01*
X95123095Y50395239D01*
X95170714Y50442858D01*
X89503095Y50347620D02*
X89503095Y51347620D01*
X89122142Y51347620D01*
X89026904Y51300000D01*
X88979285Y51252381D01*
X88931666Y51157143D01*
X88931666Y51014286D01*
X88979285Y50919048D01*
X89026904Y50871429D01*
X89122142Y50823810D01*
X89503095Y50823810D01*
X88503095Y50347620D02*
X88503095Y51347620D01*
X88265000Y51347620D01*
X88122142Y51300000D01*
X88026904Y51204762D01*
X87979285Y51109524D01*
X87931666Y50919048D01*
X87931666Y50776191D01*
X87979285Y50585715D01*
X88026904Y50490477D01*
X88122142Y50395239D01*
X88265000Y50347620D01*
X88503095Y50347620D01*
X87074523Y51014286D02*
X87074523Y50347620D01*
X87312619Y51395239D02*
X87550714Y50680953D01*
X86931666Y50680953D01*
X97123095Y55427620D02*
X97123095Y56427620D01*
X96742142Y56427620D01*
X96646904Y56380000D01*
X96599285Y56332381D01*
X96551666Y56237143D01*
X96551666Y56094286D01*
X96599285Y55999048D01*
X96646904Y55951429D01*
X96742142Y55903810D01*
X97123095Y55903810D01*
X96123095Y55427620D02*
X96123095Y56427620D01*
X95885000Y56427620D01*
X95742142Y56380000D01*
X95646904Y56284762D01*
X95599285Y56189524D01*
X95551666Y55999048D01*
X95551666Y55856191D01*
X95599285Y55665715D01*
X95646904Y55570477D01*
X95742142Y55475239D01*
X95885000Y55427620D01*
X96123095Y55427620D01*
X95218333Y56427620D02*
X94551666Y56427620D01*
X94980238Y55427620D01*
X97123095Y52887620D02*
X97123095Y53887620D01*
X96742142Y53887620D01*
X96646904Y53840000D01*
X96599285Y53792381D01*
X96551666Y53697143D01*
X96551666Y53554286D01*
X96599285Y53459048D01*
X96646904Y53411429D01*
X96742142Y53363810D01*
X97123095Y53363810D01*
X96123095Y52887620D02*
X96123095Y53887620D01*
X95885000Y53887620D01*
X95742142Y53840000D01*
X95646904Y53744762D01*
X95599285Y53649524D01*
X95551666Y53459048D01*
X95551666Y53316191D01*
X95599285Y53125715D01*
X95646904Y53030477D01*
X95742142Y52935239D01*
X95885000Y52887620D01*
X96123095Y52887620D01*
X94694523Y53887620D02*
X94885000Y53887620D01*
X94980238Y53840000D01*
X95027857Y53792381D01*
X95123095Y53649524D01*
X95170714Y53459048D01*
X95170714Y53078096D01*
X95123095Y52982858D01*
X95075476Y52935239D01*
X94980238Y52887620D01*
X94789761Y52887620D01*
X94694523Y52935239D01*
X94646904Y52982858D01*
X94599285Y53078096D01*
X94599285Y53316191D01*
X94646904Y53411429D01*
X94694523Y53459048D01*
X94789761Y53506667D01*
X94980238Y53506667D01*
X95075476Y53459048D01*
X95123095Y53411429D01*
X95170714Y53316191D01*
X88455476Y56427620D02*
X88931666Y56427620D01*
X88979285Y55951429D01*
X88931666Y55999048D01*
X88836428Y56046667D01*
X88598333Y56046667D01*
X88503095Y55999048D01*
X88455476Y55951429D01*
X88407857Y55856191D01*
X88407857Y55618096D01*
X88455476Y55522858D01*
X88503095Y55475239D01*
X88598333Y55427620D01*
X88836428Y55427620D01*
X88931666Y55475239D01*
X88979285Y55522858D01*
X88122142Y56427620D02*
X87788809Y55427620D01*
X87455476Y56427620D01*
X89026904Y53840000D02*
X89122142Y53887620D01*
X89265000Y53887620D01*
X89407857Y53840000D01*
X89503095Y53744762D01*
X89550714Y53649524D01*
X89598333Y53459048D01*
X89598333Y53316191D01*
X89550714Y53125715D01*
X89503095Y53030477D01*
X89407857Y52935239D01*
X89265000Y52887620D01*
X89169761Y52887620D01*
X89026904Y52935239D01*
X88979285Y52982858D01*
X88979285Y53316191D01*
X89169761Y53316191D01*
X88550714Y52887620D02*
X88550714Y53887620D01*
X87979285Y52887620D01*
X87979285Y53887620D01*
X87503095Y52887620D02*
X87503095Y53887620D01*
X87265000Y53887620D01*
X87122142Y53840000D01*
X87026904Y53744762D01*
X86979285Y53649524D01*
X86931666Y53459048D01*
X86931666Y53316191D01*
X86979285Y53125715D01*
X87026904Y53030477D01*
X87122142Y52935239D01*
X87265000Y52887620D01*
X87503095Y52887620D01*
X89503095Y58967620D02*
X88931666Y58967620D01*
X89217380Y57967620D02*
X89217380Y58967620D01*
X88693571Y58967620D02*
X88026904Y57967620D01*
X88026904Y58967620D02*
X88693571Y57967620D01*
X87122142Y57967620D02*
X87693571Y57967620D01*
X87407857Y57967620D02*
X87407857Y58967620D01*
X87503095Y58824762D01*
X87598333Y58729524D01*
X87693571Y58681905D01*
X97099285Y60555239D02*
X96956428Y60507620D01*
X96718333Y60507620D01*
X96623095Y60555239D01*
X96575476Y60602858D01*
X96527857Y60698096D01*
X96527857Y60793334D01*
X96575476Y60888572D01*
X96623095Y60936191D01*
X96718333Y60983810D01*
X96908809Y61031429D01*
X97004047Y61079048D01*
X97051666Y61126667D01*
X97099285Y61221905D01*
X97099285Y61317143D01*
X97051666Y61412381D01*
X97004047Y61460000D01*
X96908809Y61507620D01*
X96670714Y61507620D01*
X96527857Y61460000D01*
X96099285Y60507620D02*
X96099285Y61507620D01*
X95861190Y61507620D01*
X95718333Y61460000D01*
X95623095Y61364762D01*
X95575476Y61269524D01*
X95527857Y61079048D01*
X95527857Y60936191D01*
X95575476Y60745715D01*
X95623095Y60650477D01*
X95718333Y60555239D01*
X95861190Y60507620D01*
X96099285Y60507620D01*
X95146904Y60793334D02*
X94670714Y60793334D01*
X95242142Y60507620D02*
X94908809Y61507620D01*
X94575476Y60507620D01*
X97075476Y58015239D02*
X96932619Y57967620D01*
X96694523Y57967620D01*
X96599285Y58015239D01*
X96551666Y58062858D01*
X96504047Y58158096D01*
X96504047Y58253334D01*
X96551666Y58348572D01*
X96599285Y58396191D01*
X96694523Y58443810D01*
X96885000Y58491429D01*
X96980238Y58539048D01*
X97027857Y58586667D01*
X97075476Y58681905D01*
X97075476Y58777143D01*
X97027857Y58872381D01*
X96980238Y58920000D01*
X96885000Y58967620D01*
X96646904Y58967620D01*
X96504047Y58920000D01*
X95504047Y58062858D02*
X95551666Y58015239D01*
X95694523Y57967620D01*
X95789761Y57967620D01*
X95932619Y58015239D01*
X96027857Y58110477D01*
X96075476Y58205715D01*
X96123095Y58396191D01*
X96123095Y58539048D01*
X96075476Y58729524D01*
X96027857Y58824762D01*
X95932619Y58920000D01*
X95789761Y58967620D01*
X95694523Y58967620D01*
X95551666Y58920000D01*
X95504047Y58872381D01*
X94599285Y57967620D02*
X95075476Y57967620D01*
X95075476Y58967620D01*
X88907857Y60507620D02*
X89241190Y60983810D01*
X89479285Y60507620D02*
X89479285Y61507620D01*
X89098333Y61507620D01*
X89003095Y61460000D01*
X88955476Y61412381D01*
X88907857Y61317143D01*
X88907857Y61174286D01*
X88955476Y61079048D01*
X89003095Y61031429D01*
X89098333Y60983810D01*
X89479285Y60983810D01*
X88574523Y61507620D02*
X87907857Y60507620D01*
X87907857Y61507620D02*
X88574523Y60507620D01*
X87003095Y60507620D02*
X87574523Y60507620D01*
X87288809Y60507620D02*
X87288809Y61507620D01*
X87384047Y61364762D01*
X87479285Y61269524D01*
X87574523Y61221905D01*
M02*
