M48
; DRILL file {KiCad (5.1.10)-1} date 04/16/22 02:31:01
; FORMAT={-:-/ absolute / inch / decimal}
; #@! TF.CreationDate,2022-04-16T02:31:01-07:00
; #@! TF.GenerationSoftware,Kicad,Pcbnew,(5.1.10)-1
; #@! TF.FileFunction,Plated,1,2,PTH
FMAT,2
INCH
T1C0.0157
T2C0.0280
T3C0.0295
T4C0.0315
T5C0.0394
T6C0.1260
%
G90
G05
T1
X0.085Y0.205
X0.1Y0.29
X0.5Y0.2
X0.7Y1.6
X0.7Y0.2
X0.85Y2.05
X0.925Y1.775
X1.0Y1.775
X1.05Y1.325
X1.15Y1.325
X1.175Y0.975
X1.2125Y0.0375
X1.225Y1.35
X1.225Y1.3
X1.25Y0.975
X1.325Y0.375
X1.325Y0.1547
X1.385Y1.69
X1.41Y1.715
X1.45Y1.86
X1.45Y0.85
X1.49Y1.64
X1.5Y1.67
X1.5Y0.925
X1.55Y2.235
X1.55Y1.375
X1.625Y0.175
X1.675Y1.375
X1.7Y0.98
X1.725Y0.875
X1.725Y0.175
X1.75Y0.85
X1.775Y0.925
X1.8Y0.9
X1.925Y2.935
X1.925Y2.74
X1.925Y1.975
X2.125Y1.375
X2.225Y1.125
X2.25Y1.575
X2.31Y2.25
X2.32Y0.39
X2.33Y0.07
X2.35Y0.85
X2.4Y1.775
X2.425Y1.75
X2.475Y1.3
X2.575Y1.4
X2.645Y2.15
X2.745Y2.05
X2.81Y1.95
X2.835Y1.925
X2.86Y1.9
X2.9Y3.04
X3.0Y1.775
X3.025Y2.55
X3.025Y1.75
X3.0375Y0.0375
X3.05Y2.525
X3.075Y2.5
X3.1Y3.04
X3.15Y2.175
X3.16Y1.12
X3.175Y2.2
X3.175Y1.375
X3.275Y1.3
X3.275Y0.875
X3.3Y1.4
X3.4Y0.925
T2
X3.75Y1.875
X3.9508Y1.812
T3
X0.5Y2.925
X0.55Y2.975
X0.6Y2.925
X2.15Y2.925
X2.2Y2.975
X2.25Y2.925
T4
X0.0016Y1.5
X0.0016Y0.6
X0.0213Y0.85
X0.05Y0.135
X0.1Y1.5
X0.1Y0.85
X0.1Y0.6
X0.2Y0.6
X0.2Y0.3
X0.25Y1.5
X0.25Y1.2
X0.275Y0.05
X0.3Y0.6
X0.3Y0.3
X0.35Y1.5
X0.35Y1.2
X0.4Y2.9984
X0.4Y2.9
X0.4Y0.6
X0.4Y0.3
X0.45Y1.5
X0.45Y1.2
X0.5Y0.6
X0.5Y0.3
X0.55Y1.5
X0.55Y1.2
X0.6Y2.5
X0.6Y1.9
X0.6Y0.6
X0.6Y0.3
X0.65Y1.5
X0.65Y1.2
X0.7Y2.9984
X0.7Y2.9
X0.7Y2.5
X0.7Y1.9
X0.7Y0.6
X0.7Y0.3
X0.75Y1.5
X0.75Y1.2
X0.8Y2.5
X0.8Y1.9
X0.8Y0.6
X0.8Y0.3
X0.85Y1.725
X0.85Y1.5
X0.85Y1.2
X0.87Y0.165
X0.9Y2.5
X0.9Y1.9
X0.9Y0.6
X0.9Y0.3
X1.0Y2.5
X1.0Y1.9
X1.1Y2.5
X1.1Y1.9
X1.1Y1.5
X1.1Y1.2
X1.1Y0.225
X1.15Y1.725
X1.2Y2.5
X1.2Y1.9
X1.2Y1.5
X1.2Y1.2
X1.2016Y1.05
X1.3Y2.5
X1.3Y1.9
X1.3Y1.05
X1.3Y0.6
X1.3Y0.5016
X1.3516Y1.6
X1.4Y2.5
X1.4Y1.9
X1.4Y0.6
X1.4Y0.3
X1.4016Y1.8
X1.45Y1.6
X1.45Y1.5
X1.45Y1.2
X1.45Y1.05
X1.45Y0.75
X1.5Y3.2
X1.5Y2.9
X1.5Y2.5
X1.5Y1.9
X1.5Y1.8
X1.5Y0.6
X1.5Y0.3
X1.5016Y2.6
X1.55Y1.5
X1.55Y1.2
X1.55Y1.05
X1.55Y0.75
X1.6Y3.2
X1.6Y2.9
X1.6Y2.6
X1.6Y2.5
X1.6Y2.215
X1.6Y1.9
X1.6Y1.7734
X1.6Y1.675
X1.6Y0.6
X1.6Y0.3
X1.65Y1.5
X1.65Y1.2
X1.65Y1.05
X1.65Y0.75
X1.7Y3.2
X1.7Y2.9
X1.7Y2.5
X1.7Y1.9
X1.7Y0.6
X1.7Y0.3
X1.75Y1.5
X1.75Y1.2
X1.75Y1.05
X1.75Y0.75
X1.7829Y1.725
X1.8Y3.2
X1.8Y2.9
X1.8Y2.5
X1.8Y1.9
X1.8Y0.6
X1.8Y0.3
X1.85Y1.5
X1.85Y1.2
X1.85Y1.05
X1.85Y0.75
X1.9Y2.5
X1.9Y1.9
X1.9Y0.6
X1.9Y0.3
X1.95Y1.5
X1.95Y1.2
X1.95Y1.05
X1.95Y0.75
X1.975Y1.725
X2.0Y2.5
X2.0Y1.9
X2.0Y0.6
X2.0Y0.3
X2.05Y2.9984
X2.05Y2.9
X2.05Y1.5
X2.05Y1.2
X2.05Y1.05
X2.05Y0.75
X2.1Y2.5
X2.1Y1.9
X2.1Y0.6
X2.1Y0.3
X2.15Y1.7734
X2.15Y1.675
X2.2Y2.5
X2.2Y1.9
X2.2016Y1.5
X2.2016Y1.05
X2.2016Y0.6
X2.245Y0.07
X2.3Y2.5
X2.3Y1.9
X2.3Y1.5
X2.3Y1.05
X2.3Y0.6
X2.35Y2.9984
X2.35Y2.9
X2.35Y0.11
X2.4Y2.5
X2.4Y1.9
X2.4Y1.5
X2.4Y1.2
X2.4Y1.05
X2.4Y0.75
X2.4Y0.6
X2.4Y0.3
X2.5Y2.5
X2.5Y1.9
X2.5Y1.5
X2.5Y1.2
X2.5Y1.05
X2.5Y0.75
X2.5Y0.6
X2.5Y0.3
X2.55Y3.0
X2.6Y1.5
X2.6Y1.2
X2.6Y1.05
X2.6Y0.75
X2.6Y0.6
X2.6Y0.3
X2.7Y1.5
X2.7Y1.2
X2.7Y1.05
X2.7Y0.75
X2.7Y0.6
X2.7Y0.3
X2.8Y1.5
X2.8Y1.2
X2.8Y1.05
X2.8Y0.75
X2.8Y0.6
X2.8Y0.3
X2.9Y1.5
X2.9Y1.2
X2.9Y1.05
X2.9Y0.75
X2.9Y0.6
X2.9Y0.3
X3.0Y1.5
X3.0Y1.2
X3.0Y1.05
X3.0Y0.75
X3.0Y0.6
X3.0Y0.3
X3.1Y1.5
X3.1Y1.2
X3.1Y1.05
X3.1Y0.75
X3.1Y0.6
X3.1Y0.3
X3.1508Y0.0992
X3.2Y1.5
X3.2Y1.2
X3.2Y1.05
X3.2Y0.75
X3.2Y0.6
X3.2Y0.3
X3.3Y1.5
X3.3Y1.2
X3.3Y1.05
X3.3Y0.75
X3.3Y0.6
X3.3Y0.3
X3.55Y1.3375
X3.55Y1.0375
X3.55Y0.875
X3.55Y0.575
T5
X0.15Y2.3
X0.15Y2.2
X0.15Y2.1
X0.25Y2.3
X0.25Y2.2
X0.25Y2.1
X0.4Y0.95
X0.4Y0.85
X0.5Y0.95
X0.5Y0.85
X0.6Y0.95
X0.6Y0.85
X0.7Y0.95
X0.7Y0.85
X0.95Y2.9
X1.05Y2.9
X1.1Y0.8
X1.1Y0.7
X1.1Y0.6
X1.1Y0.5
X1.1Y0.4
X1.1Y0.3
X1.15Y2.9
X1.2Y0.8
X1.2Y0.7
X1.2Y0.6
X1.2Y0.5
X1.2Y0.4
X1.2Y0.3
X1.25Y2.9
X2.0Y3.3
X2.0Y3.2
X2.1Y3.3
X2.1Y3.2
X2.2Y3.3
X2.2Y3.2
X2.3Y3.3
X2.3Y3.2
X2.4Y3.3
X2.4Y3.2
X2.5Y3.3
X2.5Y3.2
X2.6Y3.3
X2.6Y3.2
X2.7Y3.3
X2.7Y3.2
X2.8Y3.3
X2.8Y3.2
X2.85Y2.4
X2.85Y2.3
X2.85Y2.2
X2.85Y2.1
X2.85Y2.0
X2.9Y3.3
X2.9Y3.2
X2.95Y2.4
X2.95Y2.3
X2.95Y2.2
X2.95Y2.1
X2.95Y2.0
X3.0Y3.3
X3.0Y3.2
X3.1Y3.3
X3.1Y3.2
X3.2Y3.3
X3.2Y3.2
X3.575Y2.4
X3.575Y2.3
X3.575Y2.2
X3.575Y2.1
X3.575Y2.0
X3.675Y2.4
X3.675Y2.3
X3.675Y2.2
X3.675Y2.1
X3.675Y2.0
X3.7191Y1.3372
X3.7191Y1.2281
X3.7191Y1.1191
X3.7191Y1.01
X3.7191Y0.901
X3.7191Y0.7919
X3.7191Y0.6829
X3.7191Y0.5738
X3.8309Y1.2827
X3.8309Y1.1736
X3.8309Y1.0646
X3.8309Y0.9555
X3.8309Y0.8465
X3.8309Y0.7374
X3.8309Y0.6283
T6
X3.775Y1.611
X3.775Y0.3
X3.85Y3.25
T5
G00X3.7933Y3.0219
M15
G01X3.813Y3.0219
M16
G05
G00X3.7933Y2.9234
M15
G01X3.813Y2.9234
M16
G05
G00X3.7933Y2.7266
M15
G01X3.813Y2.7266
M16
G05
G00X3.7933Y2.6281
M15
G01X3.813Y2.6281
M16
G05
G00X4.0Y2.8348
M15
G01X4.0Y2.8152
M16
G05
T0
M30
