%TF.GenerationSoftware,KiCad,Pcbnew,(6.0.11)*%
%TF.CreationDate,2023-01-30T02:30:36-08:00*%
%TF.ProjectId,hardmpu-wt,68617264-6d70-4752-9d77-742e6b696361,rev?*%
%TF.SameCoordinates,PX525bfc0PY8670810*%
%TF.FileFunction,Legend,Top*%
%TF.FilePolarity,Positive*%
%FSLAX46Y46*%
G04 Gerber Fmt 4.6, Leading zero omitted, Abs format (unit mm)*
G04 Created by KiCad (PCBNEW (6.0.11)) date 2023-01-30 02:30:36*
%MOMM*%
%LPD*%
G01*
G04 APERTURE LIST*
%ADD10C,0.150000*%
%ADD11C,0.100000*%
%ADD12C,0.350000*%
%ADD13C,0.250000*%
%ADD14C,0.120000*%
G04 APERTURE END LIST*
D10*
X16891000Y16891000D02*
X16891000Y19939000D01*
X24765000Y6858000D02*
X24765000Y8509000D01*
X86487000Y57023000D02*
X86487000Y58674000D01*
X18542000Y19939000D02*
X18542000Y16891000D01*
D11*
G36*
X81280000Y85725000D02*
G01*
X80010000Y86995000D01*
X82550000Y86995000D01*
X81280000Y85725000D01*
G37*
X81280000Y85725000D02*
X80010000Y86995000D01*
X82550000Y86995000D01*
X81280000Y85725000D01*
D10*
X18542000Y16891000D02*
X16891000Y16891000D01*
X88900000Y58674000D02*
X88900000Y57023000D01*
X26035000Y8509000D02*
X26035000Y6858000D01*
X24765000Y8509000D02*
X26035000Y8509000D01*
X88900000Y57023000D02*
X86487000Y57023000D01*
X16891000Y19939000D02*
X18542000Y19939000D01*
X26035000Y6858000D02*
X24765000Y6858000D01*
X86487000Y58674000D02*
X88900000Y58674000D01*
D12*
X-1205334Y84693239D02*
X-1205334Y86693239D01*
X-1205334Y85740858D02*
X-62477Y85740858D01*
X-62477Y84693239D02*
X-62477Y86693239D01*
X1747047Y84693239D02*
X1747047Y85740858D01*
X1651809Y85931334D01*
X1461333Y86026572D01*
X1080380Y86026572D01*
X889904Y85931334D01*
X1747047Y84788477D02*
X1556571Y84693239D01*
X1080380Y84693239D01*
X889904Y84788477D01*
X794666Y84978953D01*
X794666Y85169429D01*
X889904Y85359905D01*
X1080380Y85455143D01*
X1556571Y85455143D01*
X1747047Y85550381D01*
X2699428Y84693239D02*
X2699428Y86026572D01*
X2699428Y85645620D02*
X2794666Y85836096D01*
X2889904Y85931334D01*
X3080380Y86026572D01*
X3270857Y86026572D01*
X4794666Y84693239D02*
X4794666Y86693239D01*
X4794666Y84788477D02*
X4604190Y84693239D01*
X4223238Y84693239D01*
X4032761Y84788477D01*
X3937523Y84883715D01*
X3842285Y85074191D01*
X3842285Y85645620D01*
X3937523Y85836096D01*
X4032761Y85931334D01*
X4223238Y86026572D01*
X4604190Y86026572D01*
X4794666Y85931334D01*
X5747047Y84693239D02*
X5747047Y86693239D01*
X6413714Y85264667D01*
X7080380Y86693239D01*
X7080380Y84693239D01*
X8032761Y84693239D02*
X8032761Y86693239D01*
X8794666Y86693239D01*
X8985142Y86598000D01*
X9080380Y86502762D01*
X9175619Y86312286D01*
X9175619Y86026572D01*
X9080380Y85836096D01*
X8985142Y85740858D01*
X8794666Y85645620D01*
X8032761Y85645620D01*
X10032761Y86693239D02*
X10032761Y85074191D01*
X10128000Y84883715D01*
X10223238Y84788477D01*
X10413714Y84693239D01*
X10794666Y84693239D01*
X10985142Y84788477D01*
X11080380Y84883715D01*
X11175619Y85074191D01*
X11175619Y86693239D01*
X12128000Y85455143D02*
X13651809Y85455143D01*
X14413714Y86693239D02*
X14889904Y84693239D01*
X15270857Y86121810D01*
X15651809Y84693239D01*
X16128000Y86693239D01*
X16604190Y86693239D02*
X17747047Y86693239D01*
X17175619Y84693239D02*
X17175619Y86693239D01*
D13*
X73030000Y75142429D02*
X73030000Y76642429D01*
X73030000Y75928143D02*
X73887142Y75928143D01*
X73887142Y75142429D02*
X73887142Y76642429D01*
X75244285Y75142429D02*
X75244285Y75928143D01*
X75172857Y76071000D01*
X75030000Y76142429D01*
X74744285Y76142429D01*
X74601428Y76071000D01*
X75244285Y75213858D02*
X75101428Y75142429D01*
X74744285Y75142429D01*
X74601428Y75213858D01*
X74530000Y75356715D01*
X74530000Y75499572D01*
X74601428Y75642429D01*
X74744285Y75713858D01*
X75101428Y75713858D01*
X75244285Y75785286D01*
X75958571Y75142429D02*
X75958571Y76142429D01*
X75958571Y75856715D02*
X76030000Y75999572D01*
X76101428Y76071000D01*
X76244285Y76142429D01*
X76387142Y76142429D01*
X77530000Y75142429D02*
X77530000Y76642429D01*
X77530000Y75213858D02*
X77387142Y75142429D01*
X77101428Y75142429D01*
X76958571Y75213858D01*
X76887142Y75285286D01*
X76815714Y75428143D01*
X76815714Y75856715D01*
X76887142Y75999572D01*
X76958571Y76071000D01*
X77101428Y76142429D01*
X77387142Y76142429D01*
X77530000Y76071000D01*
X78244285Y75142429D02*
X78244285Y76642429D01*
X78744285Y75571000D01*
X79244285Y76642429D01*
X79244285Y75142429D01*
X79958571Y75142429D02*
X79958571Y76642429D01*
X80530000Y76642429D01*
X80672857Y76571000D01*
X80744285Y76499572D01*
X80815714Y76356715D01*
X80815714Y76142429D01*
X80744285Y75999572D01*
X80672857Y75928143D01*
X80530000Y75856715D01*
X79958571Y75856715D01*
X81458571Y76642429D02*
X81458571Y75428143D01*
X81530000Y75285286D01*
X81601428Y75213858D01*
X81744285Y75142429D01*
X82030000Y75142429D01*
X82172857Y75213858D01*
X82244285Y75285286D01*
X82315714Y75428143D01*
X82315714Y76642429D01*
X84815714Y75213858D02*
X84672857Y75142429D01*
X84387142Y75142429D01*
X84244285Y75213858D01*
X84172857Y75285286D01*
X84101428Y75428143D01*
X84101428Y75856715D01*
X84172857Y75999572D01*
X84244285Y76071000D01*
X84387142Y76142429D01*
X84672857Y76142429D01*
X84815714Y76071000D01*
X85672857Y75142429D02*
X85530000Y75213858D01*
X85458571Y75356715D01*
X85458571Y76642429D01*
X86458571Y75142429D02*
X86315714Y75213858D01*
X86244285Y75285286D01*
X86172857Y75428143D01*
X86172857Y75856715D01*
X86244285Y75999572D01*
X86315714Y76071000D01*
X86458571Y76142429D01*
X86672857Y76142429D01*
X86815714Y76071000D01*
X86887142Y75999572D01*
X86958571Y75856715D01*
X86958571Y75428143D01*
X86887142Y75285286D01*
X86815714Y75213858D01*
X86672857Y75142429D01*
X86458571Y75142429D01*
X87601428Y76142429D02*
X87601428Y75142429D01*
X87601428Y75999572D02*
X87672857Y76071000D01*
X87815714Y76142429D01*
X88030000Y76142429D01*
X88172857Y76071000D01*
X88244285Y75928143D01*
X88244285Y75142429D01*
X89530000Y75213858D02*
X89387142Y75142429D01*
X89101428Y75142429D01*
X88958571Y75213858D01*
X88887142Y75356715D01*
X88887142Y75928143D01*
X88958571Y76071000D01*
X89101428Y76142429D01*
X89387142Y76142429D01*
X89530000Y76071000D01*
X89601428Y75928143D01*
X89601428Y75785286D01*
X88887142Y75642429D01*
X73315714Y74227429D02*
X73601428Y74227429D01*
X73744285Y74156000D01*
X73887142Y74013143D01*
X73958571Y73727429D01*
X73958571Y73227429D01*
X73887142Y72941715D01*
X73744285Y72798858D01*
X73601428Y72727429D01*
X73315714Y72727429D01*
X73172857Y72798858D01*
X73030000Y72941715D01*
X72958571Y73227429D01*
X72958571Y73727429D01*
X73030000Y74013143D01*
X73172857Y74156000D01*
X73315714Y74227429D01*
X74601428Y72727429D02*
X74601428Y73727429D01*
X74601428Y73441715D02*
X74672857Y73584572D01*
X74744285Y73656000D01*
X74887142Y73727429D01*
X75030000Y73727429D01*
X75530000Y72727429D02*
X75530000Y73727429D01*
X75530000Y74227429D02*
X75458571Y74156000D01*
X75530000Y74084572D01*
X75601428Y74156000D01*
X75530000Y74227429D01*
X75530000Y74084572D01*
X76887142Y73727429D02*
X76887142Y72513143D01*
X76815714Y72370286D01*
X76744285Y72298858D01*
X76601428Y72227429D01*
X76387142Y72227429D01*
X76244285Y72298858D01*
X76887142Y72798858D02*
X76744285Y72727429D01*
X76458571Y72727429D01*
X76315714Y72798858D01*
X76244285Y72870286D01*
X76172857Y73013143D01*
X76172857Y73441715D01*
X76244285Y73584572D01*
X76315714Y73656000D01*
X76458571Y73727429D01*
X76744285Y73727429D01*
X76887142Y73656000D01*
X77601428Y72727429D02*
X77601428Y73727429D01*
X77601428Y74227429D02*
X77530000Y74156000D01*
X77601428Y74084572D01*
X77672857Y74156000D01*
X77601428Y74227429D01*
X77601428Y74084572D01*
X78315714Y73727429D02*
X78315714Y72727429D01*
X78315714Y73584572D02*
X78387142Y73656000D01*
X78530000Y73727429D01*
X78744285Y73727429D01*
X78887142Y73656000D01*
X78958571Y73513143D01*
X78958571Y72727429D01*
X80315714Y72727429D02*
X80315714Y73513143D01*
X80244285Y73656000D01*
X80101428Y73727429D01*
X79815714Y73727429D01*
X79672857Y73656000D01*
X80315714Y72798858D02*
X80172857Y72727429D01*
X79815714Y72727429D01*
X79672857Y72798858D01*
X79601428Y72941715D01*
X79601428Y73084572D01*
X79672857Y73227429D01*
X79815714Y73298858D01*
X80172857Y73298858D01*
X80315714Y73370286D01*
X81244285Y72727429D02*
X81101428Y72798858D01*
X81030000Y72941715D01*
X81030000Y74227429D01*
X83601428Y72727429D02*
X83601428Y74227429D01*
X83601428Y72798858D02*
X83458571Y72727429D01*
X83172857Y72727429D01*
X83030000Y72798858D01*
X82958571Y72870286D01*
X82887142Y73013143D01*
X82887142Y73441715D01*
X82958571Y73584572D01*
X83030000Y73656000D01*
X83172857Y73727429D01*
X83458571Y73727429D01*
X83601428Y73656000D01*
X84887142Y72798858D02*
X84744285Y72727429D01*
X84458571Y72727429D01*
X84315714Y72798858D01*
X84244285Y72941715D01*
X84244285Y73513143D01*
X84315714Y73656000D01*
X84458571Y73727429D01*
X84744285Y73727429D01*
X84887142Y73656000D01*
X84958571Y73513143D01*
X84958571Y73370286D01*
X84244285Y73227429D01*
X85530000Y72798858D02*
X85672857Y72727429D01*
X85958571Y72727429D01*
X86101428Y72798858D01*
X86172857Y72941715D01*
X86172857Y73013143D01*
X86101428Y73156000D01*
X85958571Y73227429D01*
X85744285Y73227429D01*
X85601428Y73298858D01*
X85530000Y73441715D01*
X85530000Y73513143D01*
X85601428Y73656000D01*
X85744285Y73727429D01*
X85958571Y73727429D01*
X86101428Y73656000D01*
X86815714Y72727429D02*
X86815714Y73727429D01*
X86815714Y74227429D02*
X86744285Y74156000D01*
X86815714Y74084572D01*
X86887142Y74156000D01*
X86815714Y74227429D01*
X86815714Y74084572D01*
X88172857Y73727429D02*
X88172857Y72513143D01*
X88101428Y72370286D01*
X88030000Y72298858D01*
X87887142Y72227429D01*
X87672857Y72227429D01*
X87530000Y72298858D01*
X88172857Y72798858D02*
X88030000Y72727429D01*
X87744285Y72727429D01*
X87601428Y72798858D01*
X87530000Y72870286D01*
X87458571Y73013143D01*
X87458571Y73441715D01*
X87530000Y73584572D01*
X87601428Y73656000D01*
X87744285Y73727429D01*
X88030000Y73727429D01*
X88172857Y73656000D01*
X88887142Y73727429D02*
X88887142Y72727429D01*
X88887142Y73584572D02*
X88958571Y73656000D01*
X89101428Y73727429D01*
X89315714Y73727429D01*
X89458571Y73656000D01*
X89530000Y73513143D01*
X89530000Y72727429D01*
X76958571Y70312429D02*
X76958571Y71812429D01*
X76958571Y71241000D02*
X77101428Y71312429D01*
X77387142Y71312429D01*
X77530000Y71241000D01*
X77601428Y71169572D01*
X77672857Y71026715D01*
X77672857Y70598143D01*
X77601428Y70455286D01*
X77530000Y70383858D01*
X77387142Y70312429D01*
X77101428Y70312429D01*
X76958571Y70383858D01*
X78172857Y71312429D02*
X78530000Y70312429D01*
X78887142Y71312429D02*
X78530000Y70312429D01*
X78387142Y69955286D01*
X78315714Y69883858D01*
X78172857Y69812429D01*
X81244285Y70312429D02*
X81244285Y71098143D01*
X81172857Y71241000D01*
X81030000Y71312429D01*
X80744285Y71312429D01*
X80601428Y71241000D01*
X81244285Y70383858D02*
X81101428Y70312429D01*
X80744285Y70312429D01*
X80601428Y70383858D01*
X80530000Y70526715D01*
X80530000Y70669572D01*
X80601428Y70812429D01*
X80744285Y70883858D01*
X81101428Y70883858D01*
X81244285Y70955286D01*
X81958571Y70312429D02*
X81958571Y71812429D01*
X81958571Y71241000D02*
X82101428Y71312429D01*
X82387142Y71312429D01*
X82530000Y71241000D01*
X82601428Y71169572D01*
X82672857Y71026715D01*
X82672857Y70598143D01*
X82601428Y70455286D01*
X82530000Y70383858D01*
X82387142Y70312429D01*
X82101428Y70312429D01*
X81958571Y70383858D01*
X83601428Y71812429D02*
X83744285Y71812429D01*
X83887142Y71741000D01*
X83958571Y71669572D01*
X84030000Y71526715D01*
X84101428Y71241000D01*
X84101428Y70883858D01*
X84030000Y70598143D01*
X83958571Y70455286D01*
X83887142Y70383858D01*
X83744285Y70312429D01*
X83601428Y70312429D01*
X83458571Y70383858D01*
X83387142Y70455286D01*
X83315714Y70598143D01*
X83244285Y70883858D01*
X83244285Y71241000D01*
X83315714Y71526715D01*
X83387142Y71669572D01*
X83458571Y71741000D01*
X83601428Y71812429D01*
X84530000Y71312429D02*
X85101428Y71312429D01*
X84744285Y71812429D02*
X84744285Y70526715D01*
X84815714Y70383858D01*
X84958571Y70312429D01*
X85101428Y70312429D01*
X85601428Y71312429D02*
X85601428Y70026715D01*
X85530000Y69883858D01*
X85387142Y69812429D01*
X85315714Y69812429D01*
X85601428Y71812429D02*
X85530000Y71741000D01*
X85601428Y71669572D01*
X85672857Y71741000D01*
X85601428Y71812429D01*
X85601428Y71669572D01*
X75958571Y68179143D02*
X76172857Y68107715D01*
X76244285Y68036286D01*
X76315714Y67893429D01*
X76315714Y67679143D01*
X76244285Y67536286D01*
X76172857Y67464858D01*
X76030000Y67393429D01*
X75458571Y67393429D01*
X75458571Y68893429D01*
X75958571Y68893429D01*
X76101428Y68822000D01*
X76172857Y68750572D01*
X76244285Y68607715D01*
X76244285Y68464858D01*
X76172857Y68322000D01*
X76101428Y68250572D01*
X75958571Y68179143D01*
X75458571Y68179143D01*
X77172857Y67393429D02*
X77030000Y67464858D01*
X76958571Y67536286D01*
X76887142Y67679143D01*
X76887142Y68107715D01*
X76958571Y68250572D01*
X77030000Y68322000D01*
X77172857Y68393429D01*
X77387142Y68393429D01*
X77530000Y68322000D01*
X77601428Y68250572D01*
X77672857Y68107715D01*
X77672857Y67679143D01*
X77601428Y67536286D01*
X77530000Y67464858D01*
X77387142Y67393429D01*
X77172857Y67393429D01*
X78958571Y67393429D02*
X78958571Y68179143D01*
X78887142Y68322000D01*
X78744285Y68393429D01*
X78458571Y68393429D01*
X78315714Y68322000D01*
X78958571Y67464858D02*
X78815714Y67393429D01*
X78458571Y67393429D01*
X78315714Y67464858D01*
X78244285Y67607715D01*
X78244285Y67750572D01*
X78315714Y67893429D01*
X78458571Y67964858D01*
X78815714Y67964858D01*
X78958571Y68036286D01*
X79672857Y67393429D02*
X79672857Y68393429D01*
X79672857Y68107715D02*
X79744285Y68250572D01*
X79815714Y68322000D01*
X79958571Y68393429D01*
X80101428Y68393429D01*
X81244285Y67393429D02*
X81244285Y68893429D01*
X81244285Y67464858D02*
X81101428Y67393429D01*
X80815714Y67393429D01*
X80672857Y67464858D01*
X80601428Y67536286D01*
X80530000Y67679143D01*
X80530000Y68107715D01*
X80601428Y68250572D01*
X80672857Y68322000D01*
X80815714Y68393429D01*
X81101428Y68393429D01*
X81244285Y68322000D01*
X82958571Y68393429D02*
X83315714Y67393429D01*
X83672857Y68393429D01*
X85030000Y67393429D02*
X84172857Y67393429D01*
X84601428Y67393429D02*
X84601428Y68893429D01*
X84458571Y68679143D01*
X84315714Y68536286D01*
X84172857Y68464858D01*
X85672857Y67536286D02*
X85744285Y67464858D01*
X85672857Y67393429D01*
X85601428Y67464858D01*
X85672857Y67536286D01*
X85672857Y67393429D01*
X87172857Y67393429D02*
X86315714Y67393429D01*
X86744285Y67393429D02*
X86744285Y68893429D01*
X86601428Y68679143D01*
X86458571Y68536286D01*
X86315714Y68464858D01*
D10*
X17232380Y17129286D02*
X17232380Y17748334D01*
X17613333Y17415000D01*
X17613333Y17557858D01*
X17660952Y17653096D01*
X17708571Y17700715D01*
X17803809Y17748334D01*
X18041904Y17748334D01*
X18137142Y17700715D01*
X18184761Y17653096D01*
X18232380Y17557858D01*
X18232380Y17272143D01*
X18184761Y17176905D01*
X18137142Y17129286D01*
X17232380Y18081667D02*
X17232380Y18700715D01*
X17613333Y18367381D01*
X17613333Y18510239D01*
X17660952Y18605477D01*
X17708571Y18653096D01*
X17803809Y18700715D01*
X18041904Y18700715D01*
X18137142Y18653096D01*
X18184761Y18605477D01*
X18232380Y18510239D01*
X18232380Y18224524D01*
X18184761Y18129286D01*
X18137142Y18081667D01*
X17232380Y19319762D02*
X17232380Y19415000D01*
X17280000Y19510239D01*
X17327619Y19557858D01*
X17422857Y19605477D01*
X17613333Y19653096D01*
X17851428Y19653096D01*
X18041904Y19605477D01*
X18137142Y19557858D01*
X18184761Y19510239D01*
X18232380Y19415000D01*
X18232380Y19319762D01*
X18184761Y19224524D01*
X18137142Y19176905D01*
X18041904Y19129286D01*
X17851428Y19081667D01*
X17613333Y19081667D01*
X17422857Y19129286D01*
X17327619Y19176905D01*
X17280000Y19224524D01*
X17232380Y19319762D01*
X25209523Y7167620D02*
X25400000Y7167620D01*
X25495238Y7215239D01*
X25542857Y7262858D01*
X25638095Y7405715D01*
X25685714Y7596191D01*
X25685714Y7977143D01*
X25638095Y8072381D01*
X25590476Y8120000D01*
X25495238Y8167620D01*
X25304761Y8167620D01*
X25209523Y8120000D01*
X25161904Y8072381D01*
X25114285Y7977143D01*
X25114285Y7739048D01*
X25161904Y7643810D01*
X25209523Y7596191D01*
X25304761Y7548572D01*
X25495238Y7548572D01*
X25590476Y7596191D01*
X25638095Y7643810D01*
X25685714Y7739048D01*
X86725238Y54046429D02*
X87058571Y54046429D01*
X87201428Y53522620D02*
X86725238Y53522620D01*
X86725238Y54522620D01*
X87201428Y54522620D01*
X87534761Y53522620D02*
X88058571Y54189286D01*
X87534761Y54189286D02*
X88058571Y53522620D01*
X88296666Y54189286D02*
X88677619Y54189286D01*
X88439523Y54522620D02*
X88439523Y53665477D01*
X88487142Y53570239D01*
X88582380Y53522620D01*
X88677619Y53522620D01*
X11493809Y42992858D02*
X11446190Y42945239D01*
X11303333Y42897620D01*
X11208095Y42897620D01*
X11065238Y42945239D01*
X10970000Y43040477D01*
X10922380Y43135715D01*
X10874761Y43326191D01*
X10874761Y43469048D01*
X10922380Y43659524D01*
X10970000Y43754762D01*
X11065238Y43850000D01*
X11208095Y43897620D01*
X11303333Y43897620D01*
X11446190Y43850000D01*
X11493809Y43802381D01*
X12446190Y42897620D02*
X11874761Y42897620D01*
X12160476Y42897620D02*
X12160476Y43897620D01*
X12065238Y43754762D01*
X11970000Y43659524D01*
X11874761Y43611905D01*
X12874761Y43278572D02*
X13636666Y43278572D01*
X14684285Y42992858D02*
X14636666Y42945239D01*
X14493809Y42897620D01*
X14398571Y42897620D01*
X14255714Y42945239D01*
X14160476Y43040477D01*
X14112857Y43135715D01*
X14065238Y43326191D01*
X14065238Y43469048D01*
X14112857Y43659524D01*
X14160476Y43754762D01*
X14255714Y43850000D01*
X14398571Y43897620D01*
X14493809Y43897620D01*
X14636666Y43850000D01*
X14684285Y43802381D01*
X15636666Y42897620D02*
X15065238Y42897620D01*
X15350952Y42897620D02*
X15350952Y43897620D01*
X15255714Y43754762D01*
X15160476Y43659524D01*
X15065238Y43611905D01*
X16255714Y43897620D02*
X16350952Y43897620D01*
X16446190Y43850000D01*
X16493809Y43802381D01*
X16541428Y43707143D01*
X16589047Y43516667D01*
X16589047Y43278572D01*
X16541428Y43088096D01*
X16493809Y42992858D01*
X16446190Y42945239D01*
X16350952Y42897620D01*
X16255714Y42897620D01*
X16160476Y42945239D01*
X16112857Y42992858D01*
X16065238Y43088096D01*
X16017619Y43278572D01*
X16017619Y43516667D01*
X16065238Y43707143D01*
X16112857Y43802381D01*
X16160476Y43850000D01*
X16255714Y43897620D01*
X17017619Y42992858D02*
X17065238Y42945239D01*
X17017619Y42897620D01*
X16970000Y42945239D01*
X17017619Y42992858D01*
X17017619Y42897620D01*
X17017619Y43516667D02*
X17065238Y43469048D01*
X17017619Y43421429D01*
X16970000Y43469048D01*
X17017619Y43516667D01*
X17017619Y43421429D01*
X12327142Y42287620D02*
X12422380Y42287620D01*
X12517619Y42240000D01*
X12565238Y42192381D01*
X12612857Y42097143D01*
X12660476Y41906667D01*
X12660476Y41668572D01*
X12612857Y41478096D01*
X12565238Y41382858D01*
X12517619Y41335239D01*
X12422380Y41287620D01*
X12327142Y41287620D01*
X12231904Y41335239D01*
X12184285Y41382858D01*
X12136666Y41478096D01*
X12089047Y41668572D01*
X12089047Y41906667D01*
X12136666Y42097143D01*
X12184285Y42192381D01*
X12231904Y42240000D01*
X12327142Y42287620D01*
X13089047Y41382858D02*
X13136666Y41335239D01*
X13089047Y41287620D01*
X13041428Y41335239D01*
X13089047Y41382858D01*
X13089047Y41287620D01*
X14089047Y41287620D02*
X13517619Y41287620D01*
X13803333Y41287620D02*
X13803333Y42287620D01*
X13708095Y42144762D01*
X13612857Y42049524D01*
X13517619Y42001905D01*
X14946190Y41954286D02*
X14946190Y41287620D01*
X14517619Y41954286D02*
X14517619Y41430477D01*
X14565238Y41335239D01*
X14660476Y41287620D01*
X14803333Y41287620D01*
X14898571Y41335239D01*
X14946190Y41382858D01*
X15755714Y41811429D02*
X15422380Y41811429D01*
X15422380Y41287620D02*
X15422380Y42287620D01*
X15898571Y42287620D01*
X25638095Y15787620D02*
X25161904Y15787620D01*
X25114285Y15311429D01*
X25161904Y15359048D01*
X25257142Y15406667D01*
X25495238Y15406667D01*
X25590476Y15359048D01*
X25638095Y15311429D01*
X25685714Y15216191D01*
X25685714Y14978096D01*
X25638095Y14882858D01*
X25590476Y14835239D01*
X25495238Y14787620D01*
X25257142Y14787620D01*
X25161904Y14835239D01*
X25114285Y14882858D01*
X9612380Y17129286D02*
X9612380Y17748334D01*
X9993333Y17415000D01*
X9993333Y17557858D01*
X10040952Y17653096D01*
X10088571Y17700715D01*
X10183809Y17748334D01*
X10421904Y17748334D01*
X10517142Y17700715D01*
X10564761Y17653096D01*
X10612380Y17557858D01*
X10612380Y17272143D01*
X10564761Y17176905D01*
X10517142Y17129286D01*
X9612380Y18367381D02*
X9612380Y18462620D01*
X9660000Y18557858D01*
X9707619Y18605477D01*
X9802857Y18653096D01*
X9993333Y18700715D01*
X10231428Y18700715D01*
X10421904Y18653096D01*
X10517142Y18605477D01*
X10564761Y18557858D01*
X10612380Y18462620D01*
X10612380Y18367381D01*
X10564761Y18272143D01*
X10517142Y18224524D01*
X10421904Y18176905D01*
X10231428Y18129286D01*
X9993333Y18129286D01*
X9802857Y18176905D01*
X9707619Y18224524D01*
X9660000Y18272143D01*
X9612380Y18367381D01*
X9612380Y19319762D02*
X9612380Y19415000D01*
X9660000Y19510239D01*
X9707619Y19557858D01*
X9802857Y19605477D01*
X9993333Y19653096D01*
X10231428Y19653096D01*
X10421904Y19605477D01*
X10517142Y19557858D01*
X10564761Y19510239D01*
X10612380Y19415000D01*
X10612380Y19319762D01*
X10564761Y19224524D01*
X10517142Y19176905D01*
X10421904Y19129286D01*
X10231428Y19081667D01*
X9993333Y19081667D01*
X9802857Y19129286D01*
X9707619Y19176905D01*
X9660000Y19224524D01*
X9612380Y19319762D01*
X24439523Y71048620D02*
X23963333Y71048620D01*
X23963333Y72048620D01*
X12152380Y17129286D02*
X12152380Y17748334D01*
X12533333Y17415000D01*
X12533333Y17557858D01*
X12580952Y17653096D01*
X12628571Y17700715D01*
X12723809Y17748334D01*
X12961904Y17748334D01*
X13057142Y17700715D01*
X13104761Y17653096D01*
X13152380Y17557858D01*
X13152380Y17272143D01*
X13104761Y17176905D01*
X13057142Y17129286D01*
X13152380Y18700715D02*
X13152380Y18129286D01*
X13152380Y18415000D02*
X12152380Y18415000D01*
X12295238Y18319762D01*
X12390476Y18224524D01*
X12438095Y18129286D01*
X12152380Y19319762D02*
X12152380Y19415000D01*
X12200000Y19510239D01*
X12247619Y19557858D01*
X12342857Y19605477D01*
X12533333Y19653096D01*
X12771428Y19653096D01*
X12961904Y19605477D01*
X13057142Y19557858D01*
X13104761Y19510239D01*
X13152380Y19415000D01*
X13152380Y19319762D01*
X13104761Y19224524D01*
X13057142Y19176905D01*
X12961904Y19129286D01*
X12771428Y19081667D01*
X12533333Y19081667D01*
X12342857Y19129286D01*
X12247619Y19176905D01*
X12200000Y19224524D01*
X12152380Y19319762D01*
X86891904Y57332620D02*
X86891904Y58332620D01*
X87368095Y57999286D02*
X87368095Y57332620D01*
X87368095Y57904048D02*
X87415714Y57951667D01*
X87510952Y57999286D01*
X87653809Y57999286D01*
X87749047Y57951667D01*
X87796666Y57856429D01*
X87796666Y57332620D01*
X88130000Y57999286D02*
X88510952Y57999286D01*
X88272857Y58332620D02*
X88272857Y57475477D01*
X88320476Y57380239D01*
X88415714Y57332620D01*
X88510952Y57332620D01*
X25066666Y10707620D02*
X25733333Y10707620D01*
X25304761Y9707620D01*
X29471904Y72001000D02*
X29376666Y72048620D01*
X29233809Y72048620D01*
X29090952Y72001000D01*
X28995714Y71905762D01*
X28948095Y71810524D01*
X28900476Y71620048D01*
X28900476Y71477191D01*
X28948095Y71286715D01*
X28995714Y71191477D01*
X29090952Y71096239D01*
X29233809Y71048620D01*
X29329047Y71048620D01*
X29471904Y71096239D01*
X29519523Y71143858D01*
X29519523Y71477191D01*
X29329047Y71477191D01*
X15065952Y51347620D02*
X15065952Y50633334D01*
X15018333Y50490477D01*
X14923095Y50395239D01*
X14780238Y50347620D01*
X14685000Y50347620D01*
X16018333Y50347620D02*
X15542142Y50347620D01*
X15542142Y51347620D01*
X16923095Y50442858D02*
X16875476Y50395239D01*
X16732619Y50347620D01*
X16637380Y50347620D01*
X16494523Y50395239D01*
X16399285Y50490477D01*
X16351666Y50585715D01*
X16304047Y50776191D01*
X16304047Y50919048D01*
X16351666Y51109524D01*
X16399285Y51204762D01*
X16494523Y51300000D01*
X16637380Y51347620D01*
X16732619Y51347620D01*
X16875476Y51300000D01*
X16923095Y51252381D01*
X17637380Y51347620D02*
X17637380Y50633334D01*
X17589761Y50490477D01*
X17494523Y50395239D01*
X17351666Y50347620D01*
X17256428Y50347620D01*
X18589761Y50347620D02*
X18113571Y50347620D01*
X18113571Y51347620D01*
X19494523Y50442858D02*
X19446904Y50395239D01*
X19304047Y50347620D01*
X19208809Y50347620D01*
X19065952Y50395239D01*
X18970714Y50490477D01*
X18923095Y50585715D01*
X18875476Y50776191D01*
X18875476Y50919048D01*
X18923095Y51109524D01*
X18970714Y51204762D01*
X19065952Y51300000D01*
X19208809Y51347620D01*
X19304047Y51347620D01*
X19446904Y51300000D01*
X19494523Y51252381D01*
X20208809Y51347620D02*
X20208809Y50633334D01*
X20161190Y50490477D01*
X20065952Y50395239D01*
X19923095Y50347620D01*
X19827857Y50347620D01*
X21161190Y50347620D02*
X20685000Y50347620D01*
X20685000Y51347620D01*
X22065952Y50442858D02*
X22018333Y50395239D01*
X21875476Y50347620D01*
X21780238Y50347620D01*
X21637380Y50395239D01*
X21542142Y50490477D01*
X21494523Y50585715D01*
X21446904Y50776191D01*
X21446904Y50919048D01*
X21494523Y51109524D01*
X21542142Y51204762D01*
X21637380Y51300000D01*
X21780238Y51347620D01*
X21875476Y51347620D01*
X22018333Y51300000D01*
X22065952Y51252381D01*
X22780238Y51347620D02*
X22780238Y50633334D01*
X22732619Y50490477D01*
X22637380Y50395239D01*
X22494523Y50347620D01*
X22399285Y50347620D01*
X23732619Y50347620D02*
X23256428Y50347620D01*
X23256428Y51347620D01*
X24637380Y50442858D02*
X24589761Y50395239D01*
X24446904Y50347620D01*
X24351666Y50347620D01*
X24208809Y50395239D01*
X24113571Y50490477D01*
X24065952Y50585715D01*
X24018333Y50776191D01*
X24018333Y50919048D01*
X24065952Y51109524D01*
X24113571Y51204762D01*
X24208809Y51300000D01*
X24351666Y51347620D01*
X24446904Y51347620D01*
X24589761Y51300000D01*
X24637380Y51252381D01*
X14692380Y17129286D02*
X14692380Y17748334D01*
X15073333Y17415000D01*
X15073333Y17557858D01*
X15120952Y17653096D01*
X15168571Y17700715D01*
X15263809Y17748334D01*
X15501904Y17748334D01*
X15597142Y17700715D01*
X15644761Y17653096D01*
X15692380Y17557858D01*
X15692380Y17272143D01*
X15644761Y17176905D01*
X15597142Y17129286D01*
X14787619Y18129286D02*
X14740000Y18176905D01*
X14692380Y18272143D01*
X14692380Y18510239D01*
X14740000Y18605477D01*
X14787619Y18653096D01*
X14882857Y18700715D01*
X14978095Y18700715D01*
X15120952Y18653096D01*
X15692380Y18081667D01*
X15692380Y18700715D01*
X14692380Y19319762D02*
X14692380Y19415000D01*
X14740000Y19510239D01*
X14787619Y19557858D01*
X14882857Y19605477D01*
X15073333Y19653096D01*
X15311428Y19653096D01*
X15501904Y19605477D01*
X15597142Y19557858D01*
X15644761Y19510239D01*
X15692380Y19415000D01*
X15692380Y19319762D01*
X15644761Y19224524D01*
X15597142Y19176905D01*
X15501904Y19129286D01*
X15311428Y19081667D01*
X15073333Y19081667D01*
X14882857Y19129286D01*
X14787619Y19176905D01*
X14740000Y19224524D01*
X14692380Y19319762D01*
X25066666Y20867620D02*
X25685714Y20867620D01*
X25352380Y20486667D01*
X25495238Y20486667D01*
X25590476Y20439048D01*
X25638095Y20391429D01*
X25685714Y20296191D01*
X25685714Y20058096D01*
X25638095Y19962858D01*
X25590476Y19915239D01*
X25495238Y19867620D01*
X25209523Y19867620D01*
X25114285Y19915239D01*
X25066666Y19962858D01*
X26931904Y72001000D02*
X26836666Y72048620D01*
X26693809Y72048620D01*
X26550952Y72001000D01*
X26455714Y71905762D01*
X26408095Y71810524D01*
X26360476Y71620048D01*
X26360476Y71477191D01*
X26408095Y71286715D01*
X26455714Y71191477D01*
X26550952Y71096239D01*
X26693809Y71048620D01*
X26789047Y71048620D01*
X26931904Y71096239D01*
X26979523Y71143858D01*
X26979523Y71477191D01*
X26789047Y71477191D01*
X32059523Y71048620D02*
X31726190Y71524810D01*
X31488095Y71048620D02*
X31488095Y72048620D01*
X31869047Y72048620D01*
X31964285Y72001000D01*
X32011904Y71953381D01*
X32059523Y71858143D01*
X32059523Y71715286D01*
X32011904Y71620048D01*
X31964285Y71572429D01*
X31869047Y71524810D01*
X31488095Y71524810D01*
X25590476Y13247620D02*
X25400000Y13247620D01*
X25304761Y13200000D01*
X25257142Y13152381D01*
X25161904Y13009524D01*
X25114285Y12819048D01*
X25114285Y12438096D01*
X25161904Y12342858D01*
X25209523Y12295239D01*
X25304761Y12247620D01*
X25495238Y12247620D01*
X25590476Y12295239D01*
X25638095Y12342858D01*
X25685714Y12438096D01*
X25685714Y12676191D01*
X25638095Y12771429D01*
X25590476Y12819048D01*
X25495238Y12866667D01*
X25304761Y12866667D01*
X25209523Y12819048D01*
X25161904Y12771429D01*
X25114285Y12676191D01*
X25590476Y17994286D02*
X25590476Y17327620D01*
X25352380Y18375239D02*
X25114285Y17660953D01*
X25733333Y17660953D01*
%TO.C,JP2*%
X28376666Y5881620D02*
X28376666Y5167334D01*
X28329047Y5024477D01*
X28233809Y4929239D01*
X28090952Y4881620D01*
X27995714Y4881620D01*
X28852857Y4881620D02*
X28852857Y5881620D01*
X29233809Y5881620D01*
X29329047Y5834000D01*
X29376666Y5786381D01*
X29424285Y5691143D01*
X29424285Y5548286D01*
X29376666Y5453048D01*
X29329047Y5405429D01*
X29233809Y5357810D01*
X28852857Y5357810D01*
X29805238Y5786381D02*
X29852857Y5834000D01*
X29948095Y5881620D01*
X30186190Y5881620D01*
X30281428Y5834000D01*
X30329047Y5786381D01*
X30376666Y5691143D01*
X30376666Y5595905D01*
X30329047Y5453048D01*
X29757619Y4881620D01*
X30376666Y4881620D01*
D13*
X27674285Y22435429D02*
X27674285Y23935429D01*
X29245714Y22435429D02*
X28745714Y23149715D01*
X28388571Y22435429D02*
X28388571Y23935429D01*
X28960000Y23935429D01*
X29102857Y23864000D01*
X29174285Y23792572D01*
X29245714Y23649715D01*
X29245714Y23435429D01*
X29174285Y23292572D01*
X29102857Y23221143D01*
X28960000Y23149715D01*
X28388571Y23149715D01*
X30888571Y22292572D02*
X30745714Y22364000D01*
X30602857Y22506858D01*
X30388571Y22721143D01*
X30245714Y22792572D01*
X30102857Y22792572D01*
X30174285Y22435429D02*
X30031428Y22506858D01*
X29888571Y22649715D01*
X29817142Y22935429D01*
X29817142Y23435429D01*
X29888571Y23721143D01*
X30031428Y23864000D01*
X30174285Y23935429D01*
X30460000Y23935429D01*
X30602857Y23864000D01*
X30745714Y23721143D01*
X30817142Y23435429D01*
X30817142Y22935429D01*
X30745714Y22649715D01*
X30602857Y22506858D01*
X30460000Y22435429D01*
X30174285Y22435429D01*
D10*
%TO.C,C6*%
X57003333Y39647858D02*
X56955714Y39600239D01*
X56812857Y39552620D01*
X56717619Y39552620D01*
X56574761Y39600239D01*
X56479523Y39695477D01*
X56431904Y39790715D01*
X56384285Y39981191D01*
X56384285Y40124048D01*
X56431904Y40314524D01*
X56479523Y40409762D01*
X56574761Y40505000D01*
X56717619Y40552620D01*
X56812857Y40552620D01*
X56955714Y40505000D01*
X57003333Y40457381D01*
X57860476Y40552620D02*
X57670000Y40552620D01*
X57574761Y40505000D01*
X57527142Y40457381D01*
X57431904Y40314524D01*
X57384285Y40124048D01*
X57384285Y39743096D01*
X57431904Y39647858D01*
X57479523Y39600239D01*
X57574761Y39552620D01*
X57765238Y39552620D01*
X57860476Y39600239D01*
X57908095Y39647858D01*
X57955714Y39743096D01*
X57955714Y39981191D01*
X57908095Y40076429D01*
X57860476Y40124048D01*
X57765238Y40171667D01*
X57574761Y40171667D01*
X57479523Y40124048D01*
X57431904Y40076429D01*
X57384285Y39981191D01*
%TO.C,C5*%
X56983333Y28217858D02*
X56935714Y28170239D01*
X56792857Y28122620D01*
X56697619Y28122620D01*
X56554761Y28170239D01*
X56459523Y28265477D01*
X56411904Y28360715D01*
X56364285Y28551191D01*
X56364285Y28694048D01*
X56411904Y28884524D01*
X56459523Y28979762D01*
X56554761Y29075000D01*
X56697619Y29122620D01*
X56792857Y29122620D01*
X56935714Y29075000D01*
X56983333Y29027381D01*
X57888095Y29122620D02*
X57411904Y29122620D01*
X57364285Y28646429D01*
X57411904Y28694048D01*
X57507142Y28741667D01*
X57745238Y28741667D01*
X57840476Y28694048D01*
X57888095Y28646429D01*
X57935714Y28551191D01*
X57935714Y28313096D01*
X57888095Y28217858D01*
X57840476Y28170239D01*
X57745238Y28122620D01*
X57507142Y28122620D01*
X57411904Y28170239D01*
X57364285Y28217858D01*
%TO.C,C3*%
X31603333Y28217858D02*
X31555714Y28170239D01*
X31412857Y28122620D01*
X31317619Y28122620D01*
X31174761Y28170239D01*
X31079523Y28265477D01*
X31031904Y28360715D01*
X30984285Y28551191D01*
X30984285Y28694048D01*
X31031904Y28884524D01*
X31079523Y28979762D01*
X31174761Y29075000D01*
X31317619Y29122620D01*
X31412857Y29122620D01*
X31555714Y29075000D01*
X31603333Y29027381D01*
X31936666Y29122620D02*
X32555714Y29122620D01*
X32222380Y28741667D01*
X32365238Y28741667D01*
X32460476Y28694048D01*
X32508095Y28646429D01*
X32555714Y28551191D01*
X32555714Y28313096D01*
X32508095Y28217858D01*
X32460476Y28170239D01*
X32365238Y28122620D01*
X32079523Y28122620D01*
X31984285Y28170239D01*
X31936666Y28217858D01*
%TO.C,U6*%
X58082380Y33528096D02*
X58891904Y33528096D01*
X58987142Y33575715D01*
X59034761Y33623334D01*
X59082380Y33718572D01*
X59082380Y33909048D01*
X59034761Y34004286D01*
X58987142Y34051905D01*
X58891904Y34099524D01*
X58082380Y34099524D01*
X58082380Y35004286D02*
X58082380Y34813810D01*
X58130000Y34718572D01*
X58177619Y34670953D01*
X58320476Y34575715D01*
X58510952Y34528096D01*
X58891904Y34528096D01*
X58987142Y34575715D01*
X59034761Y34623334D01*
X59082380Y34718572D01*
X59082380Y34909048D01*
X59034761Y35004286D01*
X58987142Y35051905D01*
X58891904Y35099524D01*
X58653809Y35099524D01*
X58558571Y35051905D01*
X58510952Y35004286D01*
X58463333Y34909048D01*
X58463333Y34718572D01*
X58510952Y34623334D01*
X58558571Y34575715D01*
X58653809Y34528096D01*
X68747142Y34837620D02*
X69413809Y34837620D01*
X68985238Y33837620D01*
X70223333Y34504286D02*
X70223333Y33837620D01*
X69985238Y34885239D02*
X69747142Y34170953D01*
X70366190Y34170953D01*
X70747142Y33837620D02*
X70747142Y34837620D01*
X70747142Y34361429D02*
X71318571Y34361429D01*
X71318571Y33837620D02*
X71318571Y34837620D01*
X72366190Y33932858D02*
X72318571Y33885239D01*
X72175714Y33837620D01*
X72080476Y33837620D01*
X71937619Y33885239D01*
X71842380Y33980477D01*
X71794761Y34075715D01*
X71747142Y34266191D01*
X71747142Y34409048D01*
X71794761Y34599524D01*
X71842380Y34694762D01*
X71937619Y34790000D01*
X72080476Y34837620D01*
X72175714Y34837620D01*
X72318571Y34790000D01*
X72366190Y34742381D01*
X72651904Y34837620D02*
X73223333Y34837620D01*
X72937619Y33837620D02*
X72937619Y34837620D01*
X73509047Y34742381D02*
X73556666Y34790000D01*
X73651904Y34837620D01*
X73890000Y34837620D01*
X73985238Y34790000D01*
X74032857Y34742381D01*
X74080476Y34647143D01*
X74080476Y34551905D01*
X74032857Y34409048D01*
X73461428Y33837620D01*
X74080476Y33837620D01*
X74937619Y34504286D02*
X74937619Y33837620D01*
X74699523Y34885239D02*
X74461428Y34170953D01*
X75080476Y34170953D01*
X75651904Y34837620D02*
X75747142Y34837620D01*
X75842380Y34790000D01*
X75890000Y34742381D01*
X75937619Y34647143D01*
X75985238Y34456667D01*
X75985238Y34218572D01*
X75937619Y34028096D01*
X75890000Y33932858D01*
X75842380Y33885239D01*
X75747142Y33837620D01*
X75651904Y33837620D01*
X75556666Y33885239D01*
X75509047Y33932858D01*
X75461428Y34028096D01*
X75413809Y34218572D01*
X75413809Y34456667D01*
X75461428Y34647143D01*
X75509047Y34742381D01*
X75556666Y34790000D01*
X75651904Y34837620D01*
%TO.C,J2*%
X96821666Y64047620D02*
X96821666Y63333334D01*
X96774047Y63190477D01*
X96678809Y63095239D01*
X96535952Y63047620D01*
X96440714Y63047620D01*
X97250238Y63952381D02*
X97297857Y64000000D01*
X97393095Y64047620D01*
X97631190Y64047620D01*
X97726428Y64000000D01*
X97774047Y63952381D01*
X97821666Y63857143D01*
X97821666Y63761905D01*
X97774047Y63619048D01*
X97202619Y63047620D01*
X97821666Y63047620D01*
X99663428Y64047620D02*
X99663428Y63238096D01*
X99711047Y63142858D01*
X99758666Y63095239D01*
X99853904Y63047620D01*
X100044380Y63047620D01*
X100139619Y63095239D01*
X100187238Y63142858D01*
X100234857Y63238096D01*
X100234857Y64047620D01*
X100663428Y63095239D02*
X100758666Y63047620D01*
X100949142Y63047620D01*
X101044380Y63095239D01*
X101092000Y63190477D01*
X101092000Y63238096D01*
X101044380Y63333334D01*
X100949142Y63380953D01*
X100806285Y63380953D01*
X100711047Y63428572D01*
X100663428Y63523810D01*
X100663428Y63571429D01*
X100711047Y63666667D01*
X100806285Y63714286D01*
X100949142Y63714286D01*
X101044380Y63666667D01*
X101901523Y63095239D02*
X101806285Y63047620D01*
X101615809Y63047620D01*
X101520571Y63095239D01*
X101472952Y63190477D01*
X101472952Y63571429D01*
X101520571Y63666667D01*
X101615809Y63714286D01*
X101806285Y63714286D01*
X101901523Y63666667D01*
X101949142Y63571429D01*
X101949142Y63476191D01*
X101472952Y63380953D01*
X102377714Y63047620D02*
X102377714Y63714286D01*
X102377714Y63523810D02*
X102425333Y63619048D01*
X102472952Y63666667D01*
X102568190Y63714286D01*
X102663428Y63714286D01*
%TO.C,U8*%
X33952380Y33528096D02*
X34761904Y33528096D01*
X34857142Y33575715D01*
X34904761Y33623334D01*
X34952380Y33718572D01*
X34952380Y33909048D01*
X34904761Y34004286D01*
X34857142Y34051905D01*
X34761904Y34099524D01*
X33952380Y34099524D01*
X34380952Y34718572D02*
X34333333Y34623334D01*
X34285714Y34575715D01*
X34190476Y34528096D01*
X34142857Y34528096D01*
X34047619Y34575715D01*
X34000000Y34623334D01*
X33952380Y34718572D01*
X33952380Y34909048D01*
X34000000Y35004286D01*
X34047619Y35051905D01*
X34142857Y35099524D01*
X34190476Y35099524D01*
X34285714Y35051905D01*
X34333333Y35004286D01*
X34380952Y34909048D01*
X34380952Y34718572D01*
X34428571Y34623334D01*
X34476190Y34575715D01*
X34571428Y34528096D01*
X34761904Y34528096D01*
X34857142Y34575715D01*
X34904761Y34623334D01*
X34952380Y34718572D01*
X34952380Y34909048D01*
X34904761Y35004286D01*
X34857142Y35051905D01*
X34761904Y35099524D01*
X34571428Y35099524D01*
X34476190Y35051905D01*
X34428571Y35004286D01*
X34380952Y34909048D01*
X41283333Y34837620D02*
X41950000Y34837620D01*
X41521428Y33837620D01*
X42759523Y34504286D02*
X42759523Y33837620D01*
X42521428Y34885239D02*
X42283333Y34170953D01*
X42902380Y34170953D01*
X43283333Y33837620D02*
X43283333Y34837620D01*
X43283333Y34361429D02*
X43854761Y34361429D01*
X43854761Y33837620D02*
X43854761Y34837620D01*
X44902380Y33932858D02*
X44854761Y33885239D01*
X44711904Y33837620D01*
X44616666Y33837620D01*
X44473809Y33885239D01*
X44378571Y33980477D01*
X44330952Y34075715D01*
X44283333Y34266191D01*
X44283333Y34409048D01*
X44330952Y34599524D01*
X44378571Y34694762D01*
X44473809Y34790000D01*
X44616666Y34837620D01*
X44711904Y34837620D01*
X44854761Y34790000D01*
X44902380Y34742381D01*
X45188095Y34837620D02*
X45759523Y34837620D01*
X45473809Y33837620D02*
X45473809Y34837620D01*
X45997619Y34837620D02*
X46664285Y34837620D01*
X46235714Y33837620D01*
X47473809Y34504286D02*
X47473809Y33837620D01*
X47235714Y34885239D02*
X46997619Y34170953D01*
X47616666Y34170953D01*
%TO.C,U5*%
X58082380Y22098096D02*
X58891904Y22098096D01*
X58987142Y22145715D01*
X59034761Y22193334D01*
X59082380Y22288572D01*
X59082380Y22479048D01*
X59034761Y22574286D01*
X58987142Y22621905D01*
X58891904Y22669524D01*
X58082380Y22669524D01*
X58082380Y23621905D02*
X58082380Y23145715D01*
X58558571Y23098096D01*
X58510952Y23145715D01*
X58463333Y23240953D01*
X58463333Y23479048D01*
X58510952Y23574286D01*
X58558571Y23621905D01*
X58653809Y23669524D01*
X58891904Y23669524D01*
X58987142Y23621905D01*
X59034761Y23574286D01*
X59082380Y23479048D01*
X59082380Y23240953D01*
X59034761Y23145715D01*
X58987142Y23098096D01*
X68747142Y23407620D02*
X69413809Y23407620D01*
X68985238Y22407620D01*
X70223333Y23074286D02*
X70223333Y22407620D01*
X69985238Y23455239D02*
X69747142Y22740953D01*
X70366190Y22740953D01*
X70747142Y22407620D02*
X70747142Y23407620D01*
X70747142Y22931429D02*
X71318571Y22931429D01*
X71318571Y22407620D02*
X71318571Y23407620D01*
X72366190Y22502858D02*
X72318571Y22455239D01*
X72175714Y22407620D01*
X72080476Y22407620D01*
X71937619Y22455239D01*
X71842380Y22550477D01*
X71794761Y22645715D01*
X71747142Y22836191D01*
X71747142Y22979048D01*
X71794761Y23169524D01*
X71842380Y23264762D01*
X71937619Y23360000D01*
X72080476Y23407620D01*
X72175714Y23407620D01*
X72318571Y23360000D01*
X72366190Y23312381D01*
X72651904Y23407620D02*
X73223333Y23407620D01*
X72937619Y22407620D02*
X72937619Y23407620D01*
X74032857Y23407620D02*
X73556666Y23407620D01*
X73509047Y22931429D01*
X73556666Y22979048D01*
X73651904Y23026667D01*
X73890000Y23026667D01*
X73985238Y22979048D01*
X74032857Y22931429D01*
X74080476Y22836191D01*
X74080476Y22598096D01*
X74032857Y22502858D01*
X73985238Y22455239D01*
X73890000Y22407620D01*
X73651904Y22407620D01*
X73556666Y22455239D01*
X73509047Y22502858D01*
X74413809Y23407620D02*
X75080476Y23407620D01*
X74651904Y22407620D01*
X75890000Y23074286D02*
X75890000Y22407620D01*
X75651904Y23455239D02*
X75413809Y22740953D01*
X76032857Y22740953D01*
%TO.C,U9*%
X12362380Y55118096D02*
X13171904Y55118096D01*
X13267142Y55165715D01*
X13314761Y55213334D01*
X13362380Y55308572D01*
X13362380Y55499048D01*
X13314761Y55594286D01*
X13267142Y55641905D01*
X13171904Y55689524D01*
X12362380Y55689524D01*
X13362380Y56213334D02*
X13362380Y56403810D01*
X13314761Y56499048D01*
X13267142Y56546667D01*
X13124285Y56641905D01*
X12933809Y56689524D01*
X12552857Y56689524D01*
X12457619Y56641905D01*
X12410000Y56594286D01*
X12362380Y56499048D01*
X12362380Y56308572D01*
X12410000Y56213334D01*
X12457619Y56165715D01*
X12552857Y56118096D01*
X12790952Y56118096D01*
X12886190Y56165715D01*
X12933809Y56213334D01*
X12981428Y56308572D01*
X12981428Y56499048D01*
X12933809Y56594286D01*
X12886190Y56641905D01*
X12790952Y56689524D01*
%TO.C,C1*%
X32853333Y16787858D02*
X32805714Y16740239D01*
X32662857Y16692620D01*
X32567619Y16692620D01*
X32424761Y16740239D01*
X32329523Y16835477D01*
X32281904Y16930715D01*
X32234285Y17121191D01*
X32234285Y17264048D01*
X32281904Y17454524D01*
X32329523Y17549762D01*
X32424761Y17645000D01*
X32567619Y17692620D01*
X32662857Y17692620D01*
X32805714Y17645000D01*
X32853333Y17597381D01*
X33805714Y16692620D02*
X33234285Y16692620D01*
X33520000Y16692620D02*
X33520000Y17692620D01*
X33424761Y17549762D01*
X33329523Y17454524D01*
X33234285Y17406905D01*
%TO.C,U2*%
X2202380Y10668096D02*
X3011904Y10668096D01*
X3107142Y10715715D01*
X3154761Y10763334D01*
X3202380Y10858572D01*
X3202380Y11049048D01*
X3154761Y11144286D01*
X3107142Y11191905D01*
X3011904Y11239524D01*
X2202380Y11239524D01*
X2297619Y11668096D02*
X2250000Y11715715D01*
X2202380Y11810953D01*
X2202380Y12049048D01*
X2250000Y12144286D01*
X2297619Y12191905D01*
X2392857Y12239524D01*
X2488095Y12239524D01*
X2630952Y12191905D01*
X3202380Y11620477D01*
X3202380Y12239524D01*
X10327142Y11977620D02*
X10993809Y11977620D01*
X10565238Y10977620D01*
X11803333Y11644286D02*
X11803333Y10977620D01*
X11565238Y12025239D02*
X11327142Y11310953D01*
X11946190Y11310953D01*
X12327142Y10977620D02*
X12327142Y11977620D01*
X12327142Y11501429D02*
X12898571Y11501429D01*
X12898571Y10977620D02*
X12898571Y11977620D01*
X13946190Y11072858D02*
X13898571Y11025239D01*
X13755714Y10977620D01*
X13660476Y10977620D01*
X13517619Y11025239D01*
X13422380Y11120477D01*
X13374761Y11215715D01*
X13327142Y11406191D01*
X13327142Y11549048D01*
X13374761Y11739524D01*
X13422380Y11834762D01*
X13517619Y11930000D01*
X13660476Y11977620D01*
X13755714Y11977620D01*
X13898571Y11930000D01*
X13946190Y11882381D01*
X14231904Y11977620D02*
X14803333Y11977620D01*
X14517619Y10977620D02*
X14517619Y11977620D01*
X15660476Y10977620D02*
X15089047Y10977620D01*
X15374761Y10977620D02*
X15374761Y11977620D01*
X15279523Y11834762D01*
X15184285Y11739524D01*
X15089047Y11691905D01*
X15993809Y11977620D02*
X16612857Y11977620D01*
X16279523Y11596667D01*
X16422380Y11596667D01*
X16517619Y11549048D01*
X16565238Y11501429D01*
X16612857Y11406191D01*
X16612857Y11168096D01*
X16565238Y11072858D01*
X16517619Y11025239D01*
X16422380Y10977620D01*
X16136666Y10977620D01*
X16041428Y11025239D01*
X15993809Y11072858D01*
X17184285Y11549048D02*
X17089047Y11596667D01*
X17041428Y11644286D01*
X16993809Y11739524D01*
X16993809Y11787143D01*
X17041428Y11882381D01*
X17089047Y11930000D01*
X17184285Y11977620D01*
X17374761Y11977620D01*
X17470000Y11930000D01*
X17517619Y11882381D01*
X17565238Y11787143D01*
X17565238Y11739524D01*
X17517619Y11644286D01*
X17470000Y11596667D01*
X17374761Y11549048D01*
X17184285Y11549048D01*
X17089047Y11501429D01*
X17041428Y11453810D01*
X16993809Y11358572D01*
X16993809Y11168096D01*
X17041428Y11072858D01*
X17089047Y11025239D01*
X17184285Y10977620D01*
X17374761Y10977620D01*
X17470000Y11025239D01*
X17517619Y11072858D01*
X17565238Y11168096D01*
X17565238Y11358572D01*
X17517619Y11453810D01*
X17470000Y11501429D01*
X17374761Y11549048D01*
%TO.C,U4*%
X58082380Y10668096D02*
X58891904Y10668096D01*
X58987142Y10715715D01*
X59034761Y10763334D01*
X59082380Y10858572D01*
X59082380Y11049048D01*
X59034761Y11144286D01*
X58987142Y11191905D01*
X58891904Y11239524D01*
X58082380Y11239524D01*
X58415714Y12144286D02*
X59082380Y12144286D01*
X58034761Y11906191D02*
X58749047Y11668096D01*
X58749047Y12287143D01*
X68747142Y11977620D02*
X69413809Y11977620D01*
X68985238Y10977620D01*
X70223333Y11644286D02*
X70223333Y10977620D01*
X69985238Y12025239D02*
X69747142Y11310953D01*
X70366190Y11310953D01*
X70747142Y10977620D02*
X70747142Y11977620D01*
X70747142Y11501429D02*
X71318571Y11501429D01*
X71318571Y10977620D02*
X71318571Y11977620D01*
X72366190Y11072858D02*
X72318571Y11025239D01*
X72175714Y10977620D01*
X72080476Y10977620D01*
X71937619Y11025239D01*
X71842380Y11120477D01*
X71794761Y11215715D01*
X71747142Y11406191D01*
X71747142Y11549048D01*
X71794761Y11739524D01*
X71842380Y11834762D01*
X71937619Y11930000D01*
X72080476Y11977620D01*
X72175714Y11977620D01*
X72318571Y11930000D01*
X72366190Y11882381D01*
X72651904Y11977620D02*
X73223333Y11977620D01*
X72937619Y10977620D02*
X72937619Y11977620D01*
X74032857Y11977620D02*
X73556666Y11977620D01*
X73509047Y11501429D01*
X73556666Y11549048D01*
X73651904Y11596667D01*
X73890000Y11596667D01*
X73985238Y11549048D01*
X74032857Y11501429D01*
X74080476Y11406191D01*
X74080476Y11168096D01*
X74032857Y11072858D01*
X73985238Y11025239D01*
X73890000Y10977620D01*
X73651904Y10977620D01*
X73556666Y11025239D01*
X73509047Y11072858D01*
X74413809Y11977620D02*
X75080476Y11977620D01*
X74651904Y10977620D01*
X75890000Y11644286D02*
X75890000Y10977620D01*
X75651904Y12025239D02*
X75413809Y11310953D01*
X76032857Y11310953D01*
%TO.C,U1*%
X32682380Y9398096D02*
X33491904Y9398096D01*
X33587142Y9445715D01*
X33634761Y9493334D01*
X33682380Y9588572D01*
X33682380Y9779048D01*
X33634761Y9874286D01*
X33587142Y9921905D01*
X33491904Y9969524D01*
X32682380Y9969524D01*
X33682380Y10969524D02*
X33682380Y10398096D01*
X33682380Y10683810D02*
X32682380Y10683810D01*
X32825238Y10588572D01*
X32920476Y10493334D01*
X32968095Y10398096D01*
X40807142Y11977620D02*
X41473809Y11977620D01*
X41045238Y10977620D01*
X42283333Y11644286D02*
X42283333Y10977620D01*
X42045238Y12025239D02*
X41807142Y11310953D01*
X42426190Y11310953D01*
X42807142Y10977620D02*
X42807142Y11977620D01*
X42807142Y11501429D02*
X43378571Y11501429D01*
X43378571Y10977620D02*
X43378571Y11977620D01*
X44426190Y11072858D02*
X44378571Y11025239D01*
X44235714Y10977620D01*
X44140476Y10977620D01*
X43997619Y11025239D01*
X43902380Y11120477D01*
X43854761Y11215715D01*
X43807142Y11406191D01*
X43807142Y11549048D01*
X43854761Y11739524D01*
X43902380Y11834762D01*
X43997619Y11930000D01*
X44140476Y11977620D01*
X44235714Y11977620D01*
X44378571Y11930000D01*
X44426190Y11882381D01*
X44711904Y11977620D02*
X45283333Y11977620D01*
X44997619Y10977620D02*
X44997619Y11977620D01*
X46140476Y10977620D02*
X45569047Y10977620D01*
X45854761Y10977620D02*
X45854761Y11977620D01*
X45759523Y11834762D01*
X45664285Y11739524D01*
X45569047Y11691905D01*
X46473809Y11977620D02*
X47092857Y11977620D01*
X46759523Y11596667D01*
X46902380Y11596667D01*
X46997619Y11549048D01*
X47045238Y11501429D01*
X47092857Y11406191D01*
X47092857Y11168096D01*
X47045238Y11072858D01*
X46997619Y11025239D01*
X46902380Y10977620D01*
X46616666Y10977620D01*
X46521428Y11025239D01*
X46473809Y11072858D01*
X47664285Y11549048D02*
X47569047Y11596667D01*
X47521428Y11644286D01*
X47473809Y11739524D01*
X47473809Y11787143D01*
X47521428Y11882381D01*
X47569047Y11930000D01*
X47664285Y11977620D01*
X47854761Y11977620D01*
X47950000Y11930000D01*
X47997619Y11882381D01*
X48045238Y11787143D01*
X48045238Y11739524D01*
X47997619Y11644286D01*
X47950000Y11596667D01*
X47854761Y11549048D01*
X47664285Y11549048D01*
X47569047Y11501429D01*
X47521428Y11453810D01*
X47473809Y11358572D01*
X47473809Y11168096D01*
X47521428Y11072858D01*
X47569047Y11025239D01*
X47664285Y10977620D01*
X47854761Y10977620D01*
X47950000Y11025239D01*
X47997619Y11072858D01*
X48045238Y11168096D01*
X48045238Y11358572D01*
X47997619Y11453810D01*
X47950000Y11501429D01*
X47854761Y11549048D01*
%TO.C,U3*%
X33952380Y22098096D02*
X34761904Y22098096D01*
X34857142Y22145715D01*
X34904761Y22193334D01*
X34952380Y22288572D01*
X34952380Y22479048D01*
X34904761Y22574286D01*
X34857142Y22621905D01*
X34761904Y22669524D01*
X33952380Y22669524D01*
X33952380Y23050477D02*
X33952380Y23669524D01*
X34333333Y23336191D01*
X34333333Y23479048D01*
X34380952Y23574286D01*
X34428571Y23621905D01*
X34523809Y23669524D01*
X34761904Y23669524D01*
X34857142Y23621905D01*
X34904761Y23574286D01*
X34952380Y23479048D01*
X34952380Y23193334D01*
X34904761Y23098096D01*
X34857142Y23050477D01*
X41283333Y23407620D02*
X41950000Y23407620D01*
X41521428Y22407620D01*
X42759523Y23074286D02*
X42759523Y22407620D01*
X42521428Y23455239D02*
X42283333Y22740953D01*
X42902380Y22740953D01*
X43283333Y22407620D02*
X43283333Y23407620D01*
X43283333Y22931429D02*
X43854761Y22931429D01*
X43854761Y22407620D02*
X43854761Y23407620D01*
X44902380Y22502858D02*
X44854761Y22455239D01*
X44711904Y22407620D01*
X44616666Y22407620D01*
X44473809Y22455239D01*
X44378571Y22550477D01*
X44330952Y22645715D01*
X44283333Y22836191D01*
X44283333Y22979048D01*
X44330952Y23169524D01*
X44378571Y23264762D01*
X44473809Y23360000D01*
X44616666Y23407620D01*
X44711904Y23407620D01*
X44854761Y23360000D01*
X44902380Y23312381D01*
X45188095Y23407620D02*
X45759523Y23407620D01*
X45473809Y22407620D02*
X45473809Y23407620D01*
X46283333Y23407620D02*
X46378571Y23407620D01*
X46473809Y23360000D01*
X46521428Y23312381D01*
X46569047Y23217143D01*
X46616666Y23026667D01*
X46616666Y22788572D01*
X46569047Y22598096D01*
X46521428Y22502858D01*
X46473809Y22455239D01*
X46378571Y22407620D01*
X46283333Y22407620D01*
X46188095Y22455239D01*
X46140476Y22502858D01*
X46092857Y22598096D01*
X46045238Y22788572D01*
X46045238Y23026667D01*
X46092857Y23217143D01*
X46140476Y23312381D01*
X46188095Y23360000D01*
X46283333Y23407620D01*
X47188095Y22979048D02*
X47092857Y23026667D01*
X47045238Y23074286D01*
X46997619Y23169524D01*
X46997619Y23217143D01*
X47045238Y23312381D01*
X47092857Y23360000D01*
X47188095Y23407620D01*
X47378571Y23407620D01*
X47473809Y23360000D01*
X47521428Y23312381D01*
X47569047Y23217143D01*
X47569047Y23169524D01*
X47521428Y23074286D01*
X47473809Y23026667D01*
X47378571Y22979048D01*
X47188095Y22979048D01*
X47092857Y22931429D01*
X47045238Y22883810D01*
X46997619Y22788572D01*
X46997619Y22598096D01*
X47045238Y22502858D01*
X47092857Y22455239D01*
X47188095Y22407620D01*
X47378571Y22407620D01*
X47473809Y22455239D01*
X47521428Y22502858D01*
X47569047Y22598096D01*
X47569047Y22788572D01*
X47521428Y22883810D01*
X47473809Y22931429D01*
X47378571Y22979048D01*
%TO.C,U7*%
X3472380Y33528096D02*
X4281904Y33528096D01*
X4377142Y33575715D01*
X4424761Y33623334D01*
X4472380Y33718572D01*
X4472380Y33909048D01*
X4424761Y34004286D01*
X4377142Y34051905D01*
X4281904Y34099524D01*
X3472380Y34099524D01*
X3472380Y34480477D02*
X3472380Y35147143D01*
X4472380Y34718572D01*
X10803333Y34837620D02*
X11470000Y34837620D01*
X11041428Y33837620D01*
X12279523Y34504286D02*
X12279523Y33837620D01*
X12041428Y34885239D02*
X11803333Y34170953D01*
X12422380Y34170953D01*
X12803333Y33837620D02*
X12803333Y34837620D01*
X12803333Y34361429D02*
X13374761Y34361429D01*
X13374761Y33837620D02*
X13374761Y34837620D01*
X14422380Y33932858D02*
X14374761Y33885239D01*
X14231904Y33837620D01*
X14136666Y33837620D01*
X13993809Y33885239D01*
X13898571Y33980477D01*
X13850952Y34075715D01*
X13803333Y34266191D01*
X13803333Y34409048D01*
X13850952Y34599524D01*
X13898571Y34694762D01*
X13993809Y34790000D01*
X14136666Y34837620D01*
X14231904Y34837620D01*
X14374761Y34790000D01*
X14422380Y34742381D01*
X14708095Y34837620D02*
X15279523Y34837620D01*
X14993809Y33837620D02*
X14993809Y34837620D01*
X15517619Y34837620D02*
X16184285Y34837620D01*
X15755714Y33837620D01*
X16993809Y34504286D02*
X16993809Y33837620D01*
X16755714Y34885239D02*
X16517619Y34170953D01*
X17136666Y34170953D01*
%TO.C,C2*%
X1103333Y16787858D02*
X1055714Y16740239D01*
X912857Y16692620D01*
X817619Y16692620D01*
X674761Y16740239D01*
X579523Y16835477D01*
X531904Y16930715D01*
X484285Y17121191D01*
X484285Y17264048D01*
X531904Y17454524D01*
X579523Y17549762D01*
X674761Y17645000D01*
X817619Y17692620D01*
X912857Y17692620D01*
X1055714Y17645000D01*
X1103333Y17597381D01*
X1484285Y17597381D02*
X1531904Y17645000D01*
X1627142Y17692620D01*
X1865238Y17692620D01*
X1960476Y17645000D01*
X2008095Y17597381D01*
X2055714Y17502143D01*
X2055714Y17406905D01*
X2008095Y17264048D01*
X1436666Y16692620D01*
X2055714Y16692620D01*
%TO.C,J5*%
X73326666Y67857620D02*
X73326666Y67143334D01*
X73279047Y67000477D01*
X73183809Y66905239D01*
X73040952Y66857620D01*
X72945714Y66857620D01*
X74279047Y67857620D02*
X73802857Y67857620D01*
X73755238Y67381429D01*
X73802857Y67429048D01*
X73898095Y67476667D01*
X74136190Y67476667D01*
X74231428Y67429048D01*
X74279047Y67381429D01*
X74326666Y67286191D01*
X74326666Y67048096D01*
X74279047Y66952858D01*
X74231428Y66905239D01*
X74136190Y66857620D01*
X73898095Y66857620D01*
X73802857Y66905239D01*
X73755238Y66952858D01*
X72493333Y44997620D02*
X72493333Y44283334D01*
X72445714Y44140477D01*
X72350476Y44045239D01*
X72207619Y43997620D01*
X72112380Y43997620D01*
X72826666Y44997620D02*
X73398095Y44997620D01*
X73112380Y43997620D02*
X73112380Y44997620D01*
X73683809Y44283334D02*
X74160000Y44283334D01*
X73588571Y43997620D02*
X73921904Y44997620D01*
X74255238Y43997620D01*
X75112380Y44950000D02*
X75017142Y44997620D01*
X74874285Y44997620D01*
X74731428Y44950000D01*
X74636190Y44854762D01*
X74588571Y44759524D01*
X74540952Y44569048D01*
X74540952Y44426191D01*
X74588571Y44235715D01*
X74636190Y44140477D01*
X74731428Y44045239D01*
X74874285Y43997620D01*
X74969523Y43997620D01*
X75112380Y44045239D01*
X75160000Y44092858D01*
X75160000Y44426191D01*
X74969523Y44426191D01*
%TO.C,R2*%
X27773333Y39552620D02*
X27440000Y40028810D01*
X27201904Y39552620D02*
X27201904Y40552620D01*
X27582857Y40552620D01*
X27678095Y40505000D01*
X27725714Y40457381D01*
X27773333Y40362143D01*
X27773333Y40219286D01*
X27725714Y40124048D01*
X27678095Y40076429D01*
X27582857Y40028810D01*
X27201904Y40028810D01*
X28154285Y40457381D02*
X28201904Y40505000D01*
X28297142Y40552620D01*
X28535238Y40552620D01*
X28630476Y40505000D01*
X28678095Y40457381D01*
X28725714Y40362143D01*
X28725714Y40266905D01*
X28678095Y40124048D01*
X28106666Y39552620D01*
X28725714Y39552620D01*
X27725714Y33599524D02*
X28392380Y33599524D01*
X27344761Y33361429D02*
X28059047Y33123334D01*
X28059047Y33742381D01*
X28392380Y34123334D02*
X27392380Y34123334D01*
X28011428Y34218572D02*
X28392380Y34504286D01*
X27725714Y34504286D02*
X28106666Y34123334D01*
X27392380Y34837620D02*
X27392380Y35504286D01*
X28392380Y35075715D01*
%TO.C,C10*%
X38727142Y67587858D02*
X38679523Y67540239D01*
X38536666Y67492620D01*
X38441428Y67492620D01*
X38298571Y67540239D01*
X38203333Y67635477D01*
X38155714Y67730715D01*
X38108095Y67921191D01*
X38108095Y68064048D01*
X38155714Y68254524D01*
X38203333Y68349762D01*
X38298571Y68445000D01*
X38441428Y68492620D01*
X38536666Y68492620D01*
X38679523Y68445000D01*
X38727142Y68397381D01*
X39679523Y67492620D02*
X39108095Y67492620D01*
X39393809Y67492620D02*
X39393809Y68492620D01*
X39298571Y68349762D01*
X39203333Y68254524D01*
X39108095Y68206905D01*
X40298571Y68492620D02*
X40393809Y68492620D01*
X40489047Y68445000D01*
X40536666Y68397381D01*
X40584285Y68302143D01*
X40631904Y68111667D01*
X40631904Y67873572D01*
X40584285Y67683096D01*
X40536666Y67587858D01*
X40489047Y67540239D01*
X40393809Y67492620D01*
X40298571Y67492620D01*
X40203333Y67540239D01*
X40155714Y67587858D01*
X40108095Y67683096D01*
X40060476Y67873572D01*
X40060476Y68111667D01*
X40108095Y68302143D01*
X40155714Y68397381D01*
X40203333Y68445000D01*
X40298571Y68492620D01*
%TO.C,C9*%
X36663333Y43457858D02*
X36615714Y43410239D01*
X36472857Y43362620D01*
X36377619Y43362620D01*
X36234761Y43410239D01*
X36139523Y43505477D01*
X36091904Y43600715D01*
X36044285Y43791191D01*
X36044285Y43934048D01*
X36091904Y44124524D01*
X36139523Y44219762D01*
X36234761Y44315000D01*
X36377619Y44362620D01*
X36472857Y44362620D01*
X36615714Y44315000D01*
X36663333Y44267381D01*
X37139523Y43362620D02*
X37330000Y43362620D01*
X37425238Y43410239D01*
X37472857Y43457858D01*
X37568095Y43600715D01*
X37615714Y43791191D01*
X37615714Y44172143D01*
X37568095Y44267381D01*
X37520476Y44315000D01*
X37425238Y44362620D01*
X37234761Y44362620D01*
X37139523Y44315000D01*
X37091904Y44267381D01*
X37044285Y44172143D01*
X37044285Y43934048D01*
X37091904Y43838810D01*
X37139523Y43791191D01*
X37234761Y43743572D01*
X37425238Y43743572D01*
X37520476Y43791191D01*
X37568095Y43838810D01*
X37615714Y43934048D01*
%TO.C,J4*%
X4746666Y65317620D02*
X4746666Y64603334D01*
X4699047Y64460477D01*
X4603809Y64365239D01*
X4460952Y64317620D01*
X4365714Y64317620D01*
X5651428Y64984286D02*
X5651428Y64317620D01*
X5413333Y65365239D02*
X5175238Y64650953D01*
X5794285Y64650953D01*
X4103809Y46537620D02*
X4103809Y47537620D01*
X4532380Y46585239D02*
X4675238Y46537620D01*
X4913333Y46537620D01*
X5008571Y46585239D01*
X5056190Y46632858D01*
X5103809Y46728096D01*
X5103809Y46823334D01*
X5056190Y46918572D01*
X5008571Y46966191D01*
X4913333Y47013810D01*
X4722857Y47061429D01*
X4627619Y47109048D01*
X4580000Y47156667D01*
X4532380Y47251905D01*
X4532380Y47347143D01*
X4580000Y47442381D01*
X4627619Y47490000D01*
X4722857Y47537620D01*
X4960952Y47537620D01*
X5103809Y47490000D01*
X5532380Y46537620D02*
X5532380Y47537620D01*
X5913333Y47537620D01*
X6008571Y47490000D01*
X6056190Y47442381D01*
X6103809Y47347143D01*
X6103809Y47204286D01*
X6056190Y47109048D01*
X6008571Y47061429D01*
X5913333Y47013810D01*
X5532380Y47013810D01*
%TO.C,J1*%
X96821666Y41822620D02*
X96821666Y41108334D01*
X96774047Y40965477D01*
X96678809Y40870239D01*
X96535952Y40822620D01*
X96440714Y40822620D01*
X97821666Y40822620D02*
X97250238Y40822620D01*
X97535952Y40822620D02*
X97535952Y41822620D01*
X97440714Y41679762D01*
X97345476Y41584524D01*
X97250238Y41536905D01*
X100036476Y40822620D02*
X100036476Y41822620D01*
X100369809Y41108334D01*
X100703142Y41822620D01*
X100703142Y40822620D01*
X101179333Y40822620D02*
X101179333Y41822620D01*
X101655523Y40822620D02*
X101655523Y41822620D01*
X101893619Y41822620D01*
X102036476Y41775000D01*
X102131714Y41679762D01*
X102179333Y41584524D01*
X102226952Y41394048D01*
X102226952Y41251191D01*
X102179333Y41060715D01*
X102131714Y40965477D01*
X102036476Y40870239D01*
X101893619Y40822620D01*
X101655523Y40822620D01*
X102655523Y40822620D02*
X102655523Y41822620D01*
%TO.C,R4*%
X88336380Y26085834D02*
X87860190Y25752500D01*
X88336380Y25514405D02*
X87336380Y25514405D01*
X87336380Y25895358D01*
X87384000Y25990596D01*
X87431619Y26038215D01*
X87526857Y26085834D01*
X87669714Y26085834D01*
X87764952Y26038215D01*
X87812571Y25990596D01*
X87860190Y25895358D01*
X87860190Y25514405D01*
X87669714Y26942977D02*
X88336380Y26942977D01*
X87288761Y26704881D02*
X88003047Y26466786D01*
X88003047Y27085834D01*
X89717619Y25014405D02*
X89670000Y25062024D01*
X89622380Y25157262D01*
X89622380Y25395358D01*
X89670000Y25490596D01*
X89717619Y25538215D01*
X89812857Y25585834D01*
X89908095Y25585834D01*
X90050952Y25538215D01*
X90622380Y24966786D01*
X90622380Y25585834D01*
X89717619Y25966786D02*
X89670000Y26014405D01*
X89622380Y26109643D01*
X89622380Y26347739D01*
X89670000Y26442977D01*
X89717619Y26490596D01*
X89812857Y26538215D01*
X89908095Y26538215D01*
X90050952Y26490596D01*
X90622380Y25919167D01*
X90622380Y26538215D01*
X89622380Y27157262D02*
X89622380Y27252500D01*
X89670000Y27347739D01*
X89717619Y27395358D01*
X89812857Y27442977D01*
X90003333Y27490596D01*
X90241428Y27490596D01*
X90431904Y27442977D01*
X90527142Y27395358D01*
X90574761Y27347739D01*
X90622380Y27252500D01*
X90622380Y27157262D01*
X90574761Y27062024D01*
X90527142Y27014405D01*
X90431904Y26966786D01*
X90241428Y26919167D01*
X90003333Y26919167D01*
X89812857Y26966786D01*
X89717619Y27014405D01*
X89670000Y27062024D01*
X89622380Y27157262D01*
%TO.C,Y1*%
X47248809Y40313810D02*
X47248809Y39837620D01*
X46915476Y40837620D02*
X47248809Y40313810D01*
X47582142Y40837620D01*
X48439285Y39837620D02*
X47867857Y39837620D01*
X48153571Y39837620D02*
X48153571Y40837620D01*
X48058333Y40694762D01*
X47963095Y40599524D01*
X47867857Y40551905D01*
X45490095Y45791381D02*
X45537714Y45839000D01*
X45632952Y45886620D01*
X45871047Y45886620D01*
X45966285Y45839000D01*
X46013904Y45791381D01*
X46061523Y45696143D01*
X46061523Y45600905D01*
X46013904Y45458048D01*
X45442476Y44886620D01*
X46061523Y44886620D01*
X46680571Y45886620D02*
X46775809Y45886620D01*
X46871047Y45839000D01*
X46918666Y45791381D01*
X46966285Y45696143D01*
X47013904Y45505667D01*
X47013904Y45267572D01*
X46966285Y45077096D01*
X46918666Y44981858D01*
X46871047Y44934239D01*
X46775809Y44886620D01*
X46680571Y44886620D01*
X46585333Y44934239D01*
X46537714Y44981858D01*
X46490095Y45077096D01*
X46442476Y45267572D01*
X46442476Y45505667D01*
X46490095Y45696143D01*
X46537714Y45791381D01*
X46585333Y45839000D01*
X46680571Y45886620D01*
X47442476Y44886620D02*
X47442476Y45886620D01*
X47775809Y45172334D01*
X48109142Y45886620D01*
X48109142Y44886620D01*
X48585333Y44886620D02*
X48585333Y45886620D01*
X48585333Y45410429D02*
X49156761Y45410429D01*
X49156761Y44886620D02*
X49156761Y45886620D01*
X49537714Y45553286D02*
X50061523Y45553286D01*
X49537714Y44886620D01*
X50061523Y44886620D01*
%TO.C,C7*%
X1103333Y39647858D02*
X1055714Y39600239D01*
X912857Y39552620D01*
X817619Y39552620D01*
X674761Y39600239D01*
X579523Y39695477D01*
X531904Y39790715D01*
X484285Y39981191D01*
X484285Y40124048D01*
X531904Y40314524D01*
X579523Y40409762D01*
X674761Y40505000D01*
X817619Y40552620D01*
X912857Y40552620D01*
X1055714Y40505000D01*
X1103333Y40457381D01*
X1436666Y40552620D02*
X2103333Y40552620D01*
X1674761Y39552620D01*
%TO.C,C4*%
X56983333Y16787858D02*
X56935714Y16740239D01*
X56792857Y16692620D01*
X56697619Y16692620D01*
X56554761Y16740239D01*
X56459523Y16835477D01*
X56411904Y16930715D01*
X56364285Y17121191D01*
X56364285Y17264048D01*
X56411904Y17454524D01*
X56459523Y17549762D01*
X56554761Y17645000D01*
X56697619Y17692620D01*
X56792857Y17692620D01*
X56935714Y17645000D01*
X56983333Y17597381D01*
X57840476Y17359286D02*
X57840476Y16692620D01*
X57602380Y17740239D02*
X57364285Y17025953D01*
X57983333Y17025953D01*
%TO.C,R3*%
X30313333Y39552620D02*
X29980000Y40028810D01*
X29741904Y39552620D02*
X29741904Y40552620D01*
X30122857Y40552620D01*
X30218095Y40505000D01*
X30265714Y40457381D01*
X30313333Y40362143D01*
X30313333Y40219286D01*
X30265714Y40124048D01*
X30218095Y40076429D01*
X30122857Y40028810D01*
X29741904Y40028810D01*
X30646666Y40552620D02*
X31265714Y40552620D01*
X30932380Y40171667D01*
X31075238Y40171667D01*
X31170476Y40124048D01*
X31218095Y40076429D01*
X31265714Y39981191D01*
X31265714Y39743096D01*
X31218095Y39647858D01*
X31170476Y39600239D01*
X31075238Y39552620D01*
X30789523Y39552620D01*
X30694285Y39600239D01*
X30646666Y39647858D01*
X30265714Y33599524D02*
X30932380Y33599524D01*
X29884761Y33361429D02*
X30599047Y33123334D01*
X30599047Y33742381D01*
X30932380Y34123334D02*
X29932380Y34123334D01*
X30551428Y34218572D02*
X30932380Y34504286D01*
X30265714Y34504286D02*
X30646666Y34123334D01*
X29932380Y34837620D02*
X29932380Y35504286D01*
X30932380Y35075715D01*
%TO.C,C8*%
X35393333Y42187858D02*
X35345714Y42140239D01*
X35202857Y42092620D01*
X35107619Y42092620D01*
X34964761Y42140239D01*
X34869523Y42235477D01*
X34821904Y42330715D01*
X34774285Y42521191D01*
X34774285Y42664048D01*
X34821904Y42854524D01*
X34869523Y42949762D01*
X34964761Y43045000D01*
X35107619Y43092620D01*
X35202857Y43092620D01*
X35345714Y43045000D01*
X35393333Y42997381D01*
X35964761Y42664048D02*
X35869523Y42711667D01*
X35821904Y42759286D01*
X35774285Y42854524D01*
X35774285Y42902143D01*
X35821904Y42997381D01*
X35869523Y43045000D01*
X35964761Y43092620D01*
X36155238Y43092620D01*
X36250476Y43045000D01*
X36298095Y42997381D01*
X36345714Y42902143D01*
X36345714Y42854524D01*
X36298095Y42759286D01*
X36250476Y42711667D01*
X36155238Y42664048D01*
X35964761Y42664048D01*
X35869523Y42616429D01*
X35821904Y42568810D01*
X35774285Y42473572D01*
X35774285Y42283096D01*
X35821904Y42187858D01*
X35869523Y42140239D01*
X35964761Y42092620D01*
X36155238Y42092620D01*
X36250476Y42140239D01*
X36298095Y42187858D01*
X36345714Y42283096D01*
X36345714Y42473572D01*
X36298095Y42568810D01*
X36250476Y42616429D01*
X36155238Y42664048D01*
%TO.C,R1*%
X25233333Y40949620D02*
X24900000Y41425810D01*
X24661904Y40949620D02*
X24661904Y41949620D01*
X25042857Y41949620D01*
X25138095Y41902000D01*
X25185714Y41854381D01*
X25233333Y41759143D01*
X25233333Y41616286D01*
X25185714Y41521048D01*
X25138095Y41473429D01*
X25042857Y41425810D01*
X24661904Y41425810D01*
X26185714Y40949620D02*
X25614285Y40949620D01*
X25900000Y40949620D02*
X25900000Y41949620D01*
X25804761Y41806762D01*
X25709523Y41711524D01*
X25614285Y41663905D01*
X24709523Y44029286D02*
X24709523Y43362620D01*
X24471428Y44410239D02*
X24233333Y43695953D01*
X24852380Y43695953D01*
X25233333Y43362620D02*
X25233333Y44362620D01*
X25328571Y43743572D02*
X25614285Y43362620D01*
X25614285Y44029286D02*
X25233333Y43648334D01*
X25947619Y44362620D02*
X26614285Y44362620D01*
X26185714Y43362620D01*
%TO.C,R5*%
X88336380Y14338334D02*
X87860190Y14005000D01*
X88336380Y13766905D02*
X87336380Y13766905D01*
X87336380Y14147858D01*
X87384000Y14243096D01*
X87431619Y14290715D01*
X87526857Y14338334D01*
X87669714Y14338334D01*
X87764952Y14290715D01*
X87812571Y14243096D01*
X87860190Y14147858D01*
X87860190Y13766905D01*
X87336380Y15243096D02*
X87336380Y14766905D01*
X87812571Y14719286D01*
X87764952Y14766905D01*
X87717333Y14862143D01*
X87717333Y15100239D01*
X87764952Y15195477D01*
X87812571Y15243096D01*
X87907809Y15290715D01*
X88145904Y15290715D01*
X88241142Y15243096D01*
X88288761Y15195477D01*
X88336380Y15100239D01*
X88336380Y14862143D01*
X88288761Y14766905D01*
X88241142Y14719286D01*
X89717619Y13266905D02*
X89670000Y13314524D01*
X89622380Y13409762D01*
X89622380Y13647858D01*
X89670000Y13743096D01*
X89717619Y13790715D01*
X89812857Y13838334D01*
X89908095Y13838334D01*
X90050952Y13790715D01*
X90622380Y13219286D01*
X90622380Y13838334D01*
X89717619Y14219286D02*
X89670000Y14266905D01*
X89622380Y14362143D01*
X89622380Y14600239D01*
X89670000Y14695477D01*
X89717619Y14743096D01*
X89812857Y14790715D01*
X89908095Y14790715D01*
X90050952Y14743096D01*
X90622380Y14171667D01*
X90622380Y14790715D01*
X89622380Y15409762D02*
X89622380Y15505000D01*
X89670000Y15600239D01*
X89717619Y15647858D01*
X89812857Y15695477D01*
X90003333Y15743096D01*
X90241428Y15743096D01*
X90431904Y15695477D01*
X90527142Y15647858D01*
X90574761Y15600239D01*
X90622380Y15505000D01*
X90622380Y15409762D01*
X90574761Y15314524D01*
X90527142Y15266905D01*
X90431904Y15219286D01*
X90241428Y15171667D01*
X90003333Y15171667D01*
X89812857Y15219286D01*
X89717619Y15266905D01*
X89670000Y15314524D01*
X89622380Y15409762D01*
%TO.C,J6*%
X65706666Y79541620D02*
X65706666Y78827334D01*
X65659047Y78684477D01*
X65563809Y78589239D01*
X65420952Y78541620D01*
X65325714Y78541620D01*
X66611428Y79541620D02*
X66420952Y79541620D01*
X66325714Y79494000D01*
X66278095Y79446381D01*
X66182857Y79303524D01*
X66135238Y79113048D01*
X66135238Y78732096D01*
X66182857Y78636858D01*
X66230476Y78589239D01*
X66325714Y78541620D01*
X66516190Y78541620D01*
X66611428Y78589239D01*
X66659047Y78636858D01*
X66706666Y78732096D01*
X66706666Y78970191D01*
X66659047Y79065429D01*
X66611428Y79113048D01*
X66516190Y79160667D01*
X66325714Y79160667D01*
X66230476Y79113048D01*
X66182857Y79065429D01*
X66135238Y78970191D01*
X62468571Y86907620D02*
X62706666Y85907620D01*
X62897142Y86621905D01*
X63087619Y85907620D01*
X63325714Y86907620D01*
X64135238Y85907620D02*
X64135238Y86431429D01*
X64087619Y86526667D01*
X63992380Y86574286D01*
X63801904Y86574286D01*
X63706666Y86526667D01*
X64135238Y85955239D02*
X64040000Y85907620D01*
X63801904Y85907620D01*
X63706666Y85955239D01*
X63659047Y86050477D01*
X63659047Y86145715D01*
X63706666Y86240953D01*
X63801904Y86288572D01*
X64040000Y86288572D01*
X64135238Y86336191D01*
X64516190Y86574286D02*
X64754285Y85907620D01*
X64992380Y86574286D01*
X65754285Y85955239D02*
X65659047Y85907620D01*
X65468571Y85907620D01*
X65373333Y85955239D01*
X65325714Y86050477D01*
X65325714Y86431429D01*
X65373333Y86526667D01*
X65468571Y86574286D01*
X65659047Y86574286D01*
X65754285Y86526667D01*
X65801904Y86431429D01*
X65801904Y86336191D01*
X65325714Y86240953D01*
X66087619Y86574286D02*
X66468571Y86574286D01*
X66230476Y86907620D02*
X66230476Y86050477D01*
X66278095Y85955239D01*
X66373333Y85907620D01*
X66468571Y85907620D01*
X67230476Y85907620D02*
X67230476Y86431429D01*
X67182857Y86526667D01*
X67087619Y86574286D01*
X66897142Y86574286D01*
X66801904Y86526667D01*
X67230476Y85955239D02*
X67135238Y85907620D01*
X66897142Y85907620D01*
X66801904Y85955239D01*
X66754285Y86050477D01*
X66754285Y86145715D01*
X66801904Y86240953D01*
X66897142Y86288572D01*
X67135238Y86288572D01*
X67230476Y86336191D01*
X67706666Y85907620D02*
X67706666Y86907620D01*
X67706666Y86526667D02*
X67801904Y86574286D01*
X67992380Y86574286D01*
X68087619Y86526667D01*
X68135238Y86479048D01*
X68182857Y86383810D01*
X68182857Y86098096D01*
X68135238Y86002858D01*
X68087619Y85955239D01*
X67992380Y85907620D01*
X67801904Y85907620D01*
X67706666Y85955239D01*
X68754285Y85907620D02*
X68659047Y85955239D01*
X68611428Y86050477D01*
X68611428Y86907620D01*
X69516190Y85955239D02*
X69420952Y85907620D01*
X69230476Y85907620D01*
X69135238Y85955239D01*
X69087619Y86050477D01*
X69087619Y86431429D01*
X69135238Y86526667D01*
X69230476Y86574286D01*
X69420952Y86574286D01*
X69516190Y86526667D01*
X69563809Y86431429D01*
X69563809Y86336191D01*
X69087619Y86240953D01*
%TO.C,J7*%
X19137380Y85391667D02*
X19851666Y85391667D01*
X19994523Y85344048D01*
X20089761Y85248810D01*
X20137380Y85105953D01*
X20137380Y85010715D01*
X19137380Y85772620D02*
X19137380Y86439286D01*
X20137380Y86010715D01*
X25582857Y69683334D02*
X26059047Y69683334D01*
X25487619Y69397620D02*
X25820952Y70397620D01*
X26154285Y69397620D01*
X26916190Y70064286D02*
X26916190Y69397620D01*
X26487619Y70064286D02*
X26487619Y69540477D01*
X26535238Y69445239D01*
X26630476Y69397620D01*
X26773333Y69397620D01*
X26868571Y69445239D01*
X26916190Y69492858D01*
X27297142Y69397620D02*
X27820952Y70064286D01*
X27297142Y70064286D02*
X27820952Y69397620D01*
X28392380Y70397620D02*
X28582857Y70397620D01*
X28678095Y70350000D01*
X28773333Y70254762D01*
X28820952Y70064286D01*
X28820952Y69730953D01*
X28773333Y69540477D01*
X28678095Y69445239D01*
X28582857Y69397620D01*
X28392380Y69397620D01*
X28297142Y69445239D01*
X28201904Y69540477D01*
X28154285Y69730953D01*
X28154285Y70064286D01*
X28201904Y70254762D01*
X28297142Y70350000D01*
X28392380Y70397620D01*
X29678095Y70064286D02*
X29678095Y69397620D01*
X29249523Y70064286D02*
X29249523Y69540477D01*
X29297142Y69445239D01*
X29392380Y69397620D01*
X29535238Y69397620D01*
X29630476Y69445239D01*
X29678095Y69492858D01*
X30011428Y70064286D02*
X30392380Y70064286D01*
X30154285Y70397620D02*
X30154285Y69540477D01*
X30201904Y69445239D01*
X30297142Y69397620D01*
X30392380Y69397620D01*
%TO.C,C16*%
X51427142Y77747858D02*
X51379523Y77700239D01*
X51236666Y77652620D01*
X51141428Y77652620D01*
X50998571Y77700239D01*
X50903333Y77795477D01*
X50855714Y77890715D01*
X50808095Y78081191D01*
X50808095Y78224048D01*
X50855714Y78414524D01*
X50903333Y78509762D01*
X50998571Y78605000D01*
X51141428Y78652620D01*
X51236666Y78652620D01*
X51379523Y78605000D01*
X51427142Y78557381D01*
X52379523Y77652620D02*
X51808095Y77652620D01*
X52093809Y77652620D02*
X52093809Y78652620D01*
X51998571Y78509762D01*
X51903333Y78414524D01*
X51808095Y78366905D01*
X53236666Y78652620D02*
X53046190Y78652620D01*
X52950952Y78605000D01*
X52903333Y78557381D01*
X52808095Y78414524D01*
X52760476Y78224048D01*
X52760476Y77843096D01*
X52808095Y77747858D01*
X52855714Y77700239D01*
X52950952Y77652620D01*
X53141428Y77652620D01*
X53236666Y77700239D01*
X53284285Y77747858D01*
X53331904Y77843096D01*
X53331904Y78081191D01*
X53284285Y78176429D01*
X53236666Y78224048D01*
X53141428Y78271667D01*
X52950952Y78271667D01*
X52855714Y78224048D01*
X52808095Y78176429D01*
X52760476Y78081191D01*
X50617380Y74334762D02*
X50617380Y73763334D01*
X50617380Y74049048D02*
X49617380Y74049048D01*
X49760238Y73953810D01*
X49855476Y73858572D01*
X49903095Y73763334D01*
X49950714Y75191905D02*
X50617380Y75191905D01*
X49950714Y74763334D02*
X50474523Y74763334D01*
X50569761Y74810953D01*
X50617380Y74906191D01*
X50617380Y75049048D01*
X50569761Y75144286D01*
X50522142Y75191905D01*
X50093571Y76001429D02*
X50093571Y75668096D01*
X50617380Y75668096D02*
X49617380Y75668096D01*
X49617380Y76144286D01*
%TO.C,U10*%
X12731904Y78402620D02*
X12731904Y77593096D01*
X12779523Y77497858D01*
X12827142Y77450239D01*
X12922380Y77402620D01*
X13112857Y77402620D01*
X13208095Y77450239D01*
X13255714Y77497858D01*
X13303333Y77593096D01*
X13303333Y78402620D01*
X14303333Y77402620D02*
X13731904Y77402620D01*
X14017619Y77402620D02*
X14017619Y78402620D01*
X13922380Y78259762D01*
X13827142Y78164524D01*
X13731904Y78116905D01*
X14922380Y78402620D02*
X15017619Y78402620D01*
X15112857Y78355000D01*
X15160476Y78307381D01*
X15208095Y78212143D01*
X15255714Y78021667D01*
X15255714Y77783572D01*
X15208095Y77593096D01*
X15160476Y77497858D01*
X15112857Y77450239D01*
X15017619Y77402620D01*
X14922380Y77402620D01*
X14827142Y77450239D01*
X14779523Y77497858D01*
X14731904Y77593096D01*
X14684285Y77783572D01*
X14684285Y78021667D01*
X14731904Y78212143D01*
X14779523Y78307381D01*
X14827142Y78355000D01*
X14922380Y78402620D01*
X11803333Y72052620D02*
X12470000Y72052620D01*
X12041428Y71052620D01*
X12993809Y71624048D02*
X12898571Y71671667D01*
X12850952Y71719286D01*
X12803333Y71814524D01*
X12803333Y71862143D01*
X12850952Y71957381D01*
X12898571Y72005000D01*
X12993809Y72052620D01*
X13184285Y72052620D01*
X13279523Y72005000D01*
X13327142Y71957381D01*
X13374761Y71862143D01*
X13374761Y71814524D01*
X13327142Y71719286D01*
X13279523Y71671667D01*
X13184285Y71624048D01*
X12993809Y71624048D01*
X12898571Y71576429D01*
X12850952Y71528810D01*
X12803333Y71433572D01*
X12803333Y71243096D01*
X12850952Y71147858D01*
X12898571Y71100239D01*
X12993809Y71052620D01*
X13184285Y71052620D01*
X13279523Y71100239D01*
X13327142Y71147858D01*
X13374761Y71243096D01*
X13374761Y71433572D01*
X13327142Y71528810D01*
X13279523Y71576429D01*
X13184285Y71624048D01*
X14279523Y71052620D02*
X13803333Y71052620D01*
X13803333Y72052620D01*
X14803333Y72052620D02*
X14898571Y72052620D01*
X14993809Y72005000D01*
X15041428Y71957381D01*
X15089047Y71862143D01*
X15136666Y71671667D01*
X15136666Y71433572D01*
X15089047Y71243096D01*
X15041428Y71147858D01*
X14993809Y71100239D01*
X14898571Y71052620D01*
X14803333Y71052620D01*
X14708095Y71100239D01*
X14660476Y71147858D01*
X14612857Y71243096D01*
X14565238Y71433572D01*
X14565238Y71671667D01*
X14612857Y71862143D01*
X14660476Y71957381D01*
X14708095Y72005000D01*
X14803333Y72052620D01*
X16041428Y72052620D02*
X15565238Y72052620D01*
X15517619Y71576429D01*
X15565238Y71624048D01*
X15660476Y71671667D01*
X15898571Y71671667D01*
X15993809Y71624048D01*
X16041428Y71576429D01*
X16089047Y71481191D01*
X16089047Y71243096D01*
X16041428Y71147858D01*
X15993809Y71100239D01*
X15898571Y71052620D01*
X15660476Y71052620D01*
X15565238Y71100239D01*
X15517619Y71147858D01*
%TO.C,U11*%
X54641904Y78402620D02*
X54641904Y77593096D01*
X54689523Y77497858D01*
X54737142Y77450239D01*
X54832380Y77402620D01*
X55022857Y77402620D01*
X55118095Y77450239D01*
X55165714Y77497858D01*
X55213333Y77593096D01*
X55213333Y78402620D01*
X56213333Y77402620D02*
X55641904Y77402620D01*
X55927619Y77402620D02*
X55927619Y78402620D01*
X55832380Y78259762D01*
X55737142Y78164524D01*
X55641904Y78116905D01*
X57165714Y77402620D02*
X56594285Y77402620D01*
X56880000Y77402620D02*
X56880000Y78402620D01*
X56784761Y78259762D01*
X56689523Y78164524D01*
X56594285Y78116905D01*
X53713333Y72052620D02*
X54380000Y72052620D01*
X53951428Y71052620D01*
X54808571Y71052620D02*
X54999047Y71052620D01*
X55094285Y71100239D01*
X55141904Y71147858D01*
X55237142Y71290715D01*
X55284761Y71481191D01*
X55284761Y71862143D01*
X55237142Y71957381D01*
X55189523Y72005000D01*
X55094285Y72052620D01*
X54903809Y72052620D01*
X54808571Y72005000D01*
X54760952Y71957381D01*
X54713333Y71862143D01*
X54713333Y71624048D01*
X54760952Y71528810D01*
X54808571Y71481191D01*
X54903809Y71433572D01*
X55094285Y71433572D01*
X55189523Y71481191D01*
X55237142Y71528810D01*
X55284761Y71624048D01*
X56189523Y71052620D02*
X55713333Y71052620D01*
X55713333Y72052620D01*
X56713333Y72052620D02*
X56808571Y72052620D01*
X56903809Y72005000D01*
X56951428Y71957381D01*
X56999047Y71862143D01*
X57046666Y71671667D01*
X57046666Y71433572D01*
X56999047Y71243096D01*
X56951428Y71147858D01*
X56903809Y71100239D01*
X56808571Y71052620D01*
X56713333Y71052620D01*
X56618095Y71100239D01*
X56570476Y71147858D01*
X56522857Y71243096D01*
X56475238Y71433572D01*
X56475238Y71671667D01*
X56522857Y71862143D01*
X56570476Y71957381D01*
X56618095Y72005000D01*
X56713333Y72052620D01*
X57951428Y72052620D02*
X57475238Y72052620D01*
X57427619Y71576429D01*
X57475238Y71624048D01*
X57570476Y71671667D01*
X57808571Y71671667D01*
X57903809Y71624048D01*
X57951428Y71576429D01*
X57999047Y71481191D01*
X57999047Y71243096D01*
X57951428Y71147858D01*
X57903809Y71100239D01*
X57808571Y71052620D01*
X57570476Y71052620D01*
X57475238Y71100239D01*
X57427619Y71147858D01*
%TO.C,F1*%
X91741666Y45791429D02*
X91408333Y45791429D01*
X91408333Y45267620D02*
X91408333Y46267620D01*
X91884523Y46267620D01*
X92789285Y45267620D02*
X92217857Y45267620D01*
X92503571Y45267620D02*
X92503571Y46267620D01*
X92408333Y46124762D01*
X92313095Y46029524D01*
X92217857Y45981905D01*
X88614476Y44362620D02*
X88138285Y44362620D01*
X88090666Y43886429D01*
X88138285Y43934048D01*
X88233523Y43981667D01*
X88471619Y43981667D01*
X88566857Y43934048D01*
X88614476Y43886429D01*
X88662095Y43791191D01*
X88662095Y43553096D01*
X88614476Y43457858D01*
X88566857Y43410239D01*
X88471619Y43362620D01*
X88233523Y43362620D01*
X88138285Y43410239D01*
X88090666Y43457858D01*
X89281142Y44362620D02*
X89376380Y44362620D01*
X89471619Y44315000D01*
X89519238Y44267381D01*
X89566857Y44172143D01*
X89614476Y43981667D01*
X89614476Y43743572D01*
X89566857Y43553096D01*
X89519238Y43457858D01*
X89471619Y43410239D01*
X89376380Y43362620D01*
X89281142Y43362620D01*
X89185904Y43410239D01*
X89138285Y43457858D01*
X89090666Y43553096D01*
X89043047Y43743572D01*
X89043047Y43981667D01*
X89090666Y44172143D01*
X89138285Y44267381D01*
X89185904Y44315000D01*
X89281142Y44362620D01*
X90233523Y44362620D02*
X90328761Y44362620D01*
X90424000Y44315000D01*
X90471619Y44267381D01*
X90519238Y44172143D01*
X90566857Y43981667D01*
X90566857Y43743572D01*
X90519238Y43553096D01*
X90471619Y43457858D01*
X90424000Y43410239D01*
X90328761Y43362620D01*
X90233523Y43362620D01*
X90138285Y43410239D01*
X90090666Y43457858D01*
X90043047Y43553096D01*
X89995428Y43743572D01*
X89995428Y43981667D01*
X90043047Y44172143D01*
X90090666Y44267381D01*
X90138285Y44315000D01*
X90233523Y44362620D01*
X90995428Y43362620D02*
X90995428Y44029286D01*
X90995428Y43934048D02*
X91043047Y43981667D01*
X91138285Y44029286D01*
X91281142Y44029286D01*
X91376380Y43981667D01*
X91424000Y43886429D01*
X91424000Y43362620D01*
X91424000Y43886429D02*
X91471619Y43981667D01*
X91566857Y44029286D01*
X91709714Y44029286D01*
X91804952Y43981667D01*
X91852571Y43886429D01*
X91852571Y43362620D01*
X92281142Y43648334D02*
X92757333Y43648334D01*
X92185904Y43362620D02*
X92519238Y44362620D01*
X92852571Y43362620D01*
%TO.C,U12*%
X35222380Y76231905D02*
X36031904Y76231905D01*
X36127142Y76279524D01*
X36174761Y76327143D01*
X36222380Y76422381D01*
X36222380Y76612858D01*
X36174761Y76708096D01*
X36127142Y76755715D01*
X36031904Y76803334D01*
X35222380Y76803334D01*
X36222380Y77803334D02*
X36222380Y77231905D01*
X36222380Y77517620D02*
X35222380Y77517620D01*
X35365238Y77422381D01*
X35460476Y77327143D01*
X35508095Y77231905D01*
X35317619Y78184286D02*
X35270000Y78231905D01*
X35222380Y78327143D01*
X35222380Y78565239D01*
X35270000Y78660477D01*
X35317619Y78708096D01*
X35412857Y78755715D01*
X35508095Y78755715D01*
X35650952Y78708096D01*
X36222380Y78136667D01*
X36222380Y78755715D01*
X38981428Y78017620D02*
X39171904Y78017620D01*
X39267142Y77970000D01*
X39362380Y77874762D01*
X39410000Y77684286D01*
X39410000Y77350953D01*
X39362380Y77160477D01*
X39267142Y77065239D01*
X39171904Y77017620D01*
X38981428Y77017620D01*
X38886190Y77065239D01*
X38790952Y77160477D01*
X38743333Y77350953D01*
X38743333Y77684286D01*
X38790952Y77874762D01*
X38886190Y77970000D01*
X38981428Y78017620D01*
X39838571Y77017620D02*
X39838571Y78017620D01*
X40219523Y78017620D01*
X40314761Y77970000D01*
X40362380Y77922381D01*
X40410000Y77827143D01*
X40410000Y77684286D01*
X40362380Y77589048D01*
X40314761Y77541429D01*
X40219523Y77493810D01*
X39838571Y77493810D01*
X40790952Y77303334D02*
X41267142Y77303334D01*
X40695714Y77017620D02*
X41029047Y78017620D01*
X41362380Y77017620D01*
X41648095Y77922381D02*
X41695714Y77970000D01*
X41790952Y78017620D01*
X42029047Y78017620D01*
X42124285Y77970000D01*
X42171904Y77922381D01*
X42219523Y77827143D01*
X42219523Y77731905D01*
X42171904Y77589048D01*
X41600476Y77017620D01*
X42219523Y77017620D01*
X43171904Y77017620D02*
X42600476Y77017620D01*
X42886190Y77017620D02*
X42886190Y78017620D01*
X42790952Y77874762D01*
X42695714Y77779524D01*
X42600476Y77731905D01*
X43505238Y78017620D02*
X44124285Y78017620D01*
X43790952Y77636667D01*
X43933809Y77636667D01*
X44029047Y77589048D01*
X44076666Y77541429D01*
X44124285Y77446191D01*
X44124285Y77208096D01*
X44076666Y77112858D01*
X44029047Y77065239D01*
X43933809Y77017620D01*
X43648095Y77017620D01*
X43552857Y77065239D01*
X43505238Y77112858D01*
X44981428Y77684286D02*
X44981428Y77017620D01*
X44743333Y78065239D02*
X44505238Y77350953D01*
X45124285Y77350953D01*
%TO.C,C15*%
X17137142Y77747858D02*
X17089523Y77700239D01*
X16946666Y77652620D01*
X16851428Y77652620D01*
X16708571Y77700239D01*
X16613333Y77795477D01*
X16565714Y77890715D01*
X16518095Y78081191D01*
X16518095Y78224048D01*
X16565714Y78414524D01*
X16613333Y78509762D01*
X16708571Y78605000D01*
X16851428Y78652620D01*
X16946666Y78652620D01*
X17089523Y78605000D01*
X17137142Y78557381D01*
X18089523Y77652620D02*
X17518095Y77652620D01*
X17803809Y77652620D02*
X17803809Y78652620D01*
X17708571Y78509762D01*
X17613333Y78414524D01*
X17518095Y78366905D01*
X18994285Y78652620D02*
X18518095Y78652620D01*
X18470476Y78176429D01*
X18518095Y78224048D01*
X18613333Y78271667D01*
X18851428Y78271667D01*
X18946666Y78224048D01*
X18994285Y78176429D01*
X19041904Y78081191D01*
X19041904Y77843096D01*
X18994285Y77747858D01*
X18946666Y77700239D01*
X18851428Y77652620D01*
X18613333Y77652620D01*
X18518095Y77700239D01*
X18470476Y77747858D01*
X20137380Y74334762D02*
X20137380Y73763334D01*
X20137380Y74049048D02*
X19137380Y74049048D01*
X19280238Y73953810D01*
X19375476Y73858572D01*
X19423095Y73763334D01*
X19470714Y75191905D02*
X20137380Y75191905D01*
X19470714Y74763334D02*
X19994523Y74763334D01*
X20089761Y74810953D01*
X20137380Y74906191D01*
X20137380Y75049048D01*
X20089761Y75144286D01*
X20042142Y75191905D01*
X19613571Y76001429D02*
X19613571Y75668096D01*
X20137380Y75668096D02*
X19137380Y75668096D01*
X19137380Y76144286D01*
%TO.C,C11*%
X56872142Y43172143D02*
X56919761Y43124524D01*
X56967380Y42981667D01*
X56967380Y42886429D01*
X56919761Y42743572D01*
X56824523Y42648334D01*
X56729285Y42600715D01*
X56538809Y42553096D01*
X56395952Y42553096D01*
X56205476Y42600715D01*
X56110238Y42648334D01*
X56015000Y42743572D01*
X55967380Y42886429D01*
X55967380Y42981667D01*
X56015000Y43124524D01*
X56062619Y43172143D01*
X56967380Y44124524D02*
X56967380Y43553096D01*
X56967380Y43838810D02*
X55967380Y43838810D01*
X56110238Y43743572D01*
X56205476Y43648334D01*
X56253095Y43553096D01*
X56967380Y45076905D02*
X56967380Y44505477D01*
X56967380Y44791191D02*
X55967380Y44791191D01*
X56110238Y44695953D01*
X56205476Y44600715D01*
X56253095Y44505477D01*
X52967142Y41092381D02*
X53014761Y41140000D01*
X53110000Y41187620D01*
X53348095Y41187620D01*
X53443333Y41140000D01*
X53490952Y41092381D01*
X53538571Y40997143D01*
X53538571Y40901905D01*
X53490952Y40759048D01*
X52919523Y40187620D01*
X53538571Y40187620D01*
X53919523Y41092381D02*
X53967142Y41140000D01*
X54062380Y41187620D01*
X54300476Y41187620D01*
X54395714Y41140000D01*
X54443333Y41092381D01*
X54490952Y40997143D01*
X54490952Y40901905D01*
X54443333Y40759048D01*
X53871904Y40187620D01*
X54490952Y40187620D01*
X54919523Y40854286D02*
X54919523Y39854286D01*
X54919523Y40806667D02*
X55014761Y40854286D01*
X55205238Y40854286D01*
X55300476Y40806667D01*
X55348095Y40759048D01*
X55395714Y40663810D01*
X55395714Y40378096D01*
X55348095Y40282858D01*
X55300476Y40235239D01*
X55205238Y40187620D01*
X55014761Y40187620D01*
X54919523Y40235239D01*
X56157619Y40711429D02*
X55824285Y40711429D01*
X55824285Y40187620D02*
X55824285Y41187620D01*
X56300476Y41187620D01*
%TO.C,C12*%
X39219142Y42283143D02*
X39266761Y42235524D01*
X39314380Y42092667D01*
X39314380Y41997429D01*
X39266761Y41854572D01*
X39171523Y41759334D01*
X39076285Y41711715D01*
X38885809Y41664096D01*
X38742952Y41664096D01*
X38552476Y41711715D01*
X38457238Y41759334D01*
X38362000Y41854572D01*
X38314380Y41997429D01*
X38314380Y42092667D01*
X38362000Y42235524D01*
X38409619Y42283143D01*
X39314380Y43235524D02*
X39314380Y42664096D01*
X39314380Y42949810D02*
X38314380Y42949810D01*
X38457238Y42854572D01*
X38552476Y42759334D01*
X38600095Y42664096D01*
X38409619Y43616477D02*
X38362000Y43664096D01*
X38314380Y43759334D01*
X38314380Y43997429D01*
X38362000Y44092667D01*
X38409619Y44140286D01*
X38504857Y44187905D01*
X38600095Y44187905D01*
X38742952Y44140286D01*
X39314380Y43568858D01*
X39314380Y44187905D01*
X38997142Y41092381D02*
X39044761Y41140000D01*
X39140000Y41187620D01*
X39378095Y41187620D01*
X39473333Y41140000D01*
X39520952Y41092381D01*
X39568571Y40997143D01*
X39568571Y40901905D01*
X39520952Y40759048D01*
X38949523Y40187620D01*
X39568571Y40187620D01*
X39949523Y41092381D02*
X39997142Y41140000D01*
X40092380Y41187620D01*
X40330476Y41187620D01*
X40425714Y41140000D01*
X40473333Y41092381D01*
X40520952Y40997143D01*
X40520952Y40901905D01*
X40473333Y40759048D01*
X39901904Y40187620D01*
X40520952Y40187620D01*
X40949523Y40854286D02*
X40949523Y39854286D01*
X40949523Y40806667D02*
X41044761Y40854286D01*
X41235238Y40854286D01*
X41330476Y40806667D01*
X41378095Y40759048D01*
X41425714Y40663810D01*
X41425714Y40378096D01*
X41378095Y40282858D01*
X41330476Y40235239D01*
X41235238Y40187620D01*
X41044761Y40187620D01*
X40949523Y40235239D01*
X42187619Y40711429D02*
X41854285Y40711429D01*
X41854285Y40187620D02*
X41854285Y41187620D01*
X42330476Y41187620D01*
%TO.C,C17*%
X897142Y25042858D02*
X849523Y24995239D01*
X706666Y24947620D01*
X611428Y24947620D01*
X468571Y24995239D01*
X373333Y25090477D01*
X325714Y25185715D01*
X278095Y25376191D01*
X278095Y25519048D01*
X325714Y25709524D01*
X373333Y25804762D01*
X468571Y25900000D01*
X611428Y25947620D01*
X706666Y25947620D01*
X849523Y25900000D01*
X897142Y25852381D01*
X1849523Y24947620D02*
X1278095Y24947620D01*
X1563809Y24947620D02*
X1563809Y25947620D01*
X1468571Y25804762D01*
X1373333Y25709524D01*
X1278095Y25661905D01*
X2182857Y25947620D02*
X2849523Y25947620D01*
X2420952Y24947620D01*
%TO.C,C13*%
X9517142Y77747858D02*
X9469523Y77700239D01*
X9326666Y77652620D01*
X9231428Y77652620D01*
X9088571Y77700239D01*
X8993333Y77795477D01*
X8945714Y77890715D01*
X8898095Y78081191D01*
X8898095Y78224048D01*
X8945714Y78414524D01*
X8993333Y78509762D01*
X9088571Y78605000D01*
X9231428Y78652620D01*
X9326666Y78652620D01*
X9469523Y78605000D01*
X9517142Y78557381D01*
X10469523Y77652620D02*
X9898095Y77652620D01*
X10183809Y77652620D02*
X10183809Y78652620D01*
X10088571Y78509762D01*
X9993333Y78414524D01*
X9898095Y78366905D01*
X10802857Y78652620D02*
X11421904Y78652620D01*
X11088571Y78271667D01*
X11231428Y78271667D01*
X11326666Y78224048D01*
X11374285Y78176429D01*
X11421904Y78081191D01*
X11421904Y77843096D01*
X11374285Y77747858D01*
X11326666Y77700239D01*
X11231428Y77652620D01*
X10945714Y77652620D01*
X10850476Y77700239D01*
X10802857Y77747858D01*
X7707380Y72810953D02*
X7707380Y72906191D01*
X7755000Y73001429D01*
X7802619Y73049048D01*
X7897857Y73096667D01*
X8088333Y73144286D01*
X8326428Y73144286D01*
X8516904Y73096667D01*
X8612142Y73049048D01*
X8659761Y73001429D01*
X8707380Y72906191D01*
X8707380Y72810953D01*
X8659761Y72715715D01*
X8612142Y72668096D01*
X8516904Y72620477D01*
X8326428Y72572858D01*
X8088333Y72572858D01*
X7897857Y72620477D01*
X7802619Y72668096D01*
X7755000Y72715715D01*
X7707380Y72810953D01*
X8612142Y73572858D02*
X8659761Y73620477D01*
X8707380Y73572858D01*
X8659761Y73525239D01*
X8612142Y73572858D01*
X8707380Y73572858D01*
X8040714Y74477620D02*
X8707380Y74477620D01*
X7659761Y74239524D02*
X8374047Y74001429D01*
X8374047Y74620477D01*
X7707380Y74906191D02*
X7707380Y75572858D01*
X8707380Y75144286D01*
X8040714Y76382381D02*
X8707380Y76382381D01*
X8040714Y75953810D02*
X8564523Y75953810D01*
X8659761Y76001429D01*
X8707380Y76096667D01*
X8707380Y76239524D01*
X8659761Y76334762D01*
X8612142Y76382381D01*
X8183571Y77191905D02*
X8183571Y76858572D01*
X8707380Y76858572D02*
X7707380Y76858572D01*
X7707380Y77334762D01*
%TO.C,C14*%
X59047142Y77747858D02*
X58999523Y77700239D01*
X58856666Y77652620D01*
X58761428Y77652620D01*
X58618571Y77700239D01*
X58523333Y77795477D01*
X58475714Y77890715D01*
X58428095Y78081191D01*
X58428095Y78224048D01*
X58475714Y78414524D01*
X58523333Y78509762D01*
X58618571Y78605000D01*
X58761428Y78652620D01*
X58856666Y78652620D01*
X58999523Y78605000D01*
X59047142Y78557381D01*
X59999523Y77652620D02*
X59428095Y77652620D01*
X59713809Y77652620D02*
X59713809Y78652620D01*
X59618571Y78509762D01*
X59523333Y78414524D01*
X59428095Y78366905D01*
X60856666Y78319286D02*
X60856666Y77652620D01*
X60618571Y78700239D02*
X60380476Y77985953D01*
X60999523Y77985953D01*
X61047380Y72810953D02*
X61047380Y72906191D01*
X61095000Y73001429D01*
X61142619Y73049048D01*
X61237857Y73096667D01*
X61428333Y73144286D01*
X61666428Y73144286D01*
X61856904Y73096667D01*
X61952142Y73049048D01*
X61999761Y73001429D01*
X62047380Y72906191D01*
X62047380Y72810953D01*
X61999761Y72715715D01*
X61952142Y72668096D01*
X61856904Y72620477D01*
X61666428Y72572858D01*
X61428333Y72572858D01*
X61237857Y72620477D01*
X61142619Y72668096D01*
X61095000Y72715715D01*
X61047380Y72810953D01*
X61952142Y73572858D02*
X61999761Y73620477D01*
X62047380Y73572858D01*
X61999761Y73525239D01*
X61952142Y73572858D01*
X62047380Y73572858D01*
X61380714Y74477620D02*
X62047380Y74477620D01*
X60999761Y74239524D02*
X61714047Y74001429D01*
X61714047Y74620477D01*
X61047380Y74906191D02*
X61047380Y75572858D01*
X62047380Y75144286D01*
X61380714Y76382381D02*
X62047380Y76382381D01*
X61380714Y75953810D02*
X61904523Y75953810D01*
X61999761Y76001429D01*
X62047380Y76096667D01*
X62047380Y76239524D01*
X61999761Y76334762D01*
X61952142Y76382381D01*
X61523571Y77191905D02*
X61523571Y76858572D01*
X62047380Y76858572D02*
X61047380Y76858572D01*
X61047380Y77334762D01*
%TO.C,JP1*%
X7282380Y22026667D02*
X7996666Y22026667D01*
X8139523Y21979048D01*
X8234761Y21883810D01*
X8282380Y21740953D01*
X8282380Y21645715D01*
X8282380Y22502858D02*
X7282380Y22502858D01*
X7282380Y22883810D01*
X7330000Y22979048D01*
X7377619Y23026667D01*
X7472857Y23074286D01*
X7615714Y23074286D01*
X7710952Y23026667D01*
X7758571Y22979048D01*
X7806190Y22883810D01*
X7806190Y22502858D01*
X8282380Y24026667D02*
X8282380Y23455239D01*
X8282380Y23740953D02*
X7282380Y23740953D01*
X7425238Y23645715D01*
X7520476Y23550477D01*
X7568095Y23455239D01*
D13*
X12005714Y26245429D02*
X12005714Y27745429D01*
X12577142Y27745429D01*
X12720000Y27674000D01*
X12791428Y27602572D01*
X12862857Y27459715D01*
X12862857Y27245429D01*
X12791428Y27102572D01*
X12720000Y27031143D01*
X12577142Y26959715D01*
X12005714Y26959715D01*
X13720000Y26245429D02*
X13577142Y26316858D01*
X13505714Y26388286D01*
X13434285Y26531143D01*
X13434285Y26959715D01*
X13505714Y27102572D01*
X13577142Y27174000D01*
X13720000Y27245429D01*
X13934285Y27245429D01*
X14077142Y27174000D01*
X14148571Y27102572D01*
X14220000Y26959715D01*
X14220000Y26531143D01*
X14148571Y26388286D01*
X14077142Y26316858D01*
X13934285Y26245429D01*
X13720000Y26245429D01*
X14862857Y26245429D02*
X14862857Y27245429D01*
X14862857Y26959715D02*
X14934285Y27102572D01*
X15005714Y27174000D01*
X15148571Y27245429D01*
X15291428Y27245429D01*
X15577142Y27245429D02*
X16148571Y27245429D01*
X15791428Y27745429D02*
X15791428Y26459715D01*
X15862857Y26316858D01*
X16005714Y26245429D01*
X16148571Y26245429D01*
D10*
%TO.C,JP3*%
X82351666Y51601620D02*
X82351666Y50887334D01*
X82304047Y50744477D01*
X82208809Y50649239D01*
X82065952Y50601620D01*
X81970714Y50601620D01*
X82827857Y50601620D02*
X82827857Y51601620D01*
X83208809Y51601620D01*
X83304047Y51554000D01*
X83351666Y51506381D01*
X83399285Y51411143D01*
X83399285Y51268286D01*
X83351666Y51173048D01*
X83304047Y51125429D01*
X83208809Y51077810D01*
X82827857Y51077810D01*
X83732619Y51601620D02*
X84351666Y51601620D01*
X84018333Y51220667D01*
X84161190Y51220667D01*
X84256428Y51173048D01*
X84304047Y51125429D01*
X84351666Y51030191D01*
X84351666Y50792096D01*
X84304047Y50696858D01*
X84256428Y50649239D01*
X84161190Y50601620D01*
X83875476Y50601620D01*
X83780238Y50649239D01*
X83732619Y50696858D01*
D13*
X79077857Y62035429D02*
X79435000Y60535429D01*
X79720714Y61606858D01*
X80006428Y60535429D01*
X80363571Y62035429D01*
X80720714Y62035429D02*
X81577857Y62035429D01*
X81149285Y60535429D02*
X81149285Y62035429D01*
X83220714Y60535429D02*
X83220714Y62035429D01*
X83792142Y62035429D01*
X83935000Y61964000D01*
X84006428Y61892572D01*
X84077857Y61749715D01*
X84077857Y61535429D01*
X84006428Y61392572D01*
X83935000Y61321143D01*
X83792142Y61249715D01*
X83220714Y61249715D01*
X84935000Y60535429D02*
X84792142Y60606858D01*
X84720714Y60678286D01*
X84649285Y60821143D01*
X84649285Y61249715D01*
X84720714Y61392572D01*
X84792142Y61464000D01*
X84935000Y61535429D01*
X85149285Y61535429D01*
X85292142Y61464000D01*
X85363571Y61392572D01*
X85435000Y61249715D01*
X85435000Y60821143D01*
X85363571Y60678286D01*
X85292142Y60606858D01*
X85149285Y60535429D01*
X84935000Y60535429D01*
X86077857Y60535429D02*
X86077857Y61535429D01*
X86077857Y61249715D02*
X86149285Y61392572D01*
X86220714Y61464000D01*
X86363571Y61535429D01*
X86506428Y61535429D01*
X86792142Y61535429D02*
X87363571Y61535429D01*
X87006428Y62035429D02*
X87006428Y60749715D01*
X87077857Y60606858D01*
X87220714Y60535429D01*
X87363571Y60535429D01*
D10*
%TO.C,J3*%
X94916666Y79287620D02*
X94916666Y78573334D01*
X94869047Y78430477D01*
X94773809Y78335239D01*
X94630952Y78287620D01*
X94535714Y78287620D01*
X95297619Y79287620D02*
X95916666Y79287620D01*
X95583333Y78906667D01*
X95726190Y78906667D01*
X95821428Y78859048D01*
X95869047Y78811429D01*
X95916666Y78716191D01*
X95916666Y78478096D01*
X95869047Y78382858D01*
X95821428Y78335239D01*
X95726190Y78287620D01*
X95440476Y78287620D01*
X95345238Y78335239D01*
X95297619Y78382858D01*
X97877571Y78287620D02*
X97401380Y78287620D01*
X97401380Y79287620D01*
X98210904Y78287620D02*
X98210904Y78954286D01*
X98210904Y79287620D02*
X98163285Y79240000D01*
X98210904Y79192381D01*
X98258523Y79240000D01*
X98210904Y79287620D01*
X98210904Y79192381D01*
X98687095Y78954286D02*
X98687095Y78287620D01*
X98687095Y78859048D02*
X98734714Y78906667D01*
X98829952Y78954286D01*
X98972809Y78954286D01*
X99068047Y78906667D01*
X99115666Y78811429D01*
X99115666Y78287620D01*
X99972809Y78335239D02*
X99877571Y78287620D01*
X99687095Y78287620D01*
X99591857Y78335239D01*
X99544238Y78430477D01*
X99544238Y78811429D01*
X99591857Y78906667D01*
X99687095Y78954286D01*
X99877571Y78954286D01*
X99972809Y78906667D01*
X100020428Y78811429D01*
X100020428Y78716191D01*
X99544238Y78620953D01*
X100639476Y79287620D02*
X100829952Y79287620D01*
X100925190Y79240000D01*
X101020428Y79144762D01*
X101068047Y78954286D01*
X101068047Y78620953D01*
X101020428Y78430477D01*
X100925190Y78335239D01*
X100829952Y78287620D01*
X100639476Y78287620D01*
X100544238Y78335239D01*
X100449000Y78430477D01*
X100401380Y78620953D01*
X100401380Y78954286D01*
X100449000Y79144762D01*
X100544238Y79240000D01*
X100639476Y79287620D01*
X101925190Y78954286D02*
X101925190Y78287620D01*
X101496619Y78954286D02*
X101496619Y78430477D01*
X101544238Y78335239D01*
X101639476Y78287620D01*
X101782333Y78287620D01*
X101877571Y78335239D01*
X101925190Y78382858D01*
X102258523Y78954286D02*
X102639476Y78954286D01*
X102401380Y79287620D02*
X102401380Y78430477D01*
X102449000Y78335239D01*
X102544238Y78287620D01*
X102639476Y78287620D01*
D14*
%TO.C,JP2*%
X26610000Y19050000D02*
X26610000Y6290000D01*
X26610000Y6290000D02*
X31810000Y6290000D01*
X26610000Y19050000D02*
X29210000Y19050000D01*
X26610000Y20320000D02*
X26610000Y21650000D01*
X31810000Y21650000D02*
X31810000Y6290000D01*
X26610000Y21650000D02*
X27940000Y21650000D01*
X29210000Y19050000D02*
X29210000Y21650000D01*
X29210000Y21650000D02*
X31810000Y21650000D01*
%TO.C,C6*%
X57799000Y39020000D02*
X56541000Y39020000D01*
X57799000Y37180000D02*
X56541000Y37180000D01*
%TO.C,C5*%
X56541000Y27590000D02*
X57799000Y27590000D01*
X56541000Y25750000D02*
X57799000Y25750000D01*
%TO.C,C3*%
X32399000Y27590000D02*
X31141000Y27590000D01*
X32399000Y25750000D02*
X31141000Y25750000D01*
%TO.C,U6*%
X59630000Y33290000D02*
X59630000Y32040000D01*
X85150000Y36540000D02*
X59630000Y36540000D01*
X85150000Y32040000D02*
X85150000Y36540000D01*
X59630000Y32040000D02*
X85150000Y32040000D01*
X59630000Y36540000D02*
X59630000Y35290000D01*
X59630000Y33290000D02*
G75*
G03*
X59630000Y35290000I0J1000000D01*
G01*
%TO.C,J2*%
X94387929Y52960000D02*
X94785000Y52960000D01*
X97445000Y61340000D02*
X103445000Y61340000D01*
X91847929Y51180000D02*
X92302071Y51180000D01*
X91847929Y58040000D02*
X92302071Y58040000D01*
X91847929Y58800000D02*
X92302071Y58800000D01*
X91847929Y53720000D02*
X92302071Y53720000D01*
X103445000Y50420000D02*
X97445000Y50420000D01*
X94785000Y57150000D02*
X97445000Y57150000D01*
X103445000Y58040000D02*
X97445000Y58040000D01*
X91847929Y50420000D02*
X92302071Y50420000D01*
X97445000Y53720000D02*
X103445000Y53720000D01*
X94785000Y49470000D02*
X97445000Y49470000D01*
X94785000Y52070000D02*
X97445000Y52070000D01*
X103445000Y60580000D02*
X97445000Y60580000D01*
X91847929Y55500000D02*
X92302071Y55500000D01*
X103445000Y51180000D02*
X103445000Y50420000D01*
X97445000Y61160000D02*
X103445000Y61160000D01*
X91847929Y56260000D02*
X92302071Y56260000D01*
X97445000Y60920000D02*
X103445000Y60920000D01*
X94387929Y53720000D02*
X94785000Y53720000D01*
X97445000Y60800000D02*
X103445000Y60800000D01*
X94387929Y55500000D02*
X94785000Y55500000D01*
X97445000Y58800000D02*
X103445000Y58800000D01*
X94387929Y58800000D02*
X94785000Y58800000D01*
X94387929Y58040000D02*
X94785000Y58040000D01*
X97445000Y61040000D02*
X103445000Y61040000D01*
X97445000Y62290000D02*
X94785000Y62290000D01*
X91915000Y61340000D02*
X92302071Y61340000D01*
X97445000Y49470000D02*
X97445000Y62290000D01*
X94387929Y56260000D02*
X94785000Y56260000D01*
X94387929Y60580000D02*
X94785000Y60580000D01*
X103445000Y55500000D02*
X97445000Y55500000D01*
X94785000Y59690000D02*
X97445000Y59690000D01*
X94387929Y61340000D02*
X94785000Y61340000D01*
X89535000Y60960000D02*
X89535000Y62230000D01*
X103445000Y56260000D02*
X103445000Y55500000D01*
X103445000Y52960000D02*
X97445000Y52960000D01*
X94785000Y54610000D02*
X97445000Y54610000D01*
X91915000Y60580000D02*
X92302071Y60580000D01*
X97445000Y51180000D02*
X103445000Y51180000D01*
X89535000Y62230000D02*
X90805000Y62230000D01*
X97445000Y61280000D02*
X103445000Y61280000D01*
X94387929Y51180000D02*
X94785000Y51180000D01*
X97445000Y56260000D02*
X103445000Y56260000D01*
X103445000Y58800000D02*
X103445000Y58040000D01*
X94785000Y62290000D02*
X94785000Y49470000D01*
X94387929Y50420000D02*
X94785000Y50420000D01*
X103445000Y61340000D02*
X103445000Y60580000D01*
X103445000Y53720000D02*
X103445000Y52960000D01*
X97445000Y60680000D02*
X103445000Y60680000D01*
X91847929Y52960000D02*
X92302071Y52960000D01*
%TO.C,U8*%
X53400000Y32040000D02*
X53400000Y36540000D01*
X35500000Y33290000D02*
X35500000Y32040000D01*
X35500000Y36540000D02*
X35500000Y35290000D01*
X53400000Y36540000D02*
X35500000Y36540000D01*
X35500000Y32040000D02*
X53400000Y32040000D01*
X35500000Y33290000D02*
G75*
G03*
X35500000Y35290000I0J1000000D01*
G01*
%TO.C,U5*%
X59630000Y25110000D02*
X59630000Y23860000D01*
X59630000Y20610000D02*
X85150000Y20610000D01*
X85150000Y20610000D02*
X85150000Y25110000D01*
X59630000Y21860000D02*
X59630000Y20610000D01*
X85150000Y25110000D02*
X59630000Y25110000D01*
X59630000Y21860000D02*
G75*
G03*
X59630000Y23860000I0J1000000D01*
G01*
%TO.C,U9*%
X64830000Y49820000D02*
X64830000Y61940000D01*
X13910000Y61940000D02*
X13910000Y56880000D01*
X64830000Y61940000D02*
X13910000Y61940000D01*
X13910000Y49820000D02*
X64830000Y49820000D01*
X13910000Y54880000D02*
X13910000Y49820000D01*
X13910000Y54880000D02*
G75*
G03*
X13910000Y56880000I0J1000000D01*
G01*
%TO.C,C1*%
X33940000Y13361000D02*
X33940000Y14619000D01*
X32100000Y13361000D02*
X32100000Y14619000D01*
%TO.C,U2*%
X24190000Y13680000D02*
X3750000Y13680000D01*
X24190000Y9180000D02*
X24190000Y13680000D01*
X3750000Y13680000D02*
X3750000Y12430000D01*
X3750000Y10430000D02*
X3750000Y9180000D01*
X3750000Y9180000D02*
X24190000Y9180000D01*
X3750000Y10430000D02*
G75*
G03*
X3750000Y12430000I0J1000000D01*
G01*
%TO.C,U4*%
X85150000Y9180000D02*
X85150000Y13680000D01*
X59630000Y9180000D02*
X85150000Y9180000D01*
X85150000Y13680000D02*
X59630000Y13680000D01*
X59630000Y13680000D02*
X59630000Y12430000D01*
X59630000Y10430000D02*
X59630000Y9180000D01*
X59630000Y10430000D02*
G75*
G03*
X59630000Y12430000I0J1000000D01*
G01*
%TO.C,U1*%
X54670000Y9180000D02*
X54670000Y13680000D01*
X34230000Y9180000D02*
X54670000Y9180000D01*
X34230000Y13680000D02*
X34230000Y12430000D01*
X54670000Y13680000D02*
X34230000Y13680000D01*
X34230000Y10430000D02*
X34230000Y9180000D01*
X34230000Y10430000D02*
G75*
G03*
X34230000Y12430000I0J1000000D01*
G01*
%TO.C,U3*%
X53400000Y25110000D02*
X35500000Y25110000D01*
X35500000Y20610000D02*
X53400000Y20610000D01*
X53400000Y20610000D02*
X53400000Y25110000D01*
X35500000Y21860000D02*
X35500000Y20610000D01*
X35500000Y25110000D02*
X35500000Y23860000D01*
X35500000Y21860000D02*
G75*
G03*
X35500000Y23860000I0J1000000D01*
G01*
%TO.C,U7*%
X22920000Y36540000D02*
X5020000Y36540000D01*
X5020000Y36540000D02*
X5020000Y35290000D01*
X5020000Y33290000D02*
X5020000Y32040000D01*
X22920000Y32040000D02*
X22920000Y36540000D01*
X5020000Y32040000D02*
X22920000Y32040000D01*
X5020000Y33290000D02*
G75*
G03*
X5020000Y35290000I0J1000000D01*
G01*
%TO.C,C2*%
X661000Y16160000D02*
X1919000Y16160000D01*
X661000Y14320000D02*
X1919000Y14320000D01*
%TO.C,J5*%
X69100000Y45590000D02*
X69100000Y66170000D01*
X76910000Y46890000D02*
X70410000Y46890000D01*
X67710000Y61460000D02*
X67710000Y60460000D01*
X69100000Y66170000D02*
X78220000Y66170000D01*
X70410000Y53830000D02*
X70410000Y53830000D01*
X78220000Y66170000D02*
X78220000Y45590000D01*
X69100000Y57930000D02*
X70410000Y57930000D01*
X68710000Y60960000D02*
X67710000Y61460000D01*
X76910000Y64870000D02*
X76910000Y46890000D01*
X67710000Y60460000D02*
X68710000Y60960000D01*
X70410000Y53830000D02*
X69100000Y53830000D01*
X70410000Y64870000D02*
X76910000Y64870000D01*
X70410000Y57930000D02*
X70410000Y64870000D01*
X78220000Y45590000D02*
X69100000Y45590000D01*
X70410000Y46890000D02*
X70410000Y53830000D01*
%TO.C,R2*%
X29310000Y31020000D02*
X29310000Y37560000D01*
X26570000Y31020000D02*
X26570000Y37560000D01*
X28980000Y31020000D02*
X29310000Y31020000D01*
X26570000Y37560000D02*
X26900000Y37560000D01*
X29310000Y37560000D02*
X28980000Y37560000D01*
X26900000Y31020000D02*
X26570000Y31020000D01*
%TO.C,C10*%
X40019000Y66960000D02*
X38761000Y66960000D01*
X40019000Y65120000D02*
X38761000Y65120000D01*
%TO.C,C9*%
X37479000Y44800000D02*
X36221000Y44800000D01*
X37479000Y46640000D02*
X36221000Y46640000D01*
%TO.C,J4*%
X11030000Y53840000D02*
X10030000Y53340000D01*
X8330000Y49430000D02*
X1830000Y49430000D01*
X9640000Y63630000D02*
X9640000Y48130000D01*
X8330000Y53830000D02*
X8330000Y49430000D01*
X9640000Y48130000D02*
X520000Y48130000D01*
X8330000Y62330000D02*
X8330000Y57930000D01*
X9640000Y53830000D02*
X8330000Y53830000D01*
X520000Y48130000D02*
X520000Y63630000D01*
X1830000Y49430000D02*
X1830000Y62330000D01*
X8330000Y57930000D02*
X8330000Y57930000D01*
X10030000Y53340000D02*
X11030000Y52840000D01*
X11030000Y52840000D02*
X11030000Y53840000D01*
X1830000Y62330000D02*
X8330000Y62330000D01*
X8330000Y57930000D02*
X9640000Y57930000D01*
X520000Y63630000D02*
X9640000Y63630000D01*
%TO.C,J1*%
X91710662Y30305000D02*
X92143675Y30055000D01*
X92605000Y40020000D02*
X104945000Y40020000D01*
X91710662Y29805000D02*
X91710662Y30305000D01*
X92143675Y30055000D02*
X91710662Y29805000D01*
X92605000Y700000D02*
X92605000Y40020000D01*
X104945000Y700000D02*
X92605000Y700000D01*
%TO.C,R4*%
X91210000Y22982500D02*
X91540000Y22982500D01*
X88800000Y29522500D02*
X89130000Y29522500D01*
X91540000Y22982500D02*
X91540000Y29522500D01*
X91540000Y29522500D02*
X91210000Y29522500D01*
X88800000Y22982500D02*
X88800000Y29522500D01*
X89130000Y22982500D02*
X88800000Y22982500D01*
%TO.C,Y1*%
X50925000Y41290000D02*
X44525000Y41290000D01*
X50925000Y46340000D02*
X44525000Y46340000D01*
X44525000Y46340000D02*
G75*
G03*
X44525000Y41290000I0J-2525000D01*
G01*
X50925000Y41290000D02*
G75*
G03*
X50925000Y46340000I0J2525000D01*
G01*
%TO.C,C7*%
X1919000Y39020000D02*
X661000Y39020000D01*
X1919000Y37180000D02*
X661000Y37180000D01*
%TO.C,C4*%
X56541000Y16160000D02*
X57799000Y16160000D01*
X56541000Y14320000D02*
X57799000Y14320000D01*
%TO.C,R3*%
X31850000Y31020000D02*
X31850000Y37560000D01*
X31850000Y37560000D02*
X31520000Y37560000D01*
X29110000Y31020000D02*
X29110000Y37560000D01*
X29440000Y31020000D02*
X29110000Y31020000D01*
X31520000Y31020000D02*
X31850000Y31020000D01*
X29110000Y37560000D02*
X29440000Y37560000D01*
%TO.C,C8*%
X36209000Y41560000D02*
X34951000Y41560000D01*
X36209000Y39720000D02*
X34951000Y39720000D01*
%TO.C,R1*%
X22130000Y44855000D02*
X22130000Y45185000D01*
X22130000Y42775000D02*
X22130000Y42445000D01*
X28670000Y45185000D02*
X28670000Y44855000D01*
X28670000Y42445000D02*
X28670000Y42775000D01*
X22130000Y45185000D02*
X28670000Y45185000D01*
X22130000Y42445000D02*
X28670000Y42445000D01*
%TO.C,R5*%
X89130000Y11235000D02*
X88800000Y11235000D01*
X91210000Y11235000D02*
X91540000Y11235000D01*
X88800000Y17775000D02*
X89130000Y17775000D01*
X91540000Y17775000D02*
X91210000Y17775000D01*
X91540000Y11235000D02*
X91540000Y17775000D01*
X88800000Y11235000D02*
X88800000Y17775000D01*
%TO.C,J8*%
X81340000Y-7660000D02*
X81340000Y1290000D01*
X-60000Y1290000D02*
X-60000Y-7660000D01*
X-460000Y1290000D02*
X-60000Y1290000D01*
X81340000Y1290000D02*
X81740000Y1290000D01*
%TO.C,J6*%
X82610000Y85150000D02*
X82610000Y83820000D01*
X81280000Y85150000D02*
X82610000Y85150000D01*
X49470000Y85150000D02*
X49470000Y79950000D01*
X80010000Y82550000D02*
X82610000Y82550000D01*
X80010000Y85150000D02*
X80010000Y82550000D01*
X80010000Y85150000D02*
X49470000Y85150000D01*
X82610000Y79950000D02*
X49470000Y79950000D01*
X82610000Y82550000D02*
X82610000Y79950000D01*
%TO.C,J7*%
X34925000Y75057000D02*
X34925000Y86487000D01*
X21590000Y75057000D02*
X21590000Y80899000D01*
X27051000Y75057000D02*
X27051000Y74676000D01*
X32131000Y75057000D02*
X32131000Y74676000D01*
X34290000Y83693000D02*
X34290000Y86487000D01*
X25908000Y72898000D02*
X25146000Y72898000D01*
X31750000Y83693000D02*
X31750000Y86487000D01*
X33401000Y72898000D02*
X32512000Y72898000D01*
X34925000Y86487000D02*
X20955000Y86487000D01*
X31369000Y75057000D02*
X31369000Y74676000D01*
X26289000Y75057000D02*
X26289000Y74676000D01*
X33401000Y72898000D02*
X33401000Y75057000D01*
X26289000Y83693000D02*
X26289000Y77597000D01*
X34290000Y75057000D02*
X34290000Y80899000D01*
X26416000Y85217000D02*
X29464000Y85217000D01*
X28448000Y72898000D02*
X27432000Y72898000D01*
X22860000Y83693000D02*
X23749000Y86487000D01*
X29591000Y77597000D02*
X29591000Y83693000D01*
X23749000Y75057000D02*
X23749000Y74676000D01*
X26289000Y77597000D02*
X29591000Y77597000D01*
X29591000Y82931000D02*
X31242000Y82931000D01*
X22479000Y75057000D02*
X22479000Y72898000D01*
X20955000Y86487000D02*
X20955000Y75057000D01*
X24638000Y82931000D02*
X26289000Y82931000D01*
X26289000Y83693000D02*
X27051000Y83693000D01*
X21590000Y83693000D02*
X21590000Y86487000D01*
X24892000Y72390000D02*
X23368000Y72390000D01*
X30734000Y82931000D02*
X30734000Y83947000D01*
X20955000Y75057000D02*
X34925000Y75057000D01*
X24511000Y75057000D02*
X24511000Y74676000D01*
X28829000Y77597000D02*
X28829000Y83693000D01*
X30988000Y72898000D02*
X29972000Y72898000D01*
X29591000Y75057000D02*
X29591000Y74676000D01*
X28829000Y83693000D02*
X29591000Y83693000D01*
X25146000Y82931000D02*
X25146000Y83947000D01*
X24130000Y86487000D02*
X24130000Y83693000D01*
X23114000Y72898000D02*
X22479000Y72898000D01*
X21971000Y86487000D02*
X22860000Y83693000D01*
X28829000Y75057000D02*
X28829000Y74676000D01*
X27051000Y83693000D02*
X27051000Y77597000D01*
X26416000Y85217000D02*
G75*
G03*
X25146000Y83947000I0J-1270000D01*
G01*
X30734000Y83947000D02*
G75*
G03*
X29464000Y85217000I-1270000J0D01*
G01*
%TO.C,C16*%
X50950000Y76530000D02*
X50950000Y73290000D01*
X53190000Y76530000D02*
X53190000Y73290000D01*
X53190000Y76530000D02*
X53125000Y76530000D01*
X53190000Y73290000D02*
X53125000Y73290000D01*
X51015000Y73290000D02*
X50950000Y73290000D01*
X51015000Y76530000D02*
X50950000Y76530000D01*
%TO.C,U10*%
X12170000Y72445000D02*
X15770000Y72445000D01*
X15808478Y72456522D02*
G75*
G03*
X13970000Y76895000I-1838478J1838478D01*
G01*
X13970000Y76895001D02*
G75*
G03*
X12131522Y72456522I0J-2600001D01*
G01*
%TO.C,U11*%
X54080000Y72445000D02*
X57680000Y72445000D01*
X55880000Y76895001D02*
G75*
G03*
X54041522Y72456522I0J-2600001D01*
G01*
X57718478Y72456522D02*
G75*
G03*
X55880000Y76895000I-1838478J1838478D01*
G01*
%TO.C,F1*%
X102100000Y46970000D02*
X102100000Y42870000D01*
X93500000Y46970000D02*
X102100000Y46970000D01*
X93500000Y42870000D02*
X102100000Y42870000D01*
X93500000Y46970000D02*
X93500000Y42870000D01*
%TO.C,U12*%
X47050000Y79720000D02*
X36770000Y79720000D01*
X47050000Y75220000D02*
X47050000Y79720000D01*
X36770000Y79720000D02*
X36770000Y78470000D01*
X36770000Y75220000D02*
X47050000Y75220000D01*
X36770000Y76470000D02*
X36770000Y75220000D01*
X36770000Y76470000D02*
G75*
G03*
X36770000Y78470000I0J1000000D01*
G01*
%TO.C,C15*%
X16725000Y73290000D02*
X16660000Y73290000D01*
X16660000Y76530000D02*
X16660000Y73290000D01*
X18900000Y76530000D02*
X18835000Y76530000D01*
X18900000Y73290000D02*
X18835000Y73290000D01*
X16725000Y76530000D02*
X16660000Y76530000D01*
X18900000Y76530000D02*
X18900000Y73290000D01*
%TO.C,C11*%
X53690000Y43166000D02*
X53690000Y44424000D01*
X55530000Y43166000D02*
X55530000Y44424000D01*
%TO.C,C12*%
X41560000Y43166000D02*
X41560000Y44424000D01*
X39720000Y43166000D02*
X39720000Y44424000D01*
%TO.C,C17*%
X-421000Y19891000D02*
X-421000Y20550000D01*
X1300000Y22630000D02*
X1300000Y24159000D01*
X259000Y22630000D02*
X259000Y23837000D01*
X1540000Y19010000D02*
X1540000Y20550000D01*
X339000Y19300000D02*
X339000Y20550000D01*
X-221000Y19689000D02*
X-221000Y20550000D01*
X-901000Y20675000D02*
X-901000Y22505000D01*
X699000Y19148000D02*
X699000Y20550000D01*
X-301000Y22630000D02*
X-301000Y23416000D01*
X1420000Y22630000D02*
X1420000Y24168000D01*
X1380000Y22630000D02*
X1380000Y24166000D01*
X1060000Y22630000D02*
X1060000Y24126000D01*
X1060000Y19054000D02*
X1060000Y20550000D01*
X419000Y22630000D02*
X419000Y23919000D01*
X980000Y22630000D02*
X980000Y24110000D01*
X-261000Y19726000D02*
X-261000Y20550000D01*
X379000Y22630000D02*
X379000Y23900000D01*
X1500000Y19010000D02*
X1500000Y20550000D01*
X299000Y22630000D02*
X299000Y23858000D01*
X980000Y19070000D02*
X980000Y20550000D01*
X-261000Y22630000D02*
X-261000Y23454000D01*
X-421000Y22630000D02*
X-421000Y23289000D01*
X619000Y22630000D02*
X619000Y24004000D01*
X860000Y19099000D02*
X860000Y20550000D01*
X1420000Y19012000D02*
X1420000Y20550000D01*
X19000Y22630000D02*
X19000Y23685000D01*
X-461000Y19937000D02*
X-461000Y20550000D01*
X1220000Y19029000D02*
X1220000Y20550000D01*
X-341000Y22630000D02*
X-341000Y23375000D01*
X179000Y19390000D02*
X179000Y20550000D01*
X-301000Y19764000D02*
X-301000Y20550000D01*
X779000Y22630000D02*
X779000Y24058000D01*
X-941000Y20785000D02*
X-941000Y22395000D01*
X-821000Y20492000D02*
X-821000Y22688000D01*
X-141000Y19619000D02*
X-141000Y20550000D01*
X579000Y19192000D02*
X579000Y20550000D01*
X499000Y19225000D02*
X499000Y20550000D01*
X1100000Y19047000D02*
X1100000Y20550000D01*
X1140000Y19040000D02*
X1140000Y20550000D01*
X-341000Y19805000D02*
X-341000Y20550000D01*
X860000Y22630000D02*
X860000Y24081000D01*
X139000Y22630000D02*
X139000Y23765000D01*
X819000Y22630000D02*
X819000Y24070000D01*
X259000Y19343000D02*
X259000Y20550000D01*
X1220000Y22630000D02*
X1220000Y24151000D01*
X-381000Y19847000D02*
X-381000Y20550000D01*
X299000Y19322000D02*
X299000Y20550000D01*
X339000Y22630000D02*
X339000Y23880000D01*
X-581000Y20090000D02*
X-581000Y23090000D01*
X739000Y22630000D02*
X739000Y24045000D01*
X-21000Y22630000D02*
X-21000Y23655000D01*
X4344775Y20115000D02*
X3844775Y20115000D01*
X1180000Y19034000D02*
X1180000Y20550000D01*
X59000Y22630000D02*
X59000Y23712000D01*
X-741000Y20339000D02*
X-741000Y22841000D01*
X619000Y19176000D02*
X619000Y20550000D01*
X1460000Y19011000D02*
X1460000Y20550000D01*
X539000Y19208000D02*
X539000Y20550000D01*
X19000Y19495000D02*
X19000Y20550000D01*
X1260000Y22630000D02*
X1260000Y24155000D01*
X99000Y22630000D02*
X99000Y23739000D01*
X940000Y22630000D02*
X940000Y24101000D01*
X59000Y19468000D02*
X59000Y20550000D01*
X-101000Y22630000D02*
X-101000Y23594000D01*
X1180000Y22630000D02*
X1180000Y24146000D01*
X4094775Y19865000D02*
X4094775Y20365000D01*
X-981000Y20913000D02*
X-981000Y22267000D01*
X139000Y19415000D02*
X139000Y20550000D01*
X499000Y22630000D02*
X499000Y23955000D01*
X1100000Y22630000D02*
X1100000Y24133000D01*
X-461000Y22630000D02*
X-461000Y23243000D01*
X900000Y22630000D02*
X900000Y24091000D01*
X179000Y22630000D02*
X179000Y23790000D01*
X1020000Y19062000D02*
X1020000Y20550000D01*
X1500000Y22630000D02*
X1500000Y24170000D01*
X940000Y19079000D02*
X940000Y20550000D01*
X-701000Y20271000D02*
X-701000Y22909000D01*
X-1021000Y21072000D02*
X-1021000Y22108000D01*
X1020000Y22630000D02*
X1020000Y24118000D01*
X419000Y19261000D02*
X419000Y20550000D01*
X219000Y22630000D02*
X219000Y23814000D01*
X699000Y22630000D02*
X699000Y24032000D01*
X659000Y22630000D02*
X659000Y24018000D01*
X-1061000Y21306000D02*
X-1061000Y21874000D01*
X1140000Y22630000D02*
X1140000Y24140000D01*
X1540000Y22630000D02*
X1540000Y24170000D01*
X1340000Y22630000D02*
X1340000Y24163000D01*
X819000Y19110000D02*
X819000Y20550000D01*
X-181000Y19653000D02*
X-181000Y20550000D01*
X459000Y22630000D02*
X459000Y23938000D01*
X-181000Y22630000D02*
X-181000Y23527000D01*
X-541000Y20036000D02*
X-541000Y23144000D01*
X-221000Y22630000D02*
X-221000Y23491000D01*
X1380000Y19014000D02*
X1380000Y20550000D01*
X459000Y19242000D02*
X459000Y20550000D01*
X739000Y19135000D02*
X739000Y20550000D01*
X1460000Y22630000D02*
X1460000Y24169000D01*
X379000Y19280000D02*
X379000Y20550000D01*
X-661000Y20207000D02*
X-661000Y22973000D01*
X-621000Y20147000D02*
X-621000Y23033000D01*
X579000Y22630000D02*
X579000Y23988000D01*
X779000Y19122000D02*
X779000Y20550000D01*
X-781000Y20412000D02*
X-781000Y22768000D01*
X-381000Y22630000D02*
X-381000Y23333000D01*
X900000Y19089000D02*
X900000Y20550000D01*
X-861000Y20579000D02*
X-861000Y22601000D01*
X-61000Y22630000D02*
X-61000Y23625000D01*
X-101000Y19586000D02*
X-101000Y20550000D01*
X659000Y19162000D02*
X659000Y20550000D01*
X-501000Y19985000D02*
X-501000Y23195000D01*
X219000Y19366000D02*
X219000Y20550000D01*
X1340000Y19017000D02*
X1340000Y20550000D01*
X1260000Y19025000D02*
X1260000Y20550000D01*
X99000Y19441000D02*
X99000Y20550000D01*
X-21000Y19525000D02*
X-21000Y20550000D01*
X-61000Y19555000D02*
X-61000Y20550000D01*
X539000Y22630000D02*
X539000Y23972000D01*
X1300000Y19021000D02*
X1300000Y20550000D01*
X-141000Y22630000D02*
X-141000Y23561000D01*
X4160000Y21590000D02*
G75*
G03*
X4160000Y21590000I-2620000J0D01*
G01*
%TO.C,C13*%
X9040000Y73290000D02*
X9105000Y73290000D01*
X11280000Y73290000D02*
X11280000Y76530000D01*
X11215000Y76530000D02*
X11280000Y76530000D01*
X9040000Y76530000D02*
X9105000Y76530000D01*
X11215000Y73290000D02*
X11280000Y73290000D01*
X9040000Y73290000D02*
X9040000Y76530000D01*
%TO.C,C14*%
X60745000Y73290000D02*
X60810000Y73290000D01*
X58570000Y73290000D02*
X58635000Y73290000D01*
X60745000Y76530000D02*
X60810000Y76530000D01*
X58570000Y73290000D02*
X58570000Y76530000D01*
X58570000Y76530000D02*
X58635000Y76530000D01*
X60810000Y73290000D02*
X60810000Y76530000D01*
%TO.C,JP1*%
X10160000Y20260000D02*
X8830000Y20260000D01*
X19110000Y20260000D02*
X19110000Y25460000D01*
X8830000Y22860000D02*
X8830000Y25460000D01*
X8830000Y25460000D02*
X19110000Y25460000D01*
X11430000Y20260000D02*
X19110000Y20260000D01*
X11430000Y20260000D02*
X11430000Y22860000D01*
X8830000Y20260000D02*
X8830000Y21590000D01*
X11430000Y22860000D02*
X8830000Y22860000D01*
%TO.C,JP3*%
X83185000Y57150000D02*
X83185000Y59750000D01*
X80585000Y52010000D02*
X85785000Y52010000D01*
X80585000Y59750000D02*
X81915000Y59750000D01*
X83185000Y59750000D02*
X85785000Y59750000D01*
X80585000Y57150000D02*
X83185000Y57150000D01*
X80585000Y57150000D02*
X80585000Y52010000D01*
X80585000Y58420000D02*
X80585000Y59750000D01*
X85785000Y59750000D02*
X85785000Y52010000D01*
%TO.C,J3*%
X104720000Y75375000D02*
X108220000Y75375000D01*
X92980000Y77875000D02*
X104720000Y77875000D01*
X108220000Y75375000D02*
X108220000Y68135000D01*
X104720000Y65635000D02*
X92980000Y65635000D01*
X108220000Y68135000D02*
X104720000Y68135000D01*
X92980000Y65635000D02*
X92980000Y77875000D01*
X104720000Y68135000D02*
X104720000Y65635000D01*
X104720000Y77875000D02*
X104720000Y75375000D01*
%TD*%
M02*
