%TF.GenerationSoftware,KiCad,Pcbnew,(6.0.11)*%
%TF.CreationDate,2023-01-30T02:30:36-08:00*%
%TF.ProjectId,hardmpu-wt,68617264-6d70-4752-9d77-742e6b696361,rev?*%
%TF.SameCoordinates,PX525bfc0PY8670810*%
%TF.FileFunction,Copper,L1,Top*%
%TF.FilePolarity,Positive*%
%FSLAX46Y46*%
G04 Gerber Fmt 4.6, Leading zero omitted, Abs format (unit mm)*
G04 Created by KiCad (PCBNEW (6.0.11)) date 2023-01-30 02:30:36*
%MOMM*%
%LPD*%
G01*
G04 APERTURE LIST*
G04 Aperture macros list*
%AMRoundRect*
0 Rectangle with rounded corners*
0 $1 Rounding radius*
0 $2 $3 $4 $5 $6 $7 $8 $9 X,Y pos of 4 corners*
0 Add a 4 corners polygon primitive as box body*
4,1,4,$2,$3,$4,$5,$6,$7,$8,$9,$2,$3,0*
0 Add four circle primitives for the rounded corners*
1,1,$1+$1,$2,$3*
1,1,$1+$1,$4,$5*
1,1,$1+$1,$6,$7*
1,1,$1+$1,$8,$9*
0 Add four rect primitives between the rounded corners*
20,1,$1+$1,$2,$3,$4,$5,0*
20,1,$1+$1,$4,$5,$6,$7,0*
20,1,$1+$1,$6,$7,$8,$9,0*
20,1,$1+$1,$8,$9,$2,$3,0*%
G04 Aperture macros list end*
%TA.AperFunction,ComponentPad*%
%ADD10O,1.700000X1.700000*%
%TD*%
%TA.AperFunction,ComponentPad*%
%ADD11C,1.600000*%
%TD*%
%TA.AperFunction,ComponentPad*%
%ADD12RoundRect,0.400000X0.400000X-0.800000X0.400000X0.800000X-0.400000X0.800000X-0.400000X-0.800000X0*%
%TD*%
%TA.AperFunction,ComponentPad*%
%ADD13O,1.600000X2.400000*%
%TD*%
%TA.AperFunction,ComponentPad*%
%ADD14RoundRect,0.425000X-0.425000X-0.425000X0.425000X-0.425000X0.425000X0.425000X-0.425000X0.425000X0*%
%TD*%
%TA.AperFunction,ComponentPad*%
%ADD15RoundRect,0.250000X-0.600000X-0.600000X0.600000X-0.600000X0.600000X0.600000X-0.600000X0.600000X0*%
%TD*%
%TA.AperFunction,ComponentPad*%
%ADD16C,1.700000*%
%TD*%
%TA.AperFunction,ComponentPad*%
%ADD17O,1.600000X1.600000*%
%TD*%
%TA.AperFunction,ComponentPad*%
%ADD18RoundRect,0.250000X0.600000X0.600000X-0.600000X0.600000X-0.600000X-0.600000X0.600000X-0.600000X0*%
%TD*%
%TA.AperFunction,ComponentPad*%
%ADD19C,4.000000*%
%TD*%
%TA.AperFunction,ComponentPad*%
%ADD20RoundRect,0.400000X0.400000X-0.400000X0.400000X0.400000X-0.400000X0.400000X-0.400000X-0.400000X0*%
%TD*%
%TA.AperFunction,ComponentPad*%
%ADD21C,1.500000*%
%TD*%
%TA.AperFunction,ConnectorPad*%
%ADD22R,1.780000X7.620000*%
%TD*%
%TA.AperFunction,ComponentPad*%
%ADD23RoundRect,0.425000X-0.425000X0.425000X-0.425000X-0.425000X0.425000X-0.425000X0.425000X0.425000X0*%
%TD*%
%TA.AperFunction,ComponentPad*%
%ADD24RoundRect,0.425000X0.425000X-0.425000X0.425000X0.425000X-0.425000X0.425000X-0.425000X-0.425000X0*%
%TD*%
%TA.AperFunction,ComponentPad*%
%ADD25RoundRect,0.325000X-0.325000X-0.325000X0.325000X-0.325000X0.325000X0.325000X-0.325000X0.325000X0*%
%TD*%
%TA.AperFunction,ComponentPad*%
%ADD26C,1.300000*%
%TD*%
%TA.AperFunction,ComponentPad*%
%ADD27C,6.400000*%
%TD*%
%TA.AperFunction,ComponentPad*%
%ADD28C,1.270000*%
%TD*%
%TA.AperFunction,ComponentPad*%
%ADD29RoundRect,0.400000X0.400000X0.400000X-0.400000X0.400000X-0.400000X-0.400000X0.400000X-0.400000X0*%
%TD*%
%TA.AperFunction,ComponentPad*%
%ADD30O,2.300000X1.800000*%
%TD*%
%TA.AperFunction,ComponentPad*%
%ADD31O,1.800000X2.300000*%
%TD*%
%TA.AperFunction,ViaPad*%
%ADD32C,1.200000*%
%TD*%
%TA.AperFunction,ViaPad*%
%ADD33C,0.600000*%
%TD*%
%TA.AperFunction,Conductor*%
%ADD34C,0.254000*%
%TD*%
%TA.AperFunction,Conductor*%
%ADD35C,0.762000*%
%TD*%
G04 APERTURE END LIST*
D10*
%TO.P,JP2,1,Pin_1*%
%TO.N,/IRQ3*%
X27940000Y20320000D03*
%TO.P,JP2,2,Pin_2*%
%TO.N,/IRQ*%
X30480000Y20320000D03*
%TO.P,JP2,3,Pin_3*%
%TO.N,/IRQ4*%
X27940000Y17780000D03*
%TO.P,JP2,4,Pin_4*%
%TO.N,/IRQ*%
X30480000Y17780000D03*
%TO.P,JP2,5,Pin_5*%
%TO.N,/IRQ5*%
X27940000Y15240000D03*
%TO.P,JP2,6,Pin_6*%
%TO.N,/IRQ*%
X30480000Y15240000D03*
%TO.P,JP2,7,Pin_7*%
%TO.N,/IRQ6*%
X27940000Y12700000D03*
%TO.P,JP2,8,Pin_8*%
%TO.N,/IRQ*%
X30480000Y12700000D03*
%TO.P,JP2,9,Pin_9*%
%TO.N,/IRQ7*%
X27940000Y10160000D03*
%TO.P,JP2,10,Pin_10*%
%TO.N,/IRQ*%
X30480000Y10160000D03*
%TO.P,JP2,11,Pin_11*%
%TO.N,/IRQ9*%
X27940000Y7620000D03*
%TO.P,JP2,12,Pin_12*%
%TO.N,/IRQ*%
X30480000Y7620000D03*
%TD*%
D11*
%TO.P,C6,1*%
%TO.N,+5V*%
X58420000Y38100000D03*
%TO.P,C6,2*%
%TO.N,GND*%
X55920000Y38100000D03*
%TD*%
%TO.P,C5,1*%
%TO.N,GND*%
X55920000Y26670000D03*
%TO.P,C5,2*%
%TO.N,+5V*%
X58420000Y26670000D03*
%TD*%
%TO.P,C3,1*%
%TO.N,+5V*%
X33020000Y26670000D03*
%TO.P,C3,2*%
%TO.N,GND*%
X30520000Y26670000D03*
%TD*%
D12*
%TO.P,U6,1,1OE*%
%TO.N,GND*%
X60960000Y30480000D03*
D13*
%TO.P,U6,2,1A0*%
%TO.N,/~{DSR}*%
X63500000Y30480000D03*
%TO.P,U6,3,2Y0*%
%TO.N,unconnected-(U6-Pad3)*%
X66040000Y30480000D03*
%TO.P,U6,4,1A1*%
%TO.N,GND*%
X68580000Y30480000D03*
%TO.P,U6,5,2Y1*%
%TO.N,unconnected-(U6-Pad5)*%
X71120000Y30480000D03*
%TO.P,U6,6,1A2*%
%TO.N,GND*%
X73660000Y30480000D03*
%TO.P,U6,7,2Y2*%
%TO.N,/DB6*%
X76200000Y30480000D03*
%TO.P,U6,8,1A3*%
%TO.N,/RESET*%
X78740000Y30480000D03*
%TO.P,U6,9,2Y3*%
%TO.N,/DB7*%
X81280000Y30480000D03*
%TO.P,U6,10,GND*%
%TO.N,GND*%
X83820000Y30480000D03*
%TO.P,U6,11,2A3*%
%TO.N,/DSR*%
X83820000Y38100000D03*
%TO.P,U6,12,1Y3*%
%TO.N,~{RESET}*%
X81280000Y38100000D03*
%TO.P,U6,13,2A2*%
%TO.N,/~{DRR}*%
X78740000Y38100000D03*
%TO.P,U6,14,1Y2*%
%TO.N,unconnected-(U6-Pad14)*%
X76200000Y38100000D03*
%TO.P,U6,15,2A1*%
%TO.N,GND*%
X73660000Y38100000D03*
%TO.P,U6,16,1Y1*%
%TO.N,unconnected-(U6-Pad16)*%
X71120000Y38100000D03*
%TO.P,U6,17,2A0*%
%TO.N,GND*%
X68580000Y38100000D03*
%TO.P,U6,18,1Y0*%
%TO.N,/IRQ*%
X66040000Y38100000D03*
%TO.P,U6,19,2OE*%
%TO.N,/~{CR}*%
X63500000Y38100000D03*
%TO.P,U6,20,VCC*%
%TO.N,+5V*%
X60960000Y38100000D03*
%TD*%
D14*
%TO.P,J2,1,Pin_1*%
%TO.N,/RX1*%
X90805000Y60960000D03*
D10*
%TO.P,J2,2,Pin_2*%
%TO.N,/SDA*%
X93345000Y60960000D03*
%TO.P,J2,3,Pin_3*%
%TO.N,/TX1*%
X90805000Y58420000D03*
%TO.P,J2,4,Pin_4*%
%TO.N,/SCL*%
X93345000Y58420000D03*
%TO.P,J2,5,Pin_5*%
%TO.N,+5VP*%
X90805000Y55880000D03*
%TO.P,J2,6,Pin_6*%
%TO.N,/USER3*%
X93345000Y55880000D03*
%TO.P,J2,7,Pin_7*%
%TO.N,GND*%
X90805000Y53340000D03*
%TO.P,J2,8,Pin_8*%
%TO.N,/USER2*%
X93345000Y53340000D03*
%TO.P,J2,9,Pin_9*%
%TO.N,/USER0*%
X90805000Y50800000D03*
%TO.P,J2,10,Pin_10*%
%TO.N,/USER1*%
X93345000Y50800000D03*
%TD*%
D12*
%TO.P,U8,1,~{R}*%
%TO.N,/~{IDRRS}*%
X36830000Y30480000D03*
D13*
%TO.P,U8,2,D*%
%TO.N,+5V*%
X39370000Y30480000D03*
%TO.P,U8,3,C*%
%TO.N,/~{DW}*%
X41910000Y30480000D03*
%TO.P,U8,4,~{S}*%
%TO.N,+5V*%
X44450000Y30480000D03*
%TO.P,U8,5,Q*%
%TO.N,/DRR*%
X46990000Y30480000D03*
%TO.P,U8,6,~{Q}*%
%TO.N,/~{DRR}*%
X49530000Y30480000D03*
%TO.P,U8,7,GND*%
%TO.N,GND*%
X52070000Y30480000D03*
%TO.P,U8,8,~{Q}*%
%TO.N,unconnected-(U8-Pad8)*%
X52070000Y38100000D03*
%TO.P,U8,9,Q*%
%TO.N,/CRR*%
X49530000Y38100000D03*
%TO.P,U8,10,~{S}*%
%TO.N,+5V*%
X46990000Y38100000D03*
%TO.P,U8,11,C*%
%TO.N,/~{CW}*%
X44450000Y38100000D03*
%TO.P,U8,12,D*%
%TO.N,+5V*%
X41910000Y38100000D03*
%TO.P,U8,13,~{R}*%
%TO.N,/~{IDRRS}*%
X39370000Y38100000D03*
%TO.P,U8,14,VCC*%
%TO.N,+5V*%
X36830000Y38100000D03*
%TD*%
D12*
%TO.P,U5,1,OE*%
%TO.N,/~{IDR}*%
X60960000Y19050000D03*
D13*
%TO.P,U5,2,D0*%
%TO.N,/DB0*%
X63500000Y19050000D03*
%TO.P,U5,3,D1*%
%TO.N,/DB1*%
X66040000Y19050000D03*
%TO.P,U5,4,D2*%
%TO.N,/DB2*%
X68580000Y19050000D03*
%TO.P,U5,5,D3*%
%TO.N,/DB3*%
X71120000Y19050000D03*
%TO.P,U5,6,D4*%
%TO.N,/DB4*%
X73660000Y19050000D03*
%TO.P,U5,7,D5*%
%TO.N,/DB5*%
X76200000Y19050000D03*
%TO.P,U5,8,D6*%
%TO.N,/DB6*%
X78740000Y19050000D03*
%TO.P,U5,9,D7*%
%TO.N,/DB7*%
X81280000Y19050000D03*
%TO.P,U5,10,GND*%
%TO.N,GND*%
X83820000Y19050000D03*
%TO.P,U5,11,Cp*%
%TO.N,/~{DRCLK}*%
X83820000Y26670000D03*
%TO.P,U5,12,Q7*%
%TO.N,/D7*%
X81280000Y26670000D03*
%TO.P,U5,13,Q6*%
%TO.N,/D6*%
X78740000Y26670000D03*
%TO.P,U5,14,Q5*%
%TO.N,/D5*%
X76200000Y26670000D03*
%TO.P,U5,15,Q4*%
%TO.N,/D4*%
X73660000Y26670000D03*
%TO.P,U5,16,Q3*%
%TO.N,/D3*%
X71120000Y26670000D03*
%TO.P,U5,17,Q2*%
%TO.N,/D2*%
X68580000Y26670000D03*
%TO.P,U5,18,Q1*%
%TO.N,/D1*%
X66040000Y26670000D03*
%TO.P,U5,19,Q0*%
%TO.N,/D0*%
X63500000Y26670000D03*
%TO.P,U5,20,VCC*%
%TO.N,+5V*%
X60960000Y26670000D03*
%TD*%
D12*
%TO.P,U9,1,PB0*%
%TO.N,/DSR*%
X15240000Y48260000D03*
D13*
%TO.P,U9,2,PB1*%
%TO.N,/DRR*%
X17780000Y48260000D03*
%TO.P,U9,3,PB2*%
%TO.N,/CRR*%
X20320000Y48260000D03*
%TO.P,U9,4,PB3*%
%TO.N,/~{IDW}*%
X22860000Y48260000D03*
%TO.P,U9,5,PB4*%
%TO.N,/~{IDR}*%
X25400000Y48260000D03*
%TO.P,U9,6,PB5*%
%TO.N,/MOSI*%
X27940000Y48260000D03*
%TO.P,U9,7,PB6*%
%TO.N,/MISO*%
X30480000Y48260000D03*
%TO.P,U9,8,PB7*%
%TO.N,/SCK*%
X33020000Y48260000D03*
%TO.P,U9,9,~{RESET}*%
%TO.N,/~{AVRRST}*%
X35560000Y48260000D03*
%TO.P,U9,10,VCC*%
%TO.N,+5V*%
X38100000Y48260000D03*
%TO.P,U9,11,GND*%
%TO.N,GND*%
X40640000Y48260000D03*
%TO.P,U9,12,XTAL2*%
%TO.N,/X2*%
X43180000Y48260000D03*
%TO.P,U9,13,XTAL1*%
%TO.N,/X1*%
X45720000Y48260000D03*
%TO.P,U9,14,PD0*%
%TO.N,/RX0*%
X48260000Y48260000D03*
%TO.P,U9,15,PD1*%
%TO.N,/TX0*%
X50800000Y48260000D03*
%TO.P,U9,16,PD2*%
%TO.N,/RX1*%
X53340000Y48260000D03*
%TO.P,U9,17,PD3*%
%TO.N,/TX1*%
X55880000Y48260000D03*
%TO.P,U9,18,PD4*%
%TO.N,/USER0*%
X58420000Y48260000D03*
%TO.P,U9,19,PD5*%
%TO.N,/USER1*%
X60960000Y48260000D03*
%TO.P,U9,20,PD6*%
%TO.N,/USER2*%
X63500000Y48260000D03*
%TO.P,U9,21,PD7*%
%TO.N,/USER3*%
X63500000Y63500000D03*
%TO.P,U9,22,PC0*%
%TO.N,/SCL*%
X60960000Y63500000D03*
%TO.P,U9,23,PC1*%
%TO.N,/SDA*%
X58420000Y63500000D03*
%TO.P,U9,24,PC2*%
%TO.N,/TCK*%
X55880000Y63500000D03*
%TO.P,U9,25,PC3*%
%TO.N,/TMS*%
X53340000Y63500000D03*
%TO.P,U9,26,PC4*%
%TO.N,/TDO*%
X50800000Y63500000D03*
%TO.P,U9,27,PC5*%
%TO.N,/TDI*%
X48260000Y63500000D03*
%TO.P,U9,28,PC6*%
%TO.N,unconnected-(U9-Pad28)*%
X45720000Y63500000D03*
%TO.P,U9,29,PC7*%
%TO.N,unconnected-(U9-Pad29)*%
X43180000Y63500000D03*
%TO.P,U9,30,AVCC*%
%TO.N,+5V*%
X40640000Y63500000D03*
%TO.P,U9,31,GND*%
%TO.N,GND*%
X38100000Y63500000D03*
%TO.P,U9,32,AREF*%
%TO.N,unconnected-(U9-Pad32)*%
X35560000Y63500000D03*
%TO.P,U9,33,PA7*%
%TO.N,/D7*%
X33020000Y63500000D03*
%TO.P,U9,34,PA6*%
%TO.N,/D6*%
X30480000Y63500000D03*
%TO.P,U9,35,PA5*%
%TO.N,/D5*%
X27940000Y63500000D03*
%TO.P,U9,36,PA4*%
%TO.N,/D4*%
X25400000Y63500000D03*
%TO.P,U9,37,PA3*%
%TO.N,/D3*%
X22860000Y63500000D03*
%TO.P,U9,38,PA2*%
%TO.N,/D2*%
X20320000Y63500000D03*
%TO.P,U9,39,PA1*%
%TO.N,/D1*%
X17780000Y63500000D03*
%TO.P,U9,40,PA0*%
%TO.N,/D0*%
X15240000Y63500000D03*
%TD*%
D11*
%TO.P,C1,1*%
%TO.N,GND*%
X33020000Y12740000D03*
%TO.P,C1,2*%
%TO.N,+5V*%
X33020000Y15240000D03*
%TD*%
D12*
%TO.P,U2,1,A0*%
%TO.N,/BA4*%
X5080000Y7620000D03*
D13*
%TO.P,U2,2,A1*%
%TO.N,/BA5*%
X7620000Y7620000D03*
%TO.P,U2,3,A2*%
%TO.N,/BA7*%
X10160000Y7620000D03*
%TO.P,U2,4,E1*%
%TO.N,/BA6*%
X12700000Y7620000D03*
%TO.P,U2,5,E2*%
%TO.N,/AEN*%
X15240000Y7620000D03*
%TO.P,U2,6,E3*%
%TO.N,/BA8*%
X17780000Y7620000D03*
%TO.P,U2,7,O7*%
%TO.N,unconnected-(U2-Pad7)*%
X20320000Y7620000D03*
%TO.P,U2,8,GND*%
%TO.N,GND*%
X22860000Y7620000D03*
%TO.P,U2,9,O6*%
%TO.N,unconnected-(U2-Pad9)*%
X22860000Y15240000D03*
%TO.P,U2,10,O5*%
%TO.N,unconnected-(U2-Pad10)*%
X20320000Y15240000D03*
%TO.P,U2,11,O4*%
%TO.N,unconnected-(U2-Pad11)*%
X17780000Y15240000D03*
%TO.P,U2,12,O3*%
%TO.N,/330h*%
X15240000Y15240000D03*
%TO.P,U2,13,O2*%
%TO.N,/320h*%
X12700000Y15240000D03*
%TO.P,U2,14,O1*%
%TO.N,/310h*%
X10160000Y15240000D03*
%TO.P,U2,15,O0*%
%TO.N,/300h*%
X7620000Y15240000D03*
%TO.P,U2,16,VCC*%
%TO.N,+5V*%
X5080000Y15240000D03*
%TD*%
D12*
%TO.P,U4,1,OE*%
%TO.N,/~{DR}*%
X60960000Y7620000D03*
D13*
%TO.P,U4,2,D0*%
%TO.N,/D0*%
X63500000Y7620000D03*
%TO.P,U4,3,D1*%
%TO.N,/D1*%
X66040000Y7620000D03*
%TO.P,U4,4,D2*%
%TO.N,/D2*%
X68580000Y7620000D03*
%TO.P,U4,5,D3*%
%TO.N,/D3*%
X71120000Y7620000D03*
%TO.P,U4,6,D4*%
%TO.N,/D4*%
X73660000Y7620000D03*
%TO.P,U4,7,D5*%
%TO.N,/D5*%
X76200000Y7620000D03*
%TO.P,U4,8,D6*%
%TO.N,/D6*%
X78740000Y7620000D03*
%TO.P,U4,9,D7*%
%TO.N,/D7*%
X81280000Y7620000D03*
%TO.P,U4,10,GND*%
%TO.N,GND*%
X83820000Y7620000D03*
%TO.P,U4,11,Cp*%
%TO.N,/~{IDW}*%
X83820000Y15240000D03*
%TO.P,U4,12,Q7*%
%TO.N,/DB7*%
X81280000Y15240000D03*
%TO.P,U4,13,Q6*%
%TO.N,/DB6*%
X78740000Y15240000D03*
%TO.P,U4,14,Q5*%
%TO.N,/DB5*%
X76200000Y15240000D03*
%TO.P,U4,15,Q4*%
%TO.N,/DB4*%
X73660000Y15240000D03*
%TO.P,U4,16,Q3*%
%TO.N,/DB3*%
X71120000Y15240000D03*
%TO.P,U4,17,Q2*%
%TO.N,/DB2*%
X68580000Y15240000D03*
%TO.P,U4,18,Q1*%
%TO.N,/DB1*%
X66040000Y15240000D03*
%TO.P,U4,19,Q0*%
%TO.N,/DB0*%
X63500000Y15240000D03*
%TO.P,U4,20,VCC*%
%TO.N,+5V*%
X60960000Y15240000D03*
%TD*%
D12*
%TO.P,U1,1,A0*%
%TO.N,/BA0*%
X35560000Y7620000D03*
D13*
%TO.P,U1,2,A1*%
%TO.N,/~{IOR}*%
X38100000Y7620000D03*
%TO.P,U1,3,A2*%
%TO.N,/~{IOW}*%
X40640000Y7620000D03*
%TO.P,U1,4,E1*%
%TO.N,/BA3*%
X43180000Y7620000D03*
%TO.P,U1,5,E2*%
%TO.N,/~{IOCS}*%
X45720000Y7620000D03*
%TO.P,U1,6,E3*%
%TO.N,/BA9*%
X48260000Y7620000D03*
%TO.P,U1,7,O7*%
%TO.N,unconnected-(U1-Pad7)*%
X50800000Y7620000D03*
%TO.P,U1,8,GND*%
%TO.N,GND*%
X53340000Y7620000D03*
%TO.P,U1,9,O6*%
%TO.N,unconnected-(U1-Pad9)*%
X53340000Y15240000D03*
%TO.P,U1,10,O5*%
%TO.N,/~{CR}*%
X50800000Y15240000D03*
%TO.P,U1,11,O4*%
%TO.N,/~{DR}*%
X48260000Y15240000D03*
%TO.P,U1,12,O3*%
%TO.N,/~{CW}*%
X45720000Y15240000D03*
%TO.P,U1,13,O2*%
%TO.N,/~{DW}*%
X43180000Y15240000D03*
%TO.P,U1,14,O1*%
%TO.N,unconnected-(U1-Pad14)*%
X40640000Y15240000D03*
%TO.P,U1,15,O0*%
%TO.N,unconnected-(U1-Pad15)*%
X38100000Y15240000D03*
%TO.P,U1,16,VCC*%
%TO.N,+5V*%
X35560000Y15240000D03*
%TD*%
D12*
%TO.P,U3,1*%
%TO.N,/~{CW}*%
X36830000Y19050000D03*
D13*
%TO.P,U3,2*%
%TO.N,/~{DW}*%
X39370000Y19050000D03*
%TO.P,U3,3*%
%TO.N,/~{DRCLK}*%
X41910000Y19050000D03*
%TO.P,U3,4*%
%TO.N,/~{IDR}*%
X44450000Y19050000D03*
%TO.P,U3,5*%
%TO.N,~{RESET}*%
X46990000Y19050000D03*
%TO.P,U3,6*%
%TO.N,/~{IDRRS}*%
X49530000Y19050000D03*
%TO.P,U3,7,GND*%
%TO.N,GND*%
X52070000Y19050000D03*
%TO.P,U3,8*%
%TO.N,unconnected-(U3-Pad8)*%
X52070000Y26670000D03*
%TO.P,U3,9*%
%TO.N,GND*%
X49530000Y26670000D03*
%TO.P,U3,10*%
X46990000Y26670000D03*
%TO.P,U3,11*%
%TO.N,/~{DRRS}*%
X44450000Y26670000D03*
%TO.P,U3,12*%
%TO.N,/~{DR}*%
X41910000Y26670000D03*
%TO.P,U3,13*%
%TO.N,~{RESET}*%
X39370000Y26670000D03*
%TO.P,U3,14,VCC*%
%TO.N,+5V*%
X36830000Y26670000D03*
%TD*%
D12*
%TO.P,U7,1,~{R}*%
%TO.N,GND*%
X6350000Y30480000D03*
D13*
%TO.P,U7,2,D*%
X8890000Y30480000D03*
%TO.P,U7,3,C*%
X11430000Y30480000D03*
%TO.P,U7,4,~{S}*%
%TO.N,+5V*%
X13970000Y30480000D03*
%TO.P,U7,5,Q*%
%TO.N,unconnected-(U7-Pad5)*%
X16510000Y30480000D03*
%TO.P,U7,6,~{Q}*%
%TO.N,unconnected-(U7-Pad6)*%
X19050000Y30480000D03*
%TO.P,U7,7,GND*%
%TO.N,GND*%
X21590000Y30480000D03*
%TO.P,U7,8,~{Q}*%
%TO.N,/~{DSR}*%
X21590000Y38100000D03*
%TO.P,U7,9,Q*%
%TO.N,/DSR*%
X19050000Y38100000D03*
%TO.P,U7,10,~{S}*%
%TO.N,+5V*%
X16510000Y38100000D03*
%TO.P,U7,11,C*%
%TO.N,/~{IDW}*%
X13970000Y38100000D03*
%TO.P,U7,12,D*%
%TO.N,+5V*%
X11430000Y38100000D03*
%TO.P,U7,13,~{R}*%
%TO.N,/~{DRRS}*%
X8890000Y38100000D03*
%TO.P,U7,14,VCC*%
%TO.N,+5V*%
X6350000Y38100000D03*
%TD*%
D11*
%TO.P,C2,1*%
%TO.N,GND*%
X40000Y15240000D03*
%TO.P,C2,2*%
%TO.N,+5V*%
X2540000Y15240000D03*
%TD*%
D15*
%TO.P,J5,1,TCK*%
%TO.N,/TCK*%
X72390000Y60960000D03*
D16*
%TO.P,J5,2,GND*%
%TO.N,GND*%
X74930000Y60960000D03*
%TO.P,J5,3,TDO*%
%TO.N,/TDO*%
X72390000Y58420000D03*
%TO.P,J5,4,VREF*%
%TO.N,+5V*%
X74930000Y58420000D03*
%TO.P,J5,5,TMS*%
%TO.N,/TMS*%
X72390000Y55880000D03*
%TO.P,J5,6,~{SRST}*%
%TO.N,/~{AVRRST}*%
X74930000Y55880000D03*
%TO.P,J5,7,VCC*%
%TO.N,unconnected-(J5-Pad7)*%
X72390000Y53340000D03*
%TO.P,J5,8,~{TRST}*%
%TO.N,unconnected-(J5-Pad8)*%
X74930000Y53340000D03*
%TO.P,J5,9,TDI*%
%TO.N,/TDI*%
X72390000Y50800000D03*
%TO.P,J5,10,GND*%
%TO.N,GND*%
X74930000Y50800000D03*
%TD*%
D11*
%TO.P,R2,1*%
%TO.N,+5V*%
X27940000Y30480000D03*
D17*
%TO.P,R2,2*%
%TO.N,/~{IDW}*%
X27940000Y38100000D03*
%TD*%
D11*
%TO.P,C10,1*%
%TO.N,+5V*%
X40640000Y66040000D03*
%TO.P,C10,2*%
%TO.N,GND*%
X38140000Y66040000D03*
%TD*%
%TO.P,C9,1*%
%TO.N,+5V*%
X38100000Y45720000D03*
%TO.P,C9,2*%
%TO.N,GND*%
X35600000Y45720000D03*
%TD*%
D18*
%TO.P,J4,1,MISO*%
%TO.N,/MISO*%
X6350000Y53340000D03*
D16*
%TO.P,J4,2,VCC*%
%TO.N,+5V*%
X3810000Y53340000D03*
%TO.P,J4,3,SCK*%
%TO.N,/SCK*%
X6350000Y55880000D03*
%TO.P,J4,4,MOSI*%
%TO.N,/MOSI*%
X3810000Y55880000D03*
%TO.P,J4,5,~{RST}*%
%TO.N,/~{AVRRST}*%
X6350000Y58420000D03*
%TO.P,J4,6,GND*%
%TO.N,GND*%
X3810000Y58420000D03*
%TD*%
D19*
%TO.P,J1,0,PAD*%
%TO.N,GND*%
X95885000Y3710000D03*
X95885000Y37010000D03*
D20*
%TO.P,J1,1,1*%
%TO.N,+5VP*%
X94465000Y30055000D03*
D11*
%TO.P,J1,2,2*%
%TO.N,unconnected-(J1-Pad2)*%
X94465000Y27285000D03*
%TO.P,J1,3,3*%
%TO.N,unconnected-(J1-Pad3)*%
X94465000Y24515000D03*
%TO.P,J1,4,4*%
%TO.N,GND*%
X94465000Y21745000D03*
%TO.P,J1,5,5*%
X94465000Y18975000D03*
%TO.P,J1,6,6*%
%TO.N,unconnected-(J1-Pad6)*%
X94465000Y16205000D03*
%TO.P,J1,7,7*%
%TO.N,unconnected-(J1-Pad7)*%
X94465000Y13435000D03*
%TO.P,J1,8,8*%
%TO.N,+5VP*%
X94465000Y10665000D03*
%TO.P,J1,9,P9*%
X97305000Y28670000D03*
%TO.P,J1,10,P10*%
%TO.N,unconnected-(J1-Pad10)*%
X97305000Y25900000D03*
%TO.P,J1,11,P111*%
%TO.N,unconnected-(J1-Pad11)*%
X97305000Y23130000D03*
%TO.P,J1,12,P12*%
%TO.N,/TX'*%
X97305000Y20360000D03*
%TO.P,J1,13,P13*%
%TO.N,unconnected-(J1-Pad13)*%
X97305000Y17590000D03*
%TO.P,J1,14,P14*%
%TO.N,unconnected-(J1-Pad14)*%
X97305000Y14820000D03*
%TO.P,J1,15,P15*%
%TO.N,/RX'*%
X97305000Y12050000D03*
%TD*%
%TO.P,R4,1*%
%TO.N,/TX'*%
X90170000Y22442500D03*
D17*
%TO.P,R4,2*%
%TO.N,/TX0*%
X90170000Y30062500D03*
%TD*%
D21*
%TO.P,Y1,1,1*%
%TO.N,/X1*%
X50165000Y43815000D03*
%TO.P,Y1,2,2*%
%TO.N,/X2*%
X45285000Y43815000D03*
%TD*%
D11*
%TO.P,C7,1*%
%TO.N,+5V*%
X2540000Y38100000D03*
%TO.P,C7,2*%
%TO.N,GND*%
X40000Y38100000D03*
%TD*%
%TO.P,C4,1*%
%TO.N,GND*%
X55920000Y15240000D03*
%TO.P,C4,2*%
%TO.N,+5V*%
X58420000Y15240000D03*
%TD*%
%TO.P,R3,1*%
%TO.N,+5V*%
X30480000Y30480000D03*
D17*
%TO.P,R3,2*%
%TO.N,/~{IDR}*%
X30480000Y38100000D03*
%TD*%
D11*
%TO.P,C8,1*%
%TO.N,+5V*%
X36830000Y40640000D03*
%TO.P,C8,2*%
%TO.N,GND*%
X34330000Y40640000D03*
%TD*%
%TO.P,R1,1*%
%TO.N,/~{AVRRST}*%
X21590000Y43815000D03*
D17*
%TO.P,R1,2*%
%TO.N,~{RESET}*%
X29210000Y43815000D03*
%TD*%
D11*
%TO.P,R5,1*%
%TO.N,/RX'*%
X90170000Y10695000D03*
D17*
%TO.P,R5,2*%
%TO.N,/RX0*%
X90170000Y18315000D03*
%TD*%
D22*
%TO.P,J8,32,IO*%
%TO.N,unconnected-(J8-Pad32)*%
X78740000Y-3810000D03*
%TO.P,J8,33,DB7*%
%TO.N,/DB7*%
X76200000Y-3810000D03*
%TO.P,J8,34,DB6*%
%TO.N,/DB6*%
X73660000Y-3810000D03*
%TO.P,J8,35,DB5*%
%TO.N,/DB5*%
X71120000Y-3810000D03*
%TO.P,J8,36,DB4*%
%TO.N,/DB4*%
X68580000Y-3810000D03*
%TO.P,J8,37,DB3*%
%TO.N,/DB3*%
X66040000Y-3810000D03*
%TO.P,J8,38,DB2*%
%TO.N,/DB2*%
X63500000Y-3810000D03*
%TO.P,J8,39,DB1*%
%TO.N,/DB1*%
X60960000Y-3810000D03*
%TO.P,J8,40,DB0*%
%TO.N,/DB0*%
X58420000Y-3810000D03*
%TO.P,J8,41,IO_READY*%
%TO.N,unconnected-(J8-Pad41)*%
X55880000Y-3810000D03*
%TO.P,J8,42,AEN*%
%TO.N,/AEN*%
X53340000Y-3810000D03*
%TO.P,J8,43,BA19*%
%TO.N,unconnected-(J8-Pad43)*%
X50800000Y-3810000D03*
%TO.P,J8,44,BA18*%
%TO.N,unconnected-(J8-Pad44)*%
X48260000Y-3810000D03*
%TO.P,J8,45,BA17*%
%TO.N,unconnected-(J8-Pad45)*%
X45720000Y-3810000D03*
%TO.P,J8,46,BA16*%
%TO.N,unconnected-(J8-Pad46)*%
X43180000Y-3810000D03*
%TO.P,J8,47,BA15*%
%TO.N,unconnected-(J8-Pad47)*%
X40640000Y-3810000D03*
%TO.P,J8,48,BA14*%
%TO.N,unconnected-(J8-Pad48)*%
X38100000Y-3810000D03*
%TO.P,J8,49,BA13*%
%TO.N,unconnected-(J8-Pad49)*%
X35560000Y-3810000D03*
%TO.P,J8,50,BA12*%
%TO.N,unconnected-(J8-Pad50)*%
X33020000Y-3810000D03*
%TO.P,J8,51,BA11*%
%TO.N,unconnected-(J8-Pad51)*%
X30480000Y-3810000D03*
%TO.P,J8,52,BA10*%
%TO.N,unconnected-(J8-Pad52)*%
X27940000Y-3810000D03*
%TO.P,J8,53,BA09*%
%TO.N,/BA9*%
X25400000Y-3810000D03*
%TO.P,J8,54,BA08*%
%TO.N,/BA8*%
X22860000Y-3810000D03*
%TO.P,J8,55,BA07*%
%TO.N,/BA7*%
X20320000Y-3810000D03*
%TO.P,J8,56,BA06*%
%TO.N,/BA6*%
X17780000Y-3810000D03*
%TO.P,J8,57,BA05*%
%TO.N,/BA5*%
X15240000Y-3810000D03*
%TO.P,J8,58,BA04*%
%TO.N,/BA4*%
X12700000Y-3810000D03*
%TO.P,J8,59,BA03*%
%TO.N,/BA3*%
X10160000Y-3810000D03*
%TO.P,J8,60,BA02*%
%TO.N,unconnected-(J8-Pad60)*%
X7620000Y-3810000D03*
%TO.P,J8,61,BA01*%
%TO.N,unconnected-(J8-Pad61)*%
X5080000Y-3810000D03*
%TO.P,J8,62,BA00*%
%TO.N,/BA0*%
X2540000Y-3810000D03*
%TD*%
D23*
%TO.P,J6,1,Pin_1*%
%TO.N,GND*%
X81280000Y83820000D03*
D10*
%TO.P,J6,2,Pin_2*%
%TO.N,unconnected-(J6-Pad2)*%
X81280000Y81280000D03*
%TO.P,J6,3,Pin_3*%
%TO.N,GND*%
X78740000Y83820000D03*
%TO.P,J6,4,Pin_4*%
%TO.N,WT_TX*%
X78740000Y81280000D03*
%TO.P,J6,5,Pin_5*%
%TO.N,GND*%
X76200000Y83820000D03*
%TO.P,J6,6,Pin_6*%
%TO.N,+5V*%
X76200000Y81280000D03*
%TO.P,J6,7,Pin_7*%
%TO.N,GND*%
X73660000Y83820000D03*
%TO.P,J6,8,Pin_8*%
%TO.N,WT_RX*%
X73660000Y81280000D03*
%TO.P,J6,9,Pin_9*%
%TO.N,GND*%
X71120000Y83820000D03*
%TO.P,J6,10,Pin_10*%
%TO.N,+5V*%
X71120000Y81280000D03*
%TO.P,J6,11,Pin_11*%
%TO.N,GND*%
X68580000Y83820000D03*
%TO.P,J6,12,Pin_12*%
X68580000Y81280000D03*
%TO.P,J6,13,Pin_13*%
%TO.N,unconnected-(J6-Pad13)*%
X66040000Y83820000D03*
%TO.P,J6,14,Pin_14*%
%TO.N,+5V*%
X66040000Y81280000D03*
%TO.P,J6,15,Pin_15*%
%TO.N,GND*%
X63500000Y83820000D03*
%TO.P,J6,16,Pin_16*%
X63500000Y81280000D03*
%TO.P,J6,17,Pin_17*%
X60960000Y83820000D03*
%TO.P,J6,18,Pin_18*%
%TO.N,+12V*%
X60960000Y81280000D03*
%TO.P,J6,19,Pin_19*%
%TO.N,GND*%
X58420000Y83820000D03*
%TO.P,J6,20,Pin_20*%
%TO.N,/Wavetable/RIGHT*%
X58420000Y81280000D03*
%TO.P,J6,21,Pin_21*%
%TO.N,GND*%
X55880000Y83820000D03*
%TO.P,J6,22,Pin_22*%
%TO.N,-12V*%
X55880000Y81280000D03*
%TO.P,J6,23,Pin_23*%
%TO.N,GND*%
X53340000Y83820000D03*
%TO.P,J6,24,Pin_24*%
%TO.N,/Wavetable/LEFT*%
X53340000Y81280000D03*
%TO.P,J6,25,Pin_25*%
%TO.N,GND*%
X50800000Y83820000D03*
%TO.P,J6,26,Pin_26*%
%TO.N,~{RESET}*%
X50800000Y81280000D03*
%TD*%
D24*
%TO.P,J7,1,Pin_1*%
%TO.N,/Wavetable/LEFT'*%
X24130000Y73660000D03*
D10*
%TO.P,J7,2,Pin_2*%
%TO.N,GND*%
X26670000Y73660000D03*
%TO.P,J7,3,Pin_3*%
X29210000Y73660000D03*
%TO.P,J7,4,Pin_4*%
%TO.N,/Wavetable/RIGHT'*%
X31750000Y73660000D03*
%TD*%
D11*
%TO.P,C16,1*%
%TO.N,GND*%
X52070000Y76160000D03*
%TO.P,C16,2*%
%TO.N,-5VA*%
X52070000Y73660000D03*
%TD*%
D25*
%TO.P,U10,1,VO*%
%TO.N,+5VA*%
X12700000Y74295000D03*
D26*
%TO.P,U10,2,GND*%
%TO.N,GND*%
X13970000Y75565000D03*
%TO.P,U10,3,VI*%
%TO.N,+12V*%
X15240000Y74295000D03*
%TD*%
D25*
%TO.P,U11,1,GND*%
%TO.N,GND*%
X54610000Y74295000D03*
D26*
%TO.P,U11,2,VI*%
%TO.N,-12V*%
X55880000Y75565000D03*
%TO.P,U11,3,VO*%
%TO.N,-5VA*%
X57150000Y74295000D03*
%TD*%
D27*
%TO.P,H3,1,1*%
%TO.N,unconnected-(H3-Pad1)*%
X98806000Y82931000D03*
%TD*%
D28*
%TO.P,F1,1*%
%TO.N,+5VP*%
X95250000Y45720000D03*
%TO.P,F1,2*%
%TO.N,+5V*%
X100350000Y44120000D03*
%TD*%
D12*
%TO.P,U12,1*%
%TO.N,/Wavetable/LEFT'*%
X38100000Y73660000D03*
D13*
%TO.P,U12,2,-*%
X40640000Y73660000D03*
%TO.P,U12,3,+*%
%TO.N,/Wavetable/LEFT*%
X43180000Y73660000D03*
%TO.P,U12,4,V-*%
%TO.N,-5VA*%
X45720000Y73660000D03*
%TO.P,U12,5,+*%
%TO.N,/Wavetable/RIGHT*%
X45720000Y81280000D03*
%TO.P,U12,6,-*%
%TO.N,/Wavetable/RIGHT'*%
X43180000Y81280000D03*
%TO.P,U12,7*%
X40640000Y81280000D03*
%TO.P,U12,8,V+*%
%TO.N,+5VA*%
X38100000Y81280000D03*
%TD*%
D11*
%TO.P,C15,1*%
%TO.N,+5VA*%
X17780000Y76160000D03*
%TO.P,C15,2*%
%TO.N,GND*%
X17780000Y73660000D03*
%TD*%
%TO.P,C11,1*%
%TO.N,/X1*%
X54610000Y42545000D03*
%TO.P,C11,2*%
%TO.N,GND*%
X54610000Y45045000D03*
%TD*%
%TO.P,C12,1*%
%TO.N,/X2*%
X40640000Y42545000D03*
%TO.P,C12,2*%
%TO.N,GND*%
X40640000Y45045000D03*
%TD*%
D29*
%TO.P,C17,1*%
%TO.N,+5V*%
X2540000Y21590000D03*
D11*
%TO.P,C17,2*%
%TO.N,GND*%
X540000Y21590000D03*
%TD*%
%TO.P,C13,1*%
%TO.N,+12V*%
X10160000Y73660000D03*
%TO.P,C13,2*%
%TO.N,GND*%
X10160000Y76160000D03*
%TD*%
%TO.P,C14,1*%
%TO.N,GND*%
X59690000Y73660000D03*
%TO.P,C14,2*%
%TO.N,-12V*%
X59690000Y76160000D03*
%TD*%
D10*
%TO.P,JP1,1,Pin_1*%
%TO.N,/300h*%
X10160000Y21590000D03*
%TO.P,JP1,2,Pin_2*%
%TO.N,/~{IOCS}*%
X10160000Y24130000D03*
%TO.P,JP1,3,Pin_3*%
%TO.N,/310h*%
X12700000Y21590000D03*
%TO.P,JP1,4,Pin_4*%
%TO.N,/~{IOCS}*%
X12700000Y24130000D03*
%TO.P,JP1,5,Pin_5*%
%TO.N,/320h*%
X15240000Y21590000D03*
%TO.P,JP1,6,Pin_6*%
%TO.N,/~{IOCS}*%
X15240000Y24130000D03*
%TO.P,JP1,7,Pin_7*%
%TO.N,/330h*%
X17780000Y21590000D03*
%TO.P,JP1,8,Pin_8*%
%TO.N,/~{IOCS}*%
X17780000Y24130000D03*
%TD*%
%TO.P,JP3,1,Pin_1*%
%TO.N,/RX1*%
X81915000Y58420000D03*
%TO.P,JP3,2,Pin_2*%
%TO.N,/TX1*%
X84455000Y58420000D03*
%TO.P,JP3,3,Pin_3*%
%TO.N,WT_RX*%
X81915000Y55880000D03*
%TO.P,JP3,4,Pin_4*%
%TO.N,WT_TX*%
X84455000Y55880000D03*
%TO.P,JP3,5,Pin_5*%
%TO.N,/RX0*%
X81915000Y53340000D03*
%TO.P,JP3,6,Pin_6*%
%TO.N,/TX0*%
X84455000Y53340000D03*
%TD*%
D30*
%TO.P,J3,R*%
%TO.N,/Wavetable/RIGHT'*%
X96600000Y66755000D03*
%TO.P,J3,RN*%
X96600000Y69255000D03*
D31*
%TO.P,J3,S*%
%TO.N,GND*%
X101600000Y71755000D03*
D30*
%TO.P,J3,T*%
%TO.N,/Wavetable/LEFT'*%
X96600000Y76755000D03*
%TO.P,J3,TN*%
X96600000Y74255000D03*
%TD*%
D32*
%TO.N,GND*%
X27940000Y5715000D03*
%TO.N,+5V*%
X59690000Y2794000D03*
X40640000Y56261000D03*
X6985000Y1270000D03*
D33*
X56515000Y28575000D03*
%TO.N,/RESET*%
X77152500Y952500D03*
X83185000Y33020000D03*
%TO.N,/~{IOR}*%
X41275000Y4445000D03*
%TO.N,/~{IOW}*%
X43815000Y4445000D03*
%TO.N,/DB7*%
X80264000Y28448000D03*
%TO.N,/BA9*%
X30797499Y952499D03*
X33655000Y3929010D03*
%TO.N,/BA8*%
X17780000Y5080000D03*
%TO.N,/BA6*%
X12700004Y5080000D03*
%TO.N,/BA0*%
X33655000Y9525000D03*
X2540000Y7366000D03*
X2159000Y5207000D03*
%TO.N,/~{AVRRST}*%
X57404000Y57150000D03*
X48895000Y50165000D03*
X21590000Y52070000D03*
%TO.N,/TDO*%
X53975000Y61595000D03*
%TO.N,/USER3*%
X76835000Y64770000D03*
%TO.N,/USER2*%
X72644000Y48260000D03*
%TO.N,/SCL*%
X77470000Y64135000D03*
%TO.N,/USER1*%
X72009000Y48895000D03*
%TO.N,/USER0*%
X71374000Y49530000D03*
%TO.N,/~{IDW}*%
X80645000Y34925000D03*
X23495000Y45085000D03*
X31115000Y34290000D03*
%TO.N,/~{IDR}*%
X36830000Y21589992D03*
X59690000Y21590000D03*
X25400000Y45085000D03*
X44450000Y21590000D03*
%TO.N,/SDA*%
X78105000Y63500000D03*
%TO.N,/CRR*%
X38100000Y42418000D03*
X35814000Y43561000D03*
%TO.N,/DRR*%
X35179000Y42926000D03*
X37846000Y41656000D03*
%TO.N,/DSR*%
X17780000Y40640000D03*
X29210000Y33655000D03*
X83820000Y35560000D03*
%TO.N,/~{DR}*%
X43180000Y24892000D03*
X58928000Y9906000D03*
%TO.N,/~{CR}*%
X57150000Y40005000D03*
%TO.N,/IRQ*%
X26670000Y33655000D03*
X29845006Y24765006D03*
X65405000Y35560000D03*
%TO.N,/~{IDRRS}*%
X39370000Y34925006D03*
X42545000Y34925000D03*
%TO.N,/~{DRCLK}*%
X83185000Y22225000D03*
X43815000Y22225000D03*
%TO.N,/~{DRRS}*%
X31750010Y24765000D03*
X45085000Y23495000D03*
%TO.N,/~{DRR}*%
X53975000Y34925000D03*
%TO.N,/~{DSR}*%
X31115000Y33020000D03*
X62865000Y33020000D03*
%TO.N,/IRQ9*%
X59182000Y1778000D03*
D32*
%TO.N,-12V*%
X80030488Y2519512D03*
X64770000Y76200000D03*
%TO.N,+12V*%
X1270000Y3429004D03*
X57023000Y1777996D03*
X22098000Y4191000D03*
D33*
%TO.N,~{RESET}*%
X45720000Y22860000D03*
X38100000Y23495000D03*
X39370000Y56769000D03*
X36830000Y47244000D03*
X48895000Y74549000D03*
X86360000Y23495000D03*
X48895000Y69596000D03*
%TO.N,/TX1*%
X69722998Y52070000D03*
%TO.N,/RX1*%
X67183000Y54610000D03*
X83185000Y60325000D03*
%TO.N,WT_RX*%
X73660000Y77216000D03*
%TO.N,WT_TX*%
X78740000Y77216000D03*
%TO.N,/TX0*%
X76835000Y44450000D03*
X61595000Y44450000D03*
%TO.N,/RX0*%
X60960000Y45085000D03*
X76200000Y45085000D03*
%TD*%
D34*
%TO.N,/DB0*%
X63500000Y13970000D02*
X63500000Y15240000D01*
X62230000Y3937000D02*
X62230000Y12700000D01*
X62230000Y12700000D02*
X63500000Y13970000D01*
X58420000Y127000D02*
X62230000Y3937000D01*
X58420000Y-3810000D02*
X58420000Y127000D01*
D35*
%TO.N,GND*%
X55920000Y34330000D02*
X55920000Y38100000D01*
X22860000Y7620000D02*
X24422000Y7620000D01*
X52070000Y19050000D02*
X52070000Y22820000D01*
X26327000Y5715000D02*
X27940000Y5715000D01*
X52070000Y22820000D02*
X55920000Y26670000D01*
X52070000Y30480000D02*
X55920000Y34330000D01*
X24422000Y7620000D02*
X26327000Y5715000D01*
%TO.N,+5V*%
X38100000Y48260000D02*
X38100000Y45720000D01*
X40640000Y66040000D02*
X40640000Y63500000D01*
X36830000Y38100000D02*
X36830000Y40640000D01*
X33020000Y15240000D02*
X33020000Y20320000D01*
X26670000Y26670000D02*
X13970000Y26670000D01*
X2540000Y38100000D02*
X2540000Y52070000D01*
X58420000Y15240000D02*
X58420000Y26670000D01*
X76200000Y79375000D02*
X81280000Y79375000D01*
X71120000Y79375000D02*
X76200000Y79375000D01*
X31115000Y22225000D02*
X26670000Y26670000D01*
X2540000Y15240000D02*
X5080000Y15240000D01*
X66040000Y79375000D02*
X71120000Y79375000D01*
D34*
X40005000Y34925000D02*
X41910000Y36830000D01*
D35*
X36830000Y27432000D02*
X35179000Y29083000D01*
D34*
X13208000Y36322000D02*
X14732000Y36322000D01*
D35*
X58928000Y8382000D02*
X60960000Y10414000D01*
D34*
X39370000Y30480000D02*
X39370000Y31750000D01*
D35*
X58420000Y38100000D02*
X60960000Y38100000D01*
X58420000Y26670000D02*
X58420000Y38100000D01*
X100350000Y60305000D02*
X100350000Y44120000D01*
X38100000Y43942000D02*
X36830000Y42672000D01*
D34*
X59055000Y40640000D02*
X60960000Y38735000D01*
D35*
X72390000Y66040000D02*
X76581000Y61849000D01*
D34*
X13970000Y30480000D02*
X13970000Y26670000D01*
D35*
X38100000Y11430000D02*
X35560000Y13970000D01*
X76581000Y60071000D02*
X74930000Y58420000D01*
D34*
X48895000Y36195000D02*
X52705000Y36195000D01*
D35*
X58928000Y8382000D02*
X55880000Y11430000D01*
X62865000Y66040000D02*
X72390000Y66040000D01*
X2540000Y15240000D02*
X2540000Y21590000D01*
D34*
X30480000Y29848533D02*
X33020000Y27308533D01*
D35*
X13970000Y26670000D02*
X2540000Y26670000D01*
D34*
X53975000Y37465000D02*
X53975000Y38735000D01*
X8128000Y39878000D02*
X6350000Y38100000D01*
X33020000Y27308533D02*
X33020000Y26670000D01*
X52705000Y36195000D02*
X53975000Y37465000D01*
D35*
X2540000Y38100000D02*
X6350000Y38100000D01*
D34*
X39370000Y31750000D02*
X40005000Y32385000D01*
X9652000Y39878000D02*
X8128000Y39878000D01*
D35*
X2540000Y26670000D02*
X2540000Y38100000D01*
D34*
X39370000Y29210000D02*
X36830000Y26670000D01*
D35*
X35179000Y36449000D02*
X36830000Y38100000D01*
X66040000Y79375000D02*
X62865000Y76200000D01*
X81280000Y79375000D02*
X100350000Y60305000D01*
D34*
X53975000Y38735000D02*
X55880000Y40640000D01*
X60960000Y38735000D02*
X60960000Y38100000D01*
D35*
X6985000Y1651000D02*
X6985000Y1270000D01*
X66040000Y79375000D02*
X66040000Y81280000D01*
D34*
X46355000Y28575000D02*
X56515000Y28575000D01*
D35*
X60960000Y10414000D02*
X60960000Y15240000D01*
X40640000Y66040000D02*
X62865000Y66040000D01*
X33020000Y15240000D02*
X35560000Y15240000D01*
X2540000Y15240000D02*
X1524000Y14224000D01*
X76581000Y61849000D02*
X76581000Y60071000D01*
X58928000Y8382000D02*
X58928000Y3556000D01*
X58928000Y3556000D02*
X59690000Y2794000D01*
X76200000Y81280000D02*
X76200000Y79375000D01*
D34*
X11430000Y38100000D02*
X9652000Y39878000D01*
D35*
X33020000Y24130000D02*
X31115000Y22225000D01*
D34*
X44450000Y30480000D02*
X46355000Y28575000D01*
D35*
X36830000Y42672000D02*
X36830000Y40640000D01*
D34*
X14732000Y36322000D02*
X16510000Y38100000D01*
D35*
X35560000Y13970000D02*
X35560000Y15240000D01*
D34*
X41910000Y36830000D02*
X41910000Y38100000D01*
X30480000Y30480000D02*
X30480000Y29848533D01*
D35*
X40640000Y63500000D02*
X40640000Y56261000D01*
X2540000Y21590000D02*
X2540000Y26670000D01*
D34*
X46990000Y38100000D02*
X48895000Y36195000D01*
D35*
X55880000Y11430000D02*
X38100000Y11430000D01*
X35179000Y29083000D02*
X35179000Y36449000D01*
X2540000Y52070000D02*
X3810000Y53340000D01*
X58420000Y15240000D02*
X60960000Y15240000D01*
X71120000Y81280000D02*
X71120000Y79375000D01*
X38100000Y45720000D02*
X38100000Y43942000D01*
X1524000Y14224000D02*
X1524000Y7112000D01*
D34*
X39370000Y30480000D02*
X39370000Y29210000D01*
X55880000Y40640000D02*
X59055000Y40640000D01*
X40005000Y32385000D02*
X40005000Y34925000D01*
D35*
X33020000Y26670000D02*
X33020000Y24130000D01*
D34*
X11430000Y38100000D02*
X13208000Y36322000D01*
D35*
X36830000Y26670000D02*
X36830000Y27432000D01*
X1524000Y7112000D02*
X6985000Y1651000D01*
X33020000Y20320000D02*
X31115000Y22225000D01*
X62865000Y76200000D02*
X62865000Y66040000D01*
X58420000Y26670000D02*
X60960000Y26670000D01*
D34*
%TO.N,/RESET*%
X82550000Y11430000D02*
X82550000Y6350000D01*
X83820000Y33020000D02*
X85725000Y31115000D01*
X82550000Y6350000D02*
X77152500Y952500D01*
X85725000Y31115000D02*
X85725000Y14605000D01*
X85725000Y14605000D02*
X82550000Y11430000D01*
X83185000Y33020000D02*
X83820000Y33020000D01*
%TO.N,/~{IOR}*%
X38100000Y7620000D02*
X41275000Y4445000D01*
%TO.N,/~{IOW}*%
X40640000Y7620000D02*
X43815000Y4445000D01*
%TO.N,/AEN*%
X17145000Y5715000D02*
X15240000Y7620000D01*
X53340000Y254000D02*
X51943000Y1651000D01*
X19050000Y5715000D02*
X17145000Y5715000D01*
X23114000Y1651000D02*
X19050000Y5715000D01*
X53340000Y-3810000D02*
X53340000Y254000D01*
X51943000Y1651000D02*
X23114000Y1651000D01*
%TO.N,/D0*%
X26035000Y52705000D02*
X15240000Y63500000D01*
X63500000Y12700000D02*
X64770000Y13970000D01*
X32004000Y52705000D02*
X26035000Y52705000D01*
X60960000Y50800000D02*
X33909000Y50800000D01*
X62230000Y29210000D02*
X62230000Y49530000D01*
X64770000Y13970000D02*
X64770000Y24130000D01*
X62230000Y49530000D02*
X60960000Y50800000D01*
X63500000Y7620000D02*
X63500000Y12700000D01*
X33909000Y50800000D02*
X32004000Y52705000D01*
X64770000Y24130000D02*
X63500000Y25400000D01*
X63500000Y25400000D02*
X63500000Y26670000D01*
X63500000Y26670000D02*
X63500000Y27940000D01*
X63500000Y27940000D02*
X62230000Y29210000D01*
%TO.N,/D1*%
X64770000Y29210000D02*
X64770000Y49911000D01*
X32258000Y53340000D02*
X27940000Y53340000D01*
X67310000Y13970000D02*
X67310000Y24130000D01*
X66040000Y26670000D02*
X66040000Y27940000D01*
X64770000Y49911000D02*
X63246000Y51435000D01*
X34163000Y51435000D02*
X32258000Y53340000D01*
X66040000Y12700000D02*
X67310000Y13970000D01*
X27940000Y53340000D02*
X17780000Y63500000D01*
X66040000Y27940000D02*
X64770000Y29210000D01*
X66040000Y25400000D02*
X66040000Y26670000D01*
X67310000Y24130000D02*
X66040000Y25400000D01*
X66040000Y7620000D02*
X66040000Y12700000D01*
X63246000Y51435000D02*
X34163000Y51435000D01*
%TO.N,/D2*%
X68580000Y25400000D02*
X68580000Y26670000D01*
X29845000Y53975000D02*
X20320000Y63500000D01*
X68580000Y27940000D02*
X67310000Y29210000D01*
X67310000Y29210000D02*
X67310000Y48260000D01*
X69850000Y13970000D02*
X69850000Y24130000D01*
X68580000Y26670000D02*
X68580000Y27940000D01*
X34417000Y52070000D02*
X32512000Y53975000D01*
X68580000Y7620000D02*
X68580000Y12700000D01*
X67310000Y48260000D02*
X63500000Y52070000D01*
X63500000Y52070000D02*
X34417000Y52070000D01*
X68580000Y12700000D02*
X69850000Y13970000D01*
X69850000Y24130000D02*
X68580000Y25400000D01*
X32512000Y53975000D02*
X29845000Y53975000D01*
%TO.N,/D3*%
X34671000Y52705000D02*
X32766000Y54610000D01*
X71120000Y12700000D02*
X72390000Y13970000D01*
X69850000Y46609000D02*
X63754000Y52705000D01*
X72390000Y24130000D02*
X71120000Y25400000D01*
X71120000Y7620000D02*
X71120000Y12700000D01*
X71120000Y26670000D02*
X71120000Y27940000D01*
X71120000Y27940000D02*
X69850000Y29210000D01*
X63754000Y52705000D02*
X34671000Y52705000D01*
X71120000Y25400000D02*
X71120000Y26670000D01*
X31750000Y54610000D02*
X22860000Y63500000D01*
X72390000Y13970000D02*
X72390000Y24130000D01*
X32766000Y54610000D02*
X31750000Y54610000D01*
X69850000Y29210000D02*
X69850000Y46609000D01*
%TO.N,/D4*%
X73660000Y27940000D02*
X72390000Y29210000D01*
X73660000Y12700000D02*
X74930000Y13970000D01*
X72390000Y44958000D02*
X64008000Y53340000D01*
X73660000Y7620000D02*
X73660000Y12700000D01*
X73660000Y26670000D02*
X73660000Y27940000D01*
X74930000Y13970000D02*
X74930000Y24130000D01*
X64008000Y53340000D02*
X35242500Y53340000D01*
X74930000Y24130000D02*
X73660000Y25400000D01*
X35242500Y53340000D02*
X25400000Y63182500D01*
X72390000Y29210000D02*
X72390000Y44958000D01*
X73660000Y25400000D02*
X73660000Y26670000D01*
X25400000Y63182500D02*
X25400000Y63500000D01*
%TO.N,/D5*%
X27940000Y62865000D02*
X27940000Y63500000D01*
X74930000Y43307000D02*
X64262000Y53975000D01*
X36830000Y53975000D02*
X27940000Y62865000D01*
X76200000Y26670000D02*
X76200000Y27940000D01*
X74930000Y29210000D02*
X74930000Y43307000D01*
X64262000Y53975000D02*
X36830000Y53975000D01*
X77470000Y24130000D02*
X76200000Y25400000D01*
X76200000Y25400000D02*
X76200000Y26670000D01*
X76200000Y12700000D02*
X77470000Y13970000D01*
X76200000Y7620000D02*
X76200000Y12700000D01*
X77470000Y13970000D02*
X77470000Y24130000D01*
X76200000Y27940000D02*
X74930000Y29210000D01*
%TO.N,/D6*%
X64516000Y54610000D02*
X38417500Y54610000D01*
X78740000Y25400000D02*
X78740000Y26670000D01*
X78740000Y27940000D02*
X77470000Y29210000D01*
X77470000Y41656000D02*
X64516000Y54610000D01*
X30480000Y62547500D02*
X30480000Y63500000D01*
X80010000Y24130000D02*
X78740000Y25400000D01*
X38417500Y54610000D02*
X30480000Y62547500D01*
X77470000Y29210000D02*
X77470000Y41656000D01*
X78740000Y26670000D02*
X78740000Y27940000D01*
X80010000Y13970000D02*
X80010000Y24130000D01*
X78740000Y12700000D02*
X80010000Y13970000D01*
X78740000Y7620000D02*
X78740000Y12700000D01*
%TO.N,/D7*%
X81280000Y28321000D02*
X80010000Y29591000D01*
X82550000Y24130000D02*
X81280000Y25400000D01*
X81280000Y26670000D02*
X81280000Y28321000D01*
X80010000Y40005000D02*
X64770000Y55245000D01*
X40005000Y55245000D02*
X33020000Y62230000D01*
X33020000Y62230000D02*
X33020000Y63500000D01*
X64770000Y55245000D02*
X40005000Y55245000D01*
X81280000Y25400000D02*
X81280000Y26670000D01*
X81280000Y12700000D02*
X82550000Y13970000D01*
X82550000Y13970000D02*
X82550000Y24130000D01*
X80010000Y29591000D02*
X80010000Y40005000D01*
X81280000Y7620000D02*
X81280000Y12700000D01*
%TO.N,/DB7*%
X76200000Y-3810000D02*
X76200000Y2540000D01*
X80010000Y6350000D02*
X80010000Y12700000D01*
X76200000Y2540000D02*
X80010000Y6350000D01*
X80010000Y28194000D02*
X80264000Y28448000D01*
X81280000Y19050000D02*
X81280000Y24130000D01*
X81280000Y15240000D02*
X81280000Y19050000D01*
X81280000Y24130000D02*
X80010000Y25400000D01*
X80010000Y25400000D02*
X80010000Y28194000D01*
X80010000Y12700000D02*
X81280000Y13970000D01*
X81280000Y13970000D02*
X81280000Y15240000D01*
%TO.N,/DB6*%
X73660000Y2540000D02*
X77470000Y6350000D01*
X76200000Y29210000D02*
X77470000Y27940000D01*
X77470000Y27940000D02*
X77470000Y25400000D01*
X76200000Y29210000D02*
X76200000Y30480000D01*
X78740000Y15240000D02*
X78740000Y19050000D01*
X73660000Y-3810000D02*
X73660000Y2540000D01*
X77470000Y6350000D02*
X77470000Y12700000D01*
X77470000Y25400000D02*
X78740000Y24130000D01*
X77470000Y12700000D02*
X78740000Y13970000D01*
X78740000Y13970000D02*
X78740000Y15240000D01*
X78740000Y24130000D02*
X78740000Y19050000D01*
%TO.N,/DB5*%
X76200000Y13970000D02*
X76200000Y15240000D01*
X71120000Y-3810000D02*
X71120000Y2540000D01*
X74930000Y6350000D02*
X74930000Y12700000D01*
X74930000Y12700000D02*
X76200000Y13970000D01*
X71120000Y2540000D02*
X74930000Y6350000D01*
X76200000Y15240000D02*
X76200000Y19050000D01*
%TO.N,/DB4*%
X68580000Y-3810000D02*
X68580000Y2540000D01*
X73660000Y15240000D02*
X73660000Y19050000D01*
X68580000Y2540000D02*
X72390000Y6350000D01*
X72390000Y6350000D02*
X72390000Y12700000D01*
X72390000Y12700000D02*
X73660000Y13970000D01*
X73660000Y13970000D02*
X73660000Y15240000D01*
%TO.N,/DB3*%
X69850000Y5715000D02*
X69850000Y12700000D01*
X71120000Y13970000D02*
X71120000Y15240000D01*
X66040000Y1905000D02*
X69850000Y5715000D01*
X69850000Y12700000D02*
X71120000Y13970000D01*
X66040000Y-3810000D02*
X66040000Y1905000D01*
X71120000Y15240000D02*
X71120000Y19050000D01*
%TO.N,/DB2*%
X63500000Y-3810000D02*
X63500000Y1270000D01*
X67310000Y12700000D02*
X68580000Y13970000D01*
X68580000Y15240000D02*
X68580000Y19050000D01*
X63500000Y1270000D02*
X67310000Y5080000D01*
X68580000Y13970000D02*
X68580000Y15240000D01*
X67310000Y5080000D02*
X67310000Y12700000D01*
%TO.N,/DB1*%
X64770000Y4445000D02*
X64770000Y12700000D01*
X66040000Y13970000D02*
X66040000Y15240000D01*
X60960000Y-3810000D02*
X60960000Y635000D01*
X66040000Y15240000D02*
X66040000Y19050000D01*
X60960000Y635000D02*
X64770000Y4445000D01*
X64770000Y12700000D02*
X66040000Y13970000D01*
%TO.N,/DB0*%
X63500000Y15240000D02*
X63500000Y19050000D01*
%TO.N,/BA9*%
X33774010Y3810000D02*
X33655000Y3929010D01*
X25400000Y0D02*
X26352499Y952499D01*
X26352499Y952499D02*
X30797499Y952499D01*
X48260000Y7620000D02*
X48260000Y6166000D01*
X25400000Y-3810000D02*
X25400000Y0D01*
X48260000Y6166000D02*
X45904000Y3810000D01*
X45904000Y3810000D02*
X33774010Y3810000D01*
%TO.N,/BA8*%
X22860000Y0D02*
X17780000Y5080000D01*
X22860000Y-3810000D02*
X22860000Y0D01*
%TO.N,/BA7*%
X14605000Y5715000D02*
X12065000Y5715000D01*
X20320000Y0D02*
X14605000Y5715000D01*
X12065000Y5715000D02*
X10160000Y7620000D01*
X20320000Y-3810000D02*
X20320000Y0D01*
%TO.N,/BA6*%
X17780000Y-3810000D02*
X17780000Y4D01*
X17780000Y4D02*
X12700004Y5080000D01*
%TO.N,/BA5*%
X15240000Y-3810000D02*
X15240000Y0D01*
X15240000Y0D02*
X7620000Y7620000D01*
%TO.N,/BA4*%
X12700000Y0D02*
X5080000Y7620000D01*
X12700000Y-3810000D02*
X12700000Y0D01*
%TO.N,/BA3*%
X34290000Y8890000D02*
X34925000Y9525000D01*
X41275000Y9525000D02*
X43180000Y7620000D01*
X10160000Y0D02*
X3683000Y6477000D01*
X34925000Y9525000D02*
X41275000Y9525000D01*
X4445000Y9525000D02*
X25400000Y9525000D01*
X10160000Y-3810000D02*
X10160000Y0D01*
X3683000Y6477000D02*
X3683000Y8763000D01*
X3683000Y8763000D02*
X4445000Y9525000D01*
X26035000Y8890000D02*
X34290000Y8890000D01*
X25400000Y9525000D02*
X26035000Y8890000D01*
%TO.N,/BA0*%
X2540000Y9525000D02*
X4445000Y11430000D01*
X2540000Y4191000D02*
X2159000Y4572000D01*
X31750000Y11430000D02*
X33655000Y9525000D01*
X2540000Y-3810000D02*
X2540000Y4191000D01*
X4445000Y11430000D02*
X31750000Y11430000D01*
X2159000Y4572000D02*
X2159000Y5207000D01*
X2540000Y7366000D02*
X2540000Y9525000D01*
%TO.N,/X1*%
X51435000Y42545000D02*
X50165000Y43815000D01*
X54610000Y42545000D02*
X51435000Y42545000D01*
X45720000Y48260000D02*
X50165000Y43815000D01*
%TO.N,/X2*%
X43180000Y48260000D02*
X43180000Y45920000D01*
X43180000Y45920000D02*
X45285000Y43815000D01*
X40640000Y42545000D02*
X44015000Y42545000D01*
X44015000Y42545000D02*
X45285000Y43815000D01*
%TO.N,/MOSI*%
X6985000Y50165000D02*
X26035000Y50165000D01*
X3810000Y55880000D02*
X5080000Y54610000D01*
X26035000Y50165000D02*
X27940000Y48260000D01*
X5080000Y52070000D02*
X6985000Y50165000D01*
X5080000Y54610000D02*
X5080000Y52070000D01*
%TO.N,+5VP*%
X95250000Y43180000D02*
X98425000Y40005000D01*
X95250000Y53340000D02*
X95250000Y45720000D01*
X95250000Y43180000D02*
X95250000Y45720000D01*
X98679000Y27296000D02*
X97305000Y28670000D01*
X97917000Y16256000D02*
X98679000Y17018000D01*
X98679000Y17018000D02*
X98679000Y27296000D01*
X95885000Y12085000D02*
X95885000Y15367000D01*
X90805000Y55880000D02*
X92075000Y54610000D01*
X98425000Y40005000D02*
X98425000Y29790000D01*
X94465000Y30055000D02*
X95920000Y30055000D01*
X98425000Y29790000D02*
X97305000Y28670000D01*
X96774000Y16256000D02*
X97917000Y16256000D01*
X95920000Y30055000D02*
X97305000Y28670000D01*
X95885000Y15367000D02*
X96774000Y16256000D01*
X92075000Y54610000D02*
X93980000Y54610000D01*
X94465000Y10665000D02*
X95885000Y12085000D01*
X93980000Y54610000D02*
X95250000Y53340000D01*
%TO.N,/~{AVRRST}*%
X35560000Y48260000D02*
X37465000Y50165000D01*
X12700000Y52070000D02*
X21590000Y52070000D01*
X21590000Y52070000D02*
X31750000Y52070000D01*
X37465000Y50165000D02*
X48895000Y50165000D01*
X31750000Y52070000D02*
X35560000Y48260000D01*
X73660000Y57150000D02*
X57404000Y57150000D01*
X6350000Y58420000D02*
X12700000Y52070000D01*
X74930000Y55880000D02*
X73660000Y57150000D01*
%TO.N,/SCK*%
X29845000Y51435000D02*
X33020000Y48260000D01*
X6350000Y55880000D02*
X10795000Y51435000D01*
X10795000Y51435000D02*
X29845000Y51435000D01*
%TO.N,/MISO*%
X6350000Y53340000D02*
X8890000Y50800000D01*
X8890000Y50800000D02*
X27940000Y50800000D01*
X27940000Y50800000D02*
X30480000Y48260000D01*
%TO.N,/TDI*%
X70104000Y50800000D02*
X72390000Y50800000D01*
X65024000Y55880000D02*
X70104000Y50800000D01*
X55880000Y55880000D02*
X65024000Y55880000D01*
X48260000Y63500000D02*
X55880000Y55880000D01*
%TO.N,/TMS*%
X53340000Y60325000D02*
X57150000Y56515000D01*
X65278000Y56515000D02*
X65913000Y55880000D01*
X65913000Y55880000D02*
X72390000Y55880000D01*
X57150000Y56515000D02*
X65278000Y56515000D01*
X53340000Y63500000D02*
X53340000Y60325000D01*
%TO.N,/TDO*%
X57150000Y58420000D02*
X72390000Y58420000D01*
X53975000Y61595000D02*
X57150000Y58420000D01*
%TO.N,/TCK*%
X58420000Y60960000D02*
X72390000Y60960000D01*
X55880000Y63500000D02*
X58420000Y60960000D01*
%TO.N,/USER3*%
X93345000Y55880000D02*
X95250000Y57785000D01*
X92710000Y64770000D02*
X76835000Y64770000D01*
X95250000Y57785000D02*
X95250000Y62230000D01*
X95250000Y62230000D02*
X92710000Y64770000D01*
%TO.N,/USER2*%
X94615000Y50165000D02*
X92710000Y48260000D01*
X94615000Y52070000D02*
X94615000Y50165000D01*
X93345000Y53340000D02*
X94615000Y52070000D01*
X92710000Y48260000D02*
X72644000Y48260000D01*
%TO.N,/SCL*%
X94615000Y59690000D02*
X94615000Y61595000D01*
X93345000Y58420000D02*
X94615000Y59690000D01*
X94615000Y61595000D02*
X92075000Y64135000D01*
X92075000Y64135000D02*
X77470000Y64135000D01*
%TO.N,/USER1*%
X93345000Y50800000D02*
X91440000Y48895000D01*
X91440000Y48895000D02*
X72009000Y48895000D01*
%TO.N,/USER0*%
X90805000Y50800000D02*
X89535000Y49530000D01*
X89535000Y49530000D02*
X71374000Y49530000D01*
%TO.N,/~{IDW}*%
X13970000Y38100000D02*
X15875000Y40005000D01*
X83312000Y28575000D02*
X82550000Y29337000D01*
X23495000Y42545000D02*
X27940000Y38100000D01*
X83820000Y15240000D02*
X85090000Y16510000D01*
X82550000Y33020000D02*
X80645000Y34925000D01*
X82550000Y29337000D02*
X82550000Y33020000D01*
X27940000Y37465000D02*
X31115000Y34290000D01*
X15875000Y40005000D02*
X20955000Y40005000D01*
X20955000Y40005000D02*
X23495000Y42545000D01*
X27940000Y38100000D02*
X27940000Y37465000D01*
X85090000Y16510000D02*
X85090000Y27813000D01*
X84328000Y28575000D02*
X83312000Y28575000D01*
X23495000Y42545000D02*
X23495000Y45085000D01*
X85090000Y27813000D02*
X84328000Y28575000D01*
%TO.N,/~{IDR}*%
X25400000Y45085000D02*
X25400000Y43180000D01*
X30480000Y38100000D02*
X31750000Y36830000D01*
X25400000Y43180000D02*
X30480000Y38100000D01*
X44450000Y21590000D02*
X44450000Y19050000D01*
X31750000Y29845000D02*
X34290000Y27305000D01*
X60960000Y20320000D02*
X59690000Y21590000D01*
X31750000Y36830000D02*
X31750000Y29845000D01*
X34290000Y27305000D02*
X34290000Y24129992D01*
X34290000Y24129992D02*
X36830000Y21589992D01*
X60960000Y19050000D02*
X60960000Y20320000D01*
%TO.N,/SDA*%
X93345000Y60960000D02*
X90805000Y63500000D01*
X90805000Y63500000D02*
X78105000Y63500000D01*
%TO.N,/CRR*%
X33020000Y46355000D02*
X35814000Y43561000D01*
X20320000Y48260000D02*
X22225000Y46355000D01*
X39878000Y40640000D02*
X38100000Y42418000D01*
X46990000Y40640000D02*
X39878000Y40640000D01*
X22225000Y46355000D02*
X33020000Y46355000D01*
X49530000Y38100000D02*
X46990000Y40640000D01*
%TO.N,/DRR*%
X17780000Y48260000D02*
X20320000Y45720000D01*
X45720000Y31750000D02*
X45720000Y39116000D01*
X20320000Y45720000D02*
X32385000Y45720000D01*
X46990000Y30480000D02*
X45720000Y31750000D01*
X44831000Y40005000D02*
X39497000Y40005000D01*
X32385000Y45720000D02*
X35179000Y42926000D01*
X39497000Y40005000D02*
X37846000Y41656000D01*
X45720000Y39116000D02*
X44831000Y40005000D01*
%TO.N,/DSR*%
X15240000Y43180000D02*
X15240000Y48260000D01*
X17780000Y40640000D02*
X15240000Y43180000D01*
X19050000Y38100000D02*
X22225000Y34925000D01*
X27940000Y34925000D02*
X29210000Y33655000D01*
X83820000Y35560000D02*
X83820000Y38100000D01*
X22225000Y34925000D02*
X27940000Y34925000D01*
%TO.N,/~{IOCS}*%
X43180000Y10160000D02*
X37465000Y10160000D01*
X12700000Y24130000D02*
X15240000Y24130000D01*
X27178000Y13970000D02*
X26543000Y14605000D01*
X10160000Y24130000D02*
X12700000Y24130000D01*
X45720000Y7620000D02*
X43180000Y10160000D01*
X15240000Y24130000D02*
X17145000Y24130000D01*
X26543000Y14605000D02*
X26543000Y15367000D01*
X33655000Y13970000D02*
X27178000Y13970000D01*
X37465000Y10160000D02*
X33655000Y13970000D01*
X26543000Y15367000D02*
X17780000Y24130000D01*
%TO.N,/330h*%
X15240000Y15240000D02*
X15240000Y19050000D01*
X15240000Y19050000D02*
X17780000Y21590000D01*
%TO.N,/320h*%
X12700000Y19050000D02*
X15240000Y21590000D01*
X12700000Y15240000D02*
X12700000Y19050000D01*
%TO.N,/310h*%
X10160000Y19050000D02*
X12700000Y21590000D01*
X10160000Y15240000D02*
X10160000Y19050000D01*
%TO.N,/300h*%
X7620000Y15240000D02*
X7620000Y19050000D01*
X7620000Y19050000D02*
X10160000Y21590000D01*
%TO.N,/~{DW}*%
X43180000Y15240000D02*
X39370000Y19050000D01*
X43180000Y25781000D02*
X39370000Y21971000D01*
X39370000Y21971000D02*
X39370000Y19050000D01*
X41910000Y30480000D02*
X41910000Y29210000D01*
X41910000Y29210000D02*
X43180000Y27940000D01*
X43180000Y27940000D02*
X43180000Y25781000D01*
%TO.N,/~{CW}*%
X45720000Y15240000D02*
X43815000Y13335000D01*
X44450000Y38100000D02*
X40640005Y34290005D01*
X40640005Y24511009D02*
X36830000Y20701004D01*
X36830000Y20701004D02*
X36830000Y19050000D01*
X36830000Y14224000D02*
X36830000Y19050000D01*
X43815000Y13335000D02*
X37719000Y13335000D01*
X37719000Y13335000D02*
X36830000Y14224000D01*
X40640005Y34290005D02*
X40640005Y24511009D01*
%TO.N,/~{DR}*%
X58928000Y9906000D02*
X56134000Y12700000D01*
X45720000Y21590000D02*
X43180000Y24130000D01*
X48260000Y15240000D02*
X45720000Y17780000D01*
X43180000Y24130000D02*
X43180000Y24892000D01*
X56134000Y12700000D02*
X50800000Y12700000D01*
X50800000Y12700000D02*
X48260000Y15240000D01*
X45720000Y17780000D02*
X45720000Y21590000D01*
%TO.N,/~{CR}*%
X57150000Y21590000D02*
X57150000Y40005000D01*
X50800000Y15240000D02*
X57150000Y21590000D01*
%TO.N,/IRQ*%
X66040000Y38100000D02*
X66040000Y36195000D01*
X26670000Y27940012D02*
X29845006Y24765006D01*
X26670000Y33655000D02*
X26670000Y27940012D01*
X66040000Y36195000D02*
X65405000Y35560000D01*
%TO.N,/~{IDRRS}*%
X36830000Y30480000D02*
X36830000Y32385006D01*
X49530000Y20504000D02*
X45720000Y24314000D01*
X45720000Y24314000D02*
X45720000Y27793916D01*
X36830000Y32385006D02*
X39370000Y34925006D01*
X44938916Y28575000D02*
X43942000Y28575000D01*
X43942000Y28575000D02*
X43180000Y29337000D01*
X39370000Y38100000D02*
X39370000Y34925006D01*
X45720000Y27793916D02*
X44938916Y28575000D01*
X49530000Y19050000D02*
X49530000Y20504000D01*
X43180000Y29337000D02*
X43180000Y34290000D01*
X43180000Y34290000D02*
X42545000Y34925000D01*
%TO.N,/~{DRCLK}*%
X41910000Y20504000D02*
X43631000Y22225000D01*
X83820000Y26670000D02*
X83820000Y22860000D01*
X41910000Y19050000D02*
X41910000Y20504000D01*
X43631000Y22225000D02*
X43815000Y22225000D01*
X83820000Y22860000D02*
X83185000Y22225000D01*
%TO.N,/~{DRRS}*%
X27305000Y34290000D02*
X29210000Y32385000D01*
X31750010Y27304990D02*
X31750010Y24765000D01*
X8890000Y38100000D02*
X12700000Y34290000D01*
X44450000Y26670000D02*
X44450000Y24130000D01*
X29210000Y29845000D02*
X31750010Y27304990D01*
X44450000Y24130000D02*
X45085000Y23495000D01*
X29210000Y32385000D02*
X29210000Y29845000D01*
X12700000Y34290000D02*
X27305000Y34290000D01*
%TO.N,/~{DRR}*%
X49530000Y30480000D02*
X53975000Y34925000D01*
%TO.N,/~{DSR}*%
X63500000Y30480000D02*
X63500000Y32385000D01*
X21590000Y38100000D02*
X24130000Y35560000D01*
X28575000Y35560000D02*
X31115000Y33020000D01*
X24130000Y35560000D02*
X28575000Y35560000D01*
X63500000Y32385000D02*
X62865000Y33020000D01*
%TO.N,/RX'*%
X90170000Y10695000D02*
X91594000Y9271000D01*
X91594000Y9271000D02*
X95123000Y9271000D01*
X97305000Y11453000D02*
X97305000Y12050000D01*
X95123000Y9271000D02*
X97305000Y11453000D01*
%TO.N,/TX'*%
X97305000Y20360000D02*
X92252500Y20360000D01*
X92252500Y20360000D02*
X90170000Y22442500D01*
%TO.N,/IRQ9*%
X27940000Y7620000D02*
X32385000Y3175000D01*
X57785000Y3175000D02*
X59182000Y1778000D01*
X32385000Y3175000D02*
X57785000Y3175000D01*
D35*
%TO.N,-12V*%
X80645000Y78105000D02*
X66675000Y78105000D01*
X81534000Y1016000D02*
X89281000Y1016000D01*
X57150000Y76835000D02*
X55880000Y78105000D01*
X100330000Y41275000D02*
X98425000Y43180000D01*
X100330000Y12065000D02*
X100330000Y41275000D01*
X59650000Y76200000D02*
X57785000Y76200000D01*
X59690000Y76160000D02*
X59650000Y76200000D01*
X66675000Y78105000D02*
X64770000Y76200000D01*
X55880000Y78105000D02*
X55880000Y81280000D01*
X80030488Y2519512D02*
X81534000Y1016000D01*
X98425000Y43180000D02*
X98425000Y60325000D01*
X89281000Y1016000D02*
X100330000Y12065000D01*
X98425000Y60325000D02*
X80645000Y78105000D01*
X57785000Y76200000D02*
X57150000Y76835000D01*
X55880000Y75565000D02*
X57150000Y76835000D01*
%TO.N,+12V*%
X10160000Y73660000D02*
X10922000Y72898000D01*
X22098000Y4191000D02*
X23911005Y2377995D01*
X23911005Y2377995D02*
X56423001Y2377995D01*
X10922000Y72898000D02*
X13843000Y72898000D01*
X13843000Y72898000D02*
X15240000Y74295000D01*
X16256000Y70485000D02*
X60325000Y70485000D01*
X10160000Y73660000D02*
X-1524000Y61976000D01*
X-1524000Y6223004D02*
X1270000Y3429004D01*
X-1524000Y61976000D02*
X-1524000Y6223004D01*
X61595000Y71755000D02*
X61595000Y78740000D01*
X60325000Y70485000D02*
X61595000Y71755000D01*
X13843000Y72898000D02*
X16256000Y70485000D01*
X61595000Y78740000D02*
X60960000Y79375000D01*
X56423001Y2377995D02*
X57023000Y1777996D01*
X60960000Y79375000D02*
X60960000Y81280000D01*
D34*
%TO.N,/Wavetable/LEFT*%
X53340000Y81280000D02*
X52705000Y81280000D01*
X43180000Y76200000D02*
X43180000Y73660000D01*
X52705000Y81280000D02*
X51435000Y82550000D01*
X49530000Y82550000D02*
X43180000Y76200000D01*
X51435000Y82550000D02*
X49530000Y82550000D01*
%TO.N,/Wavetable/RIGHT*%
X58420000Y81280000D02*
X57150000Y82550000D01*
X52070000Y84455000D02*
X51435000Y85090000D01*
X52070000Y83185000D02*
X52070000Y84455000D01*
X49530000Y85090000D02*
X45720000Y81280000D01*
X57150000Y82550000D02*
X52705000Y82550000D01*
X51435000Y85090000D02*
X49530000Y85090000D01*
X52705000Y82550000D02*
X52070000Y83185000D01*
%TO.N,~{RESET}*%
X81280000Y36646000D02*
X86360000Y31566000D01*
X40640000Y67945000D02*
X47244000Y67945000D01*
X35447724Y42291000D02*
X36830000Y43673276D01*
X39370000Y24765000D02*
X38100000Y23495000D01*
X31369000Y41656000D02*
X33020000Y40005000D01*
X39370000Y66675000D02*
X40640000Y67945000D01*
X34925000Y27940000D02*
X34925000Y25400000D01*
X47244000Y67945000D02*
X48895000Y69596000D01*
X36830000Y23495000D02*
X38100000Y23495000D01*
X33020000Y29845000D02*
X34925000Y27940000D01*
X33020000Y40005000D02*
X33020000Y29845000D01*
X31369000Y41656000D02*
X32004000Y42291000D01*
X46990000Y19050000D02*
X46990000Y21590000D01*
X32004000Y42291000D02*
X35447724Y42291000D01*
X81280000Y38100000D02*
X81280000Y36646000D01*
X86360000Y31566000D02*
X86360000Y23495000D01*
X50800000Y81280000D02*
X48895000Y79375000D01*
X46990000Y21590000D02*
X45720000Y22860000D01*
X48895000Y79375000D02*
X48895000Y74549000D01*
X39370000Y56769000D02*
X39370000Y66675000D01*
X29210000Y43815000D02*
X31369000Y41656000D01*
X34925000Y25400000D02*
X36830000Y23495000D01*
X36830000Y43673276D02*
X36830000Y47244000D01*
X39370000Y26670000D02*
X39370000Y24765000D01*
D35*
%TO.N,+5VA*%
X16980001Y76959999D02*
X17780000Y76160000D01*
X12700000Y74295000D02*
X12700000Y76116882D01*
X32980000Y76160000D02*
X38100000Y81280000D01*
X13543117Y76959999D02*
X16980001Y76959999D01*
X17780000Y76160000D02*
X32980000Y76160000D01*
X12700000Y76116882D02*
X13543117Y76959999D01*
%TO.N,-5VA*%
X52869999Y72860001D02*
X52070000Y73660000D01*
X55715001Y72860001D02*
X52869999Y72860001D01*
X57150000Y74295000D02*
X55715001Y72860001D01*
X52070000Y73660000D02*
X45720000Y73660000D01*
D34*
%TO.N,/Wavetable/LEFT'*%
X38100000Y73660000D02*
X36195000Y71755000D01*
X82677000Y85725000D02*
X83439000Y84963000D01*
X40640000Y76200000D02*
X40640000Y73660000D01*
X44450000Y80010000D02*
X40640000Y76200000D01*
X44450000Y82550000D02*
X47625000Y85725000D01*
X44450000Y82550000D02*
X44450000Y80010000D01*
X26035000Y71755000D02*
X24130000Y73660000D01*
X96600000Y76755000D02*
X96600000Y74255000D01*
X88345000Y76755000D02*
X96600000Y76755000D01*
X83439000Y84963000D02*
X83439000Y81661000D01*
X83439000Y81661000D02*
X88345000Y76755000D01*
X38100000Y73660000D02*
X40640000Y73660000D01*
X47625000Y85725000D02*
X82677000Y85725000D01*
X36195000Y71755000D02*
X26035000Y71755000D01*
%TO.N,/Wavetable/RIGHT'*%
X33020000Y73660000D02*
X40640000Y81280000D01*
X84074000Y85217000D02*
X84074000Y82042000D01*
X31750000Y73660000D02*
X33020000Y73660000D01*
X43180000Y82550000D02*
X46990000Y86360000D01*
X88011000Y78105000D02*
X97409000Y78105000D01*
X96600000Y69255000D02*
X96600000Y66755000D01*
X40640000Y81280000D02*
X43180000Y81280000D01*
X97409000Y78105000D02*
X98425000Y77089000D01*
X84074000Y82042000D02*
X88011000Y78105000D01*
X46990000Y86360000D02*
X82931000Y86360000D01*
X82931000Y86360000D02*
X84074000Y85217000D01*
X98425000Y71080000D02*
X96600000Y69255000D01*
X43180000Y82550000D02*
X43180000Y81280000D01*
X98425000Y77089000D02*
X98425000Y71080000D01*
%TO.N,/TX1*%
X84455000Y57785000D02*
X84455000Y58420000D01*
X85725000Y52705000D02*
X85725000Y56515000D01*
X90805000Y58420000D02*
X87630000Y58420000D01*
X85725000Y56515000D02*
X84455000Y57785000D01*
X85090000Y52070000D02*
X85725000Y52705000D01*
X85725000Y56515000D02*
X87630000Y58420000D01*
X69722998Y52070000D02*
X85090000Y52070000D01*
%TO.N,/RX1*%
X82550000Y54610000D02*
X67183000Y54610000D01*
X83185000Y55245000D02*
X82550000Y54610000D01*
X83185000Y56515000D02*
X83185000Y55245000D01*
X81915000Y57785000D02*
X83185000Y56515000D01*
X83820000Y60960000D02*
X83185000Y60325000D01*
X81915000Y58420000D02*
X81915000Y57785000D01*
X90805000Y60960000D02*
X83820000Y60960000D01*
%TO.N,WT_RX*%
X73660000Y77216000D02*
X73660000Y66040000D01*
X81915000Y55880000D02*
X81915000Y56515000D01*
X80645000Y59055000D02*
X80645000Y57785000D01*
X80645000Y57785000D02*
X81915000Y56515000D01*
X73660000Y66040000D02*
X80645000Y59055000D01*
%TO.N,WT_TX*%
X84455000Y56515000D02*
X84455000Y55880000D01*
X83185000Y57785000D02*
X84455000Y56515000D01*
X77704519Y62865000D02*
X79375000Y62865000D01*
X76200000Y64369519D02*
X77704519Y62865000D01*
X83185000Y59055000D02*
X83185000Y57785000D01*
X78740000Y77216000D02*
X76200000Y74676000D01*
X79375000Y62865000D02*
X83185000Y59055000D01*
X76200000Y74676000D02*
X76200000Y64369519D01*
%TO.N,/TX0*%
X52578000Y46482000D02*
X58293000Y46482000D01*
X60325000Y44450000D02*
X61595000Y44450000D01*
X79692500Y44450000D02*
X76835000Y44450000D01*
X58293000Y46482000D02*
X60325000Y44450000D01*
X90170000Y30062500D02*
X90170000Y33972500D01*
X90170000Y33972500D02*
X79692500Y44450000D01*
X50800000Y48260000D02*
X52578000Y46482000D01*
%TO.N,/RX0*%
X88900000Y19585000D02*
X88900000Y23395000D01*
X58674000Y50165000D02*
X59690000Y49149000D01*
X81280000Y45085000D02*
X76200000Y45085000D01*
X91440000Y34925000D02*
X81280000Y45085000D01*
X59690000Y46355000D02*
X60960000Y45085000D01*
X90170000Y18315000D02*
X88900000Y19585000D01*
X59690000Y49149000D02*
X59690000Y46355000D01*
X48260000Y48260000D02*
X50165000Y50165000D01*
X50165000Y50165000D02*
X58674000Y50165000D01*
X91440000Y25935000D02*
X91440000Y34925000D01*
X88900000Y23395000D02*
X91440000Y25935000D01*
%TD*%
M02*
